<svg width="501" height="223" viewBox="0 0 501 223" fill="none" xmlns="http://www.w3.org/2000/svg">
<path d="M106.245 210.122C94.2491 202.596 85.5271 189.068 87.3122 175.392C98.1136 186.189 112.534 192.959 128.021 194.505C133.996 195.081 140.704 195.122 144.948 199.213C147.588 201.758 148.71 205.478 148.767 209.074C148.825 212.671 147.927 216.211 147.036 219.704L147.255 220.577C132.946 220.068 118.24 217.648 106.245 210.122Z" fill="#F0F0F0"/>
<path d="M87.6154 175.389C92.1027 185.949 99.9321 194.879 109.992 200.911C112.133 202.247 114.48 203.249 116.946 203.881C119.369 204.422 121.898 204.329 124.27 203.611C126.496 202.984 128.698 202.094 131.043 201.999C132.245 201.968 133.44 202.181 134.549 202.625C135.659 203.07 136.659 203.735 137.483 204.577C139.593 206.624 140.813 209.279 141.912 211.915C143.133 214.842 144.352 217.901 146.838 220.069C147.14 220.332 146.699 220.767 146.398 220.504C142.073 216.732 141.597 210.681 138.197 206.305C136.61 204.263 134.375 202.669 131.643 202.602C129.253 202.543 126.982 203.458 124.734 204.111C122.43 204.845 119.975 205.024 117.583 204.633C115.091 204.124 112.708 203.21 110.535 201.932C105.596 199.128 101.145 195.593 97.3454 191.458C92.9822 186.762 89.4856 181.382 87.0069 175.551C86.8537 175.19 87.4631 175.031 87.6154 175.389H87.6154Z" fill="white"/>
<path d="M106.632 199.152C105.352 200.64 103.564 201.641 101.588 201.976C99.6116 202.312 97.5759 201.96 95.8443 200.984C95.4946 200.785 95.7988 200.253 96.149 200.452C97.7597 201.363 99.656 201.691 101.496 201.375C103.335 201.059 104.997 200.12 106.18 198.728C106.438 198.426 106.888 198.852 106.632 199.152V199.152Z" fill="white"/>
<path d="M123.182 204.071C122.836 200.137 120.962 196.472 117.934 193.808C117.634 193.544 118.075 193.11 118.375 193.373C121.521 196.151 123.462 199.968 123.813 204.064C123.846 204.454 123.215 204.46 123.182 204.071Z" fill="white"/>
<path d="M93.7764 186.508C94.3964 186.032 94.8839 185.415 95.195 184.713C95.5061 184.01 95.6312 183.245 95.5589 182.484C95.5207 182.094 96.1519 182.089 96.1899 182.477C96.2657 183.317 96.1265 184.162 95.7845 184.939C95.4426 185.716 94.9083 186.4 94.2283 186.932C94.1686 186.987 94.0892 187.019 94.0063 187.02C93.9234 187.021 93.8433 186.991 93.7821 186.937C93.7226 186.881 93.6886 186.804 93.6875 186.724C93.6865 186.643 93.7184 186.566 93.7764 186.508Z" fill="white"/>
<path d="M128.233 150.365C128.264 150.608 128.295 150.85 128.331 151.096C128.766 154.357 129.476 157.579 130.454 160.729C130.525 160.974 130.602 161.221 130.68 161.463C133.119 169.03 136.996 176.094 142.114 182.298C144.153 184.765 146.384 187.079 148.788 189.22C152.107 192.176 155.951 195.128 158.002 198.858C158.22 199.245 158.413 199.644 158.581 200.054L148.346 220.252C148.299 220.287 148.257 220.324 148.209 220.359L147.839 221.183C147.707 221.081 147.572 220.972 147.44 220.87C147.364 220.811 147.289 220.748 147.212 220.689C147.162 220.648 147.111 220.607 147.063 220.573C147.047 220.56 147.03 220.546 147.018 220.535C146.97 220.501 146.929 220.465 146.886 220.433C146.132 219.828 145.381 219.217 144.633 218.599C144.628 218.597 144.628 218.597 144.625 218.59C138.939 213.872 133.612 208.655 129.277 202.826C129.147 202.65 129.012 202.473 128.886 202.288C126.947 199.65 125.235 196.864 123.768 193.957C122.97 192.363 122.256 190.732 121.629 189.068C120.018 184.767 119.12 180.249 118.968 175.679C118.665 166.569 121.393 157.467 127.743 150.865C127.905 150.696 128.066 150.532 128.233 150.365Z" fill="#F0F0F0"/>
<path d="M128.475 150.535C125.454 161.568 126.121 173.236 130.38 183.883C131.255 186.19 132.502 188.351 134.075 190.285C135.671 192.121 137.749 193.512 140.093 194.314C142.262 195.103 144.576 195.669 146.508 196.953C147.487 197.624 148.308 198.487 148.916 199.485C149.524 200.483 149.906 201.593 150.038 202.743C150.442 205.601 149.756 208.428 148.985 211.17C148.129 214.215 147.19 217.364 147.819 220.536C147.895 220.92 147.271 221.011 147.195 220.628C146.1 215.109 149.505 210.001 149.527 204.537C149.538 201.987 148.75 199.419 146.61 197.781C144.739 196.349 142.353 195.764 140.149 194.982C137.851 194.233 135.779 192.953 134.113 191.254C132.443 189.403 131.111 187.293 130.176 185.012C127.986 179.91 126.642 174.509 126.195 169.005C125.648 162.727 126.221 156.404 127.889 150.312C127.992 149.935 128.578 150.161 128.475 150.535Z" fill="white"/>
<path d="M128.801 180.532C126.848 180.977 124.795 180.74 123.007 179.863C121.22 178.985 119.814 177.525 119.042 175.742C118.887 175.38 119.463 175.132 119.618 175.493C120.334 177.155 121.643 178.515 123.31 179.329C124.976 180.143 126.89 180.357 128.705 179.931C129.1 179.84 129.193 180.441 128.801 180.532V180.532Z" fill="white"/>
<path d="M138.937 194.053C141.122 190.711 141.918 186.698 141.166 182.816C141.091 182.432 141.715 182.34 141.79 182.724C142.564 186.765 141.727 190.939 139.446 194.412C139.228 194.743 138.721 194.382 138.937 194.053Z" fill="white"/>
<path d="M126.437 162.984C127.23 162.963 128.005 162.753 128.693 162.372C129.381 161.992 129.959 161.453 130.377 160.804C130.59 160.471 131.098 160.833 130.886 161.164C130.421 161.879 129.781 162.473 129.022 162.895C128.263 163.317 127.409 163.554 126.533 163.584C126.451 163.594 126.368 163.573 126.301 163.526C126.234 163.478 126.189 163.408 126.173 163.33C126.161 163.25 126.182 163.169 126.231 163.105C126.281 163.04 126.355 162.996 126.437 162.984H126.437Z" fill="white"/>
<path d="M472.326 210.122C484.322 202.596 493.044 189.068 491.259 175.392C480.457 186.189 466.037 192.959 450.55 194.505C444.575 195.081 437.867 195.122 433.623 199.213C430.983 201.758 429.861 205.478 429.803 209.074C429.746 212.671 430.643 216.211 431.535 219.704L431.316 220.577C445.625 220.068 460.33 217.648 472.326 210.122Z" fill="#F0F0F0"/>
<path d="M490.957 175.389C486.469 185.949 478.64 194.879 468.581 200.911C466.439 202.247 464.092 203.249 461.626 203.881C459.203 204.422 456.674 204.329 454.302 203.611C452.076 202.984 449.874 202.094 447.529 201.999C446.327 201.968 445.132 202.181 444.023 202.625C442.913 203.07 441.913 203.735 441.089 204.577C438.979 206.624 437.759 209.279 436.66 211.915C435.439 214.842 434.22 217.901 431.734 220.069C431.432 220.332 431.873 220.767 432.174 220.504C436.499 216.732 436.975 210.681 440.375 206.305C441.962 204.263 444.197 202.669 446.929 202.602C449.319 202.543 451.59 203.458 453.838 204.111C456.142 204.845 458.597 205.024 460.989 204.633C463.481 204.124 465.864 203.21 468.037 201.932C472.976 199.128 477.427 195.593 481.227 191.458C485.59 186.762 489.086 181.382 491.565 175.551C491.718 175.19 491.109 175.031 490.957 175.389H490.957Z" fill="white"/>
<path d="M471.941 199.152C473.222 200.64 475.01 201.641 476.986 201.976C478.962 202.312 480.998 201.96 482.729 200.984C483.079 200.785 482.775 200.253 482.425 200.452C480.814 201.363 478.918 201.691 477.078 201.375C475.239 201.059 473.577 200.12 472.393 198.728C472.136 198.426 471.685 198.852 471.941 199.152V199.152Z" fill="white"/>
<path d="M455.388 204.071C455.734 200.137 457.608 196.472 460.636 193.808C460.936 193.544 460.495 193.11 460.195 193.373C457.05 196.151 455.108 199.968 454.757 204.064C454.724 204.454 455.355 204.46 455.388 204.071Z" fill="white"/>
<path d="M484.797 186.508C484.177 186.032 483.689 185.415 483.378 184.713C483.067 184.01 482.942 183.245 483.014 182.484C483.053 182.094 482.421 182.089 482.383 182.477C482.308 183.317 482.447 184.162 482.789 184.939C483.131 185.716 483.665 186.4 484.345 186.932C484.405 186.987 484.484 187.019 484.567 187.02C484.65 187.021 484.73 186.991 484.791 186.937C484.851 186.881 484.885 186.804 484.886 186.724C484.887 186.643 484.855 186.566 484.797 186.508Z" fill="white"/>
<path d="M450.34 150.365C450.309 150.608 450.278 150.85 450.242 151.096C449.806 154.357 449.096 157.579 448.119 160.729C448.047 160.974 447.971 161.221 447.892 161.463C445.453 169.03 441.576 176.094 436.459 182.298C434.42 184.765 432.189 187.079 429.785 189.22C426.466 192.176 422.622 195.128 420.571 198.858C420.353 199.245 420.159 199.644 419.992 200.054L430.227 220.252C430.274 220.287 430.316 220.324 430.364 220.359L430.734 221.183C430.866 221.081 431 220.972 431.132 220.87C431.209 220.811 431.284 220.748 431.361 220.689C431.411 220.648 431.461 220.607 431.509 220.573C431.526 220.56 431.543 220.546 431.555 220.535C431.603 220.501 431.644 220.465 431.687 220.433C432.441 219.828 433.192 219.216 433.94 218.599C433.945 218.597 433.945 218.597 433.947 218.59C439.634 213.872 444.96 208.655 449.295 202.826C449.426 202.65 449.561 202.473 449.687 202.288C451.626 199.65 453.337 196.864 454.805 193.957C455.603 192.363 456.317 190.732 456.944 189.068C458.554 184.767 459.453 180.249 459.605 175.679C459.907 166.569 457.18 157.467 450.83 150.865C450.668 150.696 450.507 150.532 450.34 150.365Z" fill="#F0F0F0"/>
<path d="M450.096 150.535C453.117 161.568 452.451 173.236 448.192 183.883C447.317 186.19 446.07 188.351 444.496 190.285C442.9 192.121 440.823 193.512 438.479 194.314C436.31 195.103 433.996 195.669 432.063 196.953C431.084 197.624 430.264 198.487 429.656 199.485C429.047 200.483 428.665 201.593 428.534 202.743C428.13 205.601 428.816 208.428 429.587 211.17C430.443 214.215 431.382 217.364 430.753 220.536C430.677 220.92 431.301 221.011 431.377 220.628C432.471 215.109 429.067 210.001 429.044 204.537C429.034 201.987 429.822 199.419 431.962 197.781C433.833 196.349 436.218 195.764 438.422 194.982C440.72 194.233 442.793 192.953 444.458 191.254C446.129 189.403 447.46 187.293 448.396 185.012C450.586 179.91 451.929 174.509 452.377 169.005C452.924 162.727 452.351 156.404 450.683 150.312C450.58 149.935 449.993 150.161 450.096 150.535Z" fill="white"/>
<path d="M449.775 180.532C451.728 180.977 453.781 180.74 455.569 179.863C457.356 178.985 458.762 177.525 459.534 175.742C459.689 175.38 459.113 175.132 458.958 175.493C458.242 177.155 456.933 178.515 455.266 179.329C453.6 180.143 451.686 180.357 449.871 179.931C449.476 179.84 449.383 180.441 449.775 180.532V180.532Z" fill="white"/>
<path d="M439.634 194.053C437.449 190.711 436.654 186.698 437.405 182.816C437.48 182.432 436.856 182.34 436.781 182.724C436.007 186.765 436.844 190.939 439.125 194.412C439.343 194.743 439.851 194.382 439.634 194.053Z" fill="white"/>
<path d="M452.134 162.984C451.341 162.963 450.566 162.753 449.878 162.372C449.191 161.992 448.612 161.453 448.194 160.804C447.981 160.471 447.474 160.833 447.685 161.164C448.151 161.879 448.79 162.473 449.549 162.895C450.308 163.317 451.162 163.554 452.038 163.584C452.12 163.594 452.203 163.573 452.27 163.526C452.337 163.478 452.383 163.408 452.398 163.33C452.41 163.25 452.389 163.169 452.34 163.105C452.29 163.04 452.216 162.996 452.134 162.984H452.134Z" fill="white"/>
<path d="M129.871 143.755C129.418 143.492 129.029 143.137 128.733 142.714C128.438 142.291 128.242 141.81 128.16 141.306C128.078 140.803 128.112 140.288 128.259 139.798C128.406 139.308 128.663 138.855 129.012 138.471L122.631 127.704L129.308 128.12L134.344 138.28C134.975 138.887 135.353 139.695 135.407 140.552C135.46 141.409 135.185 142.255 134.634 142.93C134.083 143.605 133.293 144.062 132.415 144.214C131.538 144.366 130.633 144.203 129.871 143.755Z" fill="#FFB6B6"/>
<path d="M80.7525 217.154H85.1704L87.272 200.75L80.752 200.75L80.7525 217.154Z" fill="#FFB6B6"/>
<path d="M79.623 215.765L88.3228 215.765H88.3232C89.7936 215.765 91.2037 216.327 92.2434 217.328C93.2831 218.329 93.8673 219.687 93.8674 221.102V221.276L79.6233 221.276L79.623 215.765Z" fill="#2F2E41"/>
<path d="M111.021 217.154H115.438L117.54 200.75L111.02 200.75L111.021 217.154Z" fill="#FFB6B6"/>
<path d="M109.893 215.765L118.592 215.765H118.593C120.063 215.765 121.473 216.327 122.513 217.328C123.553 218.329 124.137 219.687 124.137 221.102V221.276L109.893 221.276L109.893 215.765Z" fill="#2F2E41"/>
<path d="M122.38 128.167C122.38 128.167 123.595 144.825 121.202 153.214C118.808 161.604 118.381 212.337 118.381 212.337H110.36L103.407 143.278L87.3789 212.581L79.7383 212.075L83.9285 130.411L122.38 128.167Z" fill="#2F2E41"/>
<path d="M87.2448 72.0142L93.3771 67.7063L103.653 69.8603L106.434 76.2229L111.227 78.5106C112.803 79.2628 114.166 80.3721 115.198 81.7432C116.23 83.1144 116.901 84.7063 117.153 86.3822L124.001 131.902L83.93 130.411L79.079 76.8024C79.0283 76.2424 79.0948 75.6783 79.2746 75.1435C79.4544 74.6087 79.7438 74.1141 80.1257 73.6889C80.5076 73.2636 80.9743 72.9165 81.498 72.668C82.0217 72.4194 82.5919 72.2746 83.1748 72.242L87.2448 72.0142Z" fill="#3F3D56"/>
<path d="M113.76 82.0663L117.461 86.869L133.58 134.2L126.024 137.112L113.925 115.057L113.76 82.0663Z" fill="#3F3D56"/>
<path d="M100.346 65.4571C105.289 65.4571 109.296 61.5997 109.296 56.8412C109.296 52.0828 105.289 48.2253 100.346 48.2253C95.4035 48.2253 91.3965 52.0828 91.3965 56.8412C91.3965 61.5997 95.4035 65.4571 100.346 65.4571Z" fill="#FFB9B9"/>
<path opacity="0.1" d="M80.832 92.2891L95.4369 111.844L111.762 122.093L80.832 92.2891Z" fill="black"/>
<path d="M95.6014 63.0699C94.9788 61.8733 94.3384 60.5709 94.5764 59.2524C94.8143 57.9339 96.386 56.785 97.599 57.4387C98.1023 55.6878 100.33 54.9215 102.206 55.1236C104.081 55.3257 105.808 56.1966 107.655 56.5705C109.501 56.9443 111.744 56.6478 112.742 55.1059L110.354 55.0661L112.841 52.2893L109.958 52.0816C110.957 51.0442 110.692 49.2816 109.725 48.2165C108.758 47.1515 107.291 46.6476 105.86 46.3289C103.003 45.6948 100.041 45.6293 97.156 46.1363C95.7958 46.3381 94.4854 46.7771 93.2889 47.4318C92.1622 48.0933 91.2313 49.0228 90.5855 50.1307C89.8889 51.3808 89.5123 52.7729 89.4871 54.1912C89.4446 56.0911 89.898 57.9709 90.806 59.6583C91.7139 61.3457 93.0473 62.7867 94.6838 63.8493" fill="#2F2E41"/>
<path d="M428.831 221.497H151.087C148.227 221.494 145.485 220.399 143.462 218.452C141.44 216.505 140.302 213.865 140.299 211.112V10.3857C140.302 7.63216 141.44 4.99231 143.462 3.04529C145.485 1.09827 148.227 0.00309129 151.087 0H428.831C431.691 0.00314017 434.433 1.09835 436.456 3.04536C438.478 4.99238 439.616 7.6322 439.619 10.3857V211.112C439.616 213.865 438.478 216.505 436.456 218.452C434.433 220.399 431.691 221.494 428.831 221.497Z" fill="#E4E4E4"/>
<path d="M358.928 92.1623H316.053C313.935 92.1623 311.903 91.352 310.404 89.9097C308.906 88.4674 308.064 86.5111 308.064 84.4714C308.064 82.4316 308.906 80.4754 310.404 79.0331C311.903 77.5908 313.935 76.7805 316.053 76.7805H358.928C361.047 76.7805 363.079 77.5908 364.577 79.0331C366.075 80.4754 366.917 82.4316 366.917 84.4714C366.917 86.5111 366.075 88.4674 364.577 89.9097C363.079 91.352 361.047 92.1623 358.928 92.1623Z" fill="white"/>
<path d="M321.381 113.184H311.261C310.484 113.184 309.739 112.887 309.19 112.358C308.641 111.829 308.332 111.112 308.332 110.364C308.332 109.616 308.641 108.899 309.19 108.37C309.739 107.841 310.484 107.544 311.261 107.544H321.381C322.158 107.544 322.903 107.841 323.452 108.37C324.001 108.899 324.31 109.616 324.31 110.364C324.31 111.112 324.001 111.829 323.452 112.358C322.903 112.887 322.158 113.184 321.381 113.184Z" fill="white"/>
<path d="M363.455 113.184H353.336C352.559 113.184 351.814 112.887 351.264 112.358C350.715 111.829 350.406 111.112 350.406 110.364C350.406 109.616 350.715 108.899 351.264 108.37C351.814 107.841 352.559 107.544 353.336 107.544H363.455C364.232 107.544 364.977 107.841 365.526 108.37C366.076 108.899 366.384 109.616 366.384 110.364C366.384 111.112 366.076 111.829 365.526 112.358C364.977 112.887 364.232 113.184 363.455 113.184Z" fill="white"/>
<path d="M342.152 113.184H332.033C331.256 113.184 330.511 112.887 329.961 112.358C329.412 111.829 329.104 111.112 329.104 110.364C329.104 109.616 329.412 108.899 329.961 108.37C330.511 107.841 331.256 107.544 332.033 107.544H342.152C342.929 107.544 343.674 107.841 344.223 108.37C344.773 108.899 345.081 109.616 345.081 110.364C345.081 111.112 344.773 111.829 344.223 112.358C343.674 112.887 342.929 113.184 342.152 113.184Z" fill="white"/>
<path d="M321.381 123.951H311.261C310.484 123.951 309.739 123.654 309.19 123.125C308.641 122.596 308.332 121.879 308.332 121.131C308.332 120.383 308.641 119.666 309.19 119.137C309.739 118.608 310.484 118.311 311.261 118.311H321.381C322.158 118.311 322.903 118.608 323.452 119.137C324.001 119.666 324.31 120.383 324.31 121.131C324.31 121.879 324.001 122.596 323.452 123.125C322.903 123.654 322.158 123.951 321.381 123.951Z" fill="white"/>
<path d="M363.455 123.951H353.336C352.559 123.951 351.814 123.654 351.264 123.125C350.715 122.596 350.406 121.879 350.406 121.131C350.406 120.383 350.715 119.666 351.264 119.137C351.814 118.608 352.559 118.311 353.336 118.311H363.455C364.232 118.311 364.977 118.608 365.526 119.137C366.076 119.666 366.384 120.383 366.384 121.131C366.384 121.879 366.076 122.596 365.526 123.125C364.977 123.654 364.232 123.951 363.455 123.951Z" fill="white"/>
<path d="M342.152 123.951H332.033C331.256 123.951 330.511 123.654 329.961 123.125C329.412 122.596 329.104 121.879 329.104 121.131C329.104 120.383 329.412 119.666 329.961 119.137C330.511 118.608 331.256 118.311 332.033 118.311H342.152C342.929 118.311 343.674 118.608 344.223 119.137C344.773 119.666 345.081 120.383 345.081 121.131C345.081 121.879 344.773 122.596 344.223 123.125C343.674 123.654 342.929 123.951 342.152 123.951Z" fill="white"/>
<path d="M321.381 134.718H311.261C310.484 134.718 309.739 134.421 309.19 133.893C308.641 133.364 308.332 132.646 308.332 131.898C308.332 131.151 308.641 130.433 309.19 129.904C309.739 129.376 310.484 129.078 311.261 129.078H321.381C322.158 129.078 322.903 129.376 323.452 129.904C324.001 130.433 324.31 131.151 324.31 131.898C324.31 132.646 324.001 133.364 323.452 133.893C322.903 134.421 322.158 134.718 321.381 134.718Z" fill="white"/>
<path d="M363.455 134.718H353.336C352.559 134.718 351.814 134.421 351.264 133.893C350.715 133.364 350.406 132.646 350.406 131.898C350.406 131.151 350.715 130.433 351.264 129.904C351.814 129.376 352.559 129.078 353.336 129.078H363.455C364.232 129.078 364.977 129.376 365.526 129.904C366.076 130.433 366.384 131.151 366.384 131.898C366.384 132.646 366.076 133.364 365.526 133.893C364.977 134.421 364.232 134.718 363.455 134.718Z" fill="white"/>
<path d="M342.152 134.718H332.033C331.256 134.718 330.511 134.421 329.961 133.893C329.412 133.364 329.104 132.646 329.104 131.898C329.104 131.151 329.412 130.433 329.961 129.904C330.511 129.376 331.256 129.078 332.033 129.078H342.152C342.929 129.078 343.674 129.376 344.223 129.904C344.773 130.433 345.081 131.151 345.081 131.898C345.081 132.646 344.773 133.364 344.223 133.893C343.674 134.421 342.929 134.718 342.152 134.718Z" fill="white"/>
<path d="M321.381 145.486H311.261C310.484 145.486 309.739 145.189 309.19 144.66C308.641 144.131 308.332 143.414 308.332 142.666C308.332 141.918 308.641 141.201 309.19 140.672C309.739 140.143 310.484 139.846 311.261 139.846H321.381C322.158 139.846 322.903 140.143 323.452 140.672C324.001 141.201 324.31 141.918 324.31 142.666C324.31 143.414 324.001 144.131 323.452 144.66C322.903 145.189 322.158 145.486 321.381 145.486Z" fill="white"/>
<path d="M363.455 145.486H353.336C352.559 145.486 351.814 145.189 351.264 144.66C350.715 144.131 350.406 143.414 350.406 142.666C350.406 141.918 350.715 141.201 351.264 140.672C351.814 140.143 352.559 139.846 353.336 139.846H363.455C364.232 139.846 364.977 140.143 365.526 140.672C366.076 141.201 366.384 141.918 366.384 142.666C366.384 143.414 366.076 144.131 365.526 144.66C364.977 145.189 364.232 145.486 363.455 145.486Z" fill="white"/>
<path d="M342.152 145.486H332.033C331.256 145.486 330.511 145.189 329.961 144.66C329.412 144.131 329.104 143.414 329.104 142.666C329.104 141.918 329.412 141.201 329.961 140.672C330.511 140.143 331.256 139.846 332.033 139.846H342.152C342.929 139.846 343.674 140.143 344.223 140.672C344.773 141.201 345.081 141.918 345.081 142.666C345.081 143.414 344.773 144.131 344.223 144.66C343.674 145.189 342.929 145.486 342.152 145.486Z" fill="white"/>
<path d="M252.94 134.206C267.941 134.206 280.102 122.498 280.102 108.057C280.102 93.615 267.941 81.9077 252.94 81.9077C237.938 81.9077 225.777 93.615 225.777 108.057C225.777 122.498 237.938 134.206 252.94 134.206Z" fill="#CACACA"/>
<path d="M252.94 140.102C250.822 140.1 248.791 139.289 247.294 137.847C245.796 136.405 244.954 134.45 244.951 132.411V83.7022C244.95 82.6917 245.156 81.691 245.557 80.7572C245.959 79.8233 246.547 78.9748 247.289 78.2599C248.031 77.5451 248.912 76.9781 249.881 76.5912C250.851 76.2043 251.89 76.0051 252.94 76.0051C253.99 76.0051 255.029 76.2043 255.999 76.5912C256.969 76.9781 257.85 77.5451 258.591 78.2599C259.333 78.9748 259.922 79.8233 260.323 80.7572C260.724 81.691 260.93 82.6917 260.929 83.7022V132.411C260.927 134.45 260.084 136.405 258.587 137.847C257.089 139.289 255.058 140.1 252.94 140.102Z" fill="white"/>
<path d="M323.902 88.8599H316.446C316.164 88.8599 315.893 88.7518 315.693 88.5595C315.493 88.3672 315.381 88.1064 315.381 87.8344C315.381 87.5624 315.493 87.3016 315.693 87.1093C315.893 86.917 316.164 86.809 316.446 86.809H323.902C324.185 86.809 324.456 86.917 324.656 87.1093C324.855 87.3016 324.968 87.5624 324.968 87.8344C324.968 88.1064 324.855 88.3672 324.656 88.5595C324.456 88.7518 324.185 88.8599 323.902 88.8599Z" fill="#E4E4E4"/>
<path d="M335.619 89.1161H328.163C327.88 89.1161 327.609 89.008 327.41 88.8157C327.21 88.6234 327.098 88.3626 327.098 88.0906C327.098 87.8187 327.21 87.5578 327.41 87.3655C327.609 87.1732 327.88 87.0652 328.163 87.0652H335.619C335.902 87.0652 336.173 87.1732 336.372 87.3655C336.572 87.5578 336.684 87.8187 336.684 88.0906C336.684 88.3626 336.572 88.6234 336.372 88.8157C336.173 89.008 335.902 89.1161 335.619 89.1161Z" fill="#E4E4E4"/>
<path d="M347.336 89.3726H339.88C339.597 89.3726 339.326 89.2645 339.126 89.0722C338.927 88.8799 338.814 88.6191 338.814 88.3471C338.814 88.0751 338.927 87.8143 339.126 87.622C339.326 87.4297 339.597 87.3217 339.88 87.3217H347.336C347.619 87.3217 347.889 87.4297 348.089 87.622C348.289 87.8143 348.401 88.0751 348.401 88.3471C348.401 88.6191 348.289 88.8799 348.089 89.0722C347.889 89.2645 347.619 89.3726 347.336 89.3726Z" fill="#E4E4E4"/>
<path d="M359.053 89.6289H351.596C351.314 89.6289 351.043 89.5209 350.843 89.3286C350.643 89.1362 350.531 88.8754 350.531 88.6035C350.531 88.3315 350.643 88.0707 350.843 87.8783C351.043 87.686 351.314 87.578 351.596 87.578H359.053C359.335 87.578 359.606 87.686 359.806 87.8783C360.006 88.0707 360.118 88.3315 360.118 88.6035C360.118 88.8754 360.006 89.1362 359.806 89.3286C359.606 89.5209 359.335 89.6289 359.053 89.6289Z" fill="#E4E4E4"/>
<path d="M175.714 189.836C175.713 191.106 175.975 192.363 176.483 193.534C176.991 194.706 177.736 195.768 178.675 196.66H174.275C172.977 196.66 171.692 196.414 170.492 195.936C169.293 195.458 168.204 194.757 167.286 193.873C166.368 192.99 165.64 191.941 165.143 190.786C164.646 189.632 164.391 188.394 164.391 187.145V32.8748C164.391 31.6252 164.646 30.3878 165.143 29.2333C165.64 28.0788 166.368 27.0298 167.286 26.1462C168.204 25.2626 169.293 24.5617 170.493 24.0835C171.692 23.6053 172.977 23.3591 174.275 23.3591H180.677C179.168 24.2045 177.914 25.4166 177.043 26.8741C176.172 28.3317 175.714 29.9837 175.714 31.6653L175.714 189.836Z" fill="#CACACA"/>
<path d="M500.366 222.503H0.632322C0.464452 222.503 0.303627 222.438 0.185096 222.324C0.0665654 222.209 0 222.054 0 221.893C0 221.731 0.0665654 221.576 0.185096 221.462C0.303627 221.347 0.464452 221.283 0.632322 221.282H500.366C500.534 221.282 500.695 221.347 500.814 221.461C500.933 221.576 501 221.731 501 221.893C501 222.055 500.933 222.21 500.814 222.325C500.695 222.439 500.534 222.503 500.366 222.503Z" fill="#CACACA"/>
<path d="M174.648 68.4378C171.282 67.5303 167.904 66.6894 164.513 65.9152C152.917 63.2505 141.162 61.2779 129.313 60.0086C127.305 59.4995 125.169 59.7747 123.371 60.7744C121.572 61.774 120.257 63.4172 119.71 65.3461L113.793 86.3678C113.25 88.3055 113.528 90.3716 114.565 92.1125C115.603 93.8534 117.315 95.1268 119.327 95.6533L119.407 95.6687C127.236 96.5249 135.14 97.7144 143.001 99.2321C143.704 99.3654 144.402 99.5038 145.105 99.6474C147.624 100.15 150.136 100.687 152.641 101.257C153.738 101.503 154.83 101.76 155.927 102.021C158.878 102.729 161.83 103.483 164.784 104.282C168.071 105.175 171.358 106.127 174.648 107.138C175.005 107.241 175.362 107.349 175.713 107.461V68.7301C175.362 68.6275 175.005 68.5301 174.648 68.4378Z" fill="white"/>
<path d="M174.648 68.4378C171.282 67.5303 167.904 66.6894 164.513 65.9152C152.917 63.2505 141.162 61.2779 129.313 60.0086C127.305 59.4995 125.169 59.7747 123.371 60.7744C121.572 61.774 120.257 63.4172 119.71 65.3461L113.793 86.3678C113.25 88.3055 113.528 90.3716 114.565 92.1125C115.603 93.8534 117.315 95.1268 119.327 95.6533L119.407 95.6687C127.236 96.5249 135.14 97.7144 143.001 99.2321C143.704 99.3654 144.402 99.5038 145.105 99.6474C147.624 100.15 150.136 100.687 152.641 101.257C153.738 101.503 154.83 101.76 155.927 102.021C158.878 102.729 161.83 103.483 164.784 104.282C168.071 105.175 171.358 106.127 174.648 107.138C175.005 107.241 175.362 107.349 175.713 107.461V106.379C175.356 106.272 175 106.164 174.648 106.056C171.623 105.128 168.601 104.255 165.583 103.436C164.454 103.124 163.325 102.821 162.196 102.529C160.161 102.001 158.132 101.495 156.108 101.011C155.033 100.75 153.958 100.499 152.886 100.258C152.806 100.237 152.721 100.222 152.641 100.201C150.814 99.7858 148.984 99.3893 147.15 99.0116C146.447 98.868 145.744 98.7245 145.041 98.586C136.562 96.8941 128.019 95.5763 119.567 94.6534C117.838 94.1899 116.369 93.0878 115.48 91.5868C114.592 90.0859 114.355 88.3078 114.821 86.6395L120.738 65.6127C121.212 63.9397 122.355 62.5157 123.918 61.6535C125.481 60.7912 127.335 60.5611 129.074 61.0135L129.153 61.0238C140.851 62.2742 152.459 64.2126 163.911 66.8278C164.028 66.8586 164.145 66.8842 164.262 66.9099C167.735 67.7097 171.197 68.5745 174.648 69.5043C174.999 69.5966 175.356 69.694 175.713 69.7965V68.7301C175.362 68.6275 175.005 68.5301 174.648 68.4378Z" fill="#14CC47"/>
<path d="M175.714 69.2635V106.918C175.357 106.805 175.006 106.698 174.649 106.59C171.501 105.621 168.343 104.708 165.174 103.852C162.133 103.021 159.081 102.24 156.019 101.509C154.932 101.252 153.851 101.001 152.764 100.755C152.722 100.57 152.679 100.386 152.642 100.201C152.445 99.3195 152.291 98.4273 152.173 97.53C152.12 97.1865 152.083 96.843 152.045 96.4943C151.485 91.0013 152.266 85.4581 154.326 80.3073C156.387 75.1565 159.669 70.5406 163.912 66.8281C164.066 66.6845 164.226 66.5461 164.386 66.4127C167.826 67.2023 171.247 68.0569 174.649 68.9763C175.006 69.0635 175.363 69.161 175.714 69.2635Z" fill="#14CC47"/>
<path d="M140.344 84.6811L125.532 82.9993C125.011 82.9401 124.483 82.9802 123.978 83.1174C123.473 83.2547 123.001 83.4863 122.589 83.7991C122.177 84.1119 121.834 84.4998 121.577 84.9406C121.321 85.3813 121.157 85.8664 121.096 86.368C121.034 86.8696 121.076 87.378 121.219 87.8641C121.361 88.3502 121.602 88.8045 121.927 89.2011C122.252 89.5977 122.655 89.9288 123.112 90.1755C123.57 90.4222 124.074 90.5797 124.595 90.6389L139.406 92.3207C140.457 92.4377 141.514 92.1487 142.344 91.517C143.174 90.8853 143.709 89.9625 143.833 88.951C143.958 87.9396 143.66 86.922 143.006 86.1215C142.352 85.321 141.394 84.803 140.344 84.6811ZM142.783 88.8341C142.691 89.5762 142.296 90.2526 141.686 90.7149C141.076 91.1773 140.3 91.3878 139.529 91.3003L124.717 89.6186C123.948 89.5285 123.248 89.1486 122.769 88.5621C122.29 87.9756 122.072 87.2303 122.163 86.4896C122.254 85.7488 122.646 85.0729 123.254 84.61C123.861 84.147 124.635 83.9348 125.404 84.0196L140.216 85.7014C140.987 85.7912 141.69 86.1711 142.171 86.7581C142.652 87.3451 142.872 88.0914 142.783 88.8342L142.783 88.8341Z" fill="#14CC47"/>
<path d="M175.715 78.0824V95.9407C175.372 96.1384 175.017 96.3131 174.649 96.4637C172.738 97.2853 170.618 97.5512 168.552 97.2288C166.485 96.9063 164.562 96.0095 163.018 94.6486C162.869 94.5204 162.719 94.382 162.575 94.2384C162.432 94.1 162.293 93.9513 162.16 93.8026C160.552 92.0248 159.623 89.7719 159.526 87.4166C159.429 85.0613 160.17 82.7446 161.626 80.8498C163.083 78.955 165.168 77.5956 167.536 76.9963C169.904 76.3971 172.413 76.5939 174.649 77.5543C175.014 77.7118 175.37 77.8881 175.715 78.0824Z" fill="white"/>
<path d="M174.649 91.008C170.458 91.8489 166.295 92.7804 162.16 93.8024C160.616 94.1818 159.077 94.5749 157.543 94.9817C155.71 95.4687 153.878 95.9729 152.046 96.4942C149.708 97.1607 147.374 97.858 145.042 98.5861C144.366 98.8015 143.684 99.0168 143.003 99.2322C136.521 101.314 130.082 103.621 123.749 106.139C121.734 106.623 119.999 107.855 118.923 109.565C117.847 111.276 117.516 113.326 118.002 115.27L123.345 136.435C123.839 138.385 125.116 140.066 126.897 141.11C128.677 142.154 130.814 142.475 132.841 142.004L132.915 141.978C143.329 137.866 153.987 134.353 164.834 131.457C168.072 130.59 171.344 129.774 174.649 129.006C175.007 128.924 175.358 128.842 175.715 128.765V90.7979C175.358 90.8594 175.007 90.9311 174.649 91.008Z" fill="white"/>
<path d="M174.649 91.008C170.458 91.8489 166.295 92.7804 162.16 93.8024C160.616 94.1818 159.077 94.5749 157.543 94.9817C155.71 95.4687 153.878 95.9729 152.046 96.4942C149.708 97.1607 147.374 97.858 145.042 98.5861C144.366 98.8015 143.684 99.0168 143.003 99.2322C136.521 101.314 130.082 103.621 123.749 106.139C121.734 106.623 119.999 107.855 118.923 109.565C117.847 111.276 117.516 113.326 118.002 115.27L123.345 136.435C123.839 138.385 125.116 140.066 126.897 141.11C128.677 142.154 130.814 142.475 132.841 142.004L132.915 141.978C143.329 137.866 153.987 134.353 164.834 131.457C168.072 130.59 171.344 129.774 174.649 129.006C175.007 128.924 175.358 128.842 175.715 128.765V127.709C175.358 127.791 175.007 127.873 174.649 127.955C174.383 128.017 174.112 128.078 173.845 128.14C170.714 128.873 167.616 129.649 164.551 130.467C164.472 130.488 164.387 130.514 164.306 130.534C153.515 133.423 142.91 136.924 132.548 141.019C130.8 141.414 128.962 141.128 127.432 140.225C125.902 139.321 124.804 137.873 124.378 136.195L119.041 115.029C118.618 113.344 118.906 111.566 119.842 110.084C120.779 108.603 122.287 107.54 124.037 107.128L124.117 107.103C131.014 104.354 138.033 101.862 145.106 99.6475C145.788 99.4321 146.47 99.2219 147.151 99.0117C148.824 98.5041 150.498 98.0102 152.174 97.5299C153.942 97.0223 155.708 96.5335 157.473 96.0635C157.59 96.0328 157.708 96.002 157.825 95.9712C159.551 95.5149 161.281 95.074 163.018 94.6484C166.868 93.705 170.746 92.8385 174.649 92.0489C175.001 91.9771 175.358 91.9053 175.715 91.8387V90.7979C175.358 90.8594 175.007 90.9311 174.649 91.008Z" fill="#14CC47"/>
<path d="M175.713 91.3158V128.237C175.362 128.314 175.005 128.391 174.648 128.473C171.314 129.252 167.994 130.083 164.689 130.965C164.556 130.821 164.428 130.678 164.305 130.534C160.854 126.645 158.318 122.083 156.872 117.161C155.426 112.239 155.104 107.075 155.927 102.022C155.954 101.852 155.986 101.678 156.018 101.509C156.045 101.345 156.077 101.176 156.109 101.011C156.437 99.3324 156.893 97.6788 157.472 96.0636C157.541 95.8688 157.61 95.674 157.685 95.4791C159.309 95.0485 160.939 94.6349 162.574 94.2383C166.574 93.2436 170.599 92.3395 174.648 91.526C175 91.4491 175.357 91.3825 175.713 91.3158Z" fill="#14CC47"/>
<path d="M150.967 124.761C150.567 123.816 149.795 123.063 148.82 122.666C147.844 122.269 146.745 122.261 145.763 122.643L131.942 128.037C130.962 128.422 130.18 129.165 129.769 130.104C129.358 131.043 129.35 132.1 129.748 133.044C130.146 133.988 130.917 134.742 131.892 135.139C132.866 135.537 133.965 135.546 134.946 135.164L148.767 129.77C149.747 129.385 150.529 128.641 150.941 127.703C151.353 126.764 151.362 125.706 150.967 124.761ZM148.368 128.816L134.547 134.215C133.826 134.496 133.02 134.489 132.305 134.198C131.59 133.906 131.024 133.353 130.732 132.66C130.439 131.968 130.445 131.191 130.747 130.502C131.049 129.813 131.622 129.268 132.342 128.986L146.163 123.592C146.882 123.31 147.689 123.316 148.404 123.606C149.12 123.897 149.686 124.45 149.979 125.143C150.271 125.836 150.266 126.612 149.963 127.301C149.661 127.99 149.087 128.535 148.368 128.816Z" fill="#14CC47"/>
<path d="M175.717 100.745V120.849C175.366 120.935 175.01 121.003 174.651 121.054C172.513 121.342 170.334 121.005 168.398 120.086C166.461 119.166 164.857 117.707 163.793 115.898C162.729 114.09 162.255 112.015 162.433 109.943C162.61 107.871 163.431 105.899 164.788 104.283C164.911 104.134 165.038 103.99 165.177 103.852C165.304 103.708 165.443 103.57 165.587 103.437C166.765 102.315 168.195 101.471 169.768 100.969C171.34 100.468 173.011 100.322 174.651 100.545C175.01 100.591 175.366 100.658 175.717 100.745Z" fill="white"/>
<path d="M174.65 65.7667V116.942C175.007 116.829 175.364 116.721 175.716 116.619V66.2332C175.359 66.0743 175.007 65.9205 174.65 65.7667ZM174.65 65.7667V116.942C175.007 116.829 175.364 116.721 175.716 116.619V66.2332C175.359 66.0743 175.007 65.9205 174.65 65.7667ZM174.65 65.7667V116.942C175.007 116.829 175.364 116.721 175.716 116.619V66.2332C175.359 66.0743 175.007 65.9205 174.65 65.7667ZM174.65 69.5044V128.473C175.007 128.391 175.364 128.314 175.716 128.237V69.7967C175.359 69.6941 175.002 69.5967 174.65 69.5044V69.5044ZM174.65 69.5044V128.473C175.007 128.391 175.364 128.314 175.716 128.237V69.7967C175.359 69.6941 175.002 69.5967 174.65 69.5044V69.5044ZM174.65 69.5044V128.473C175.007 128.391 175.364 128.314 175.716 128.237V69.7967C175.359 69.6941 175.002 69.5967 174.65 69.5044V69.5044ZM174.65 69.5044V128.473C175.007 128.391 175.364 128.314 175.716 128.237V69.7967C175.359 69.6941 175.002 69.5967 174.65 69.5044V69.5044ZM174.65 69.5044V129.006C175.007 128.924 175.359 128.842 175.716 128.765V69.7967C175.359 69.6941 175.002 69.5967 174.65 69.5044V69.5044ZM406.996 21.0211H185.707C182.776 21.0258 179.967 22.1487 177.894 24.1439C175.822 26.139 174.655 28.8437 174.65 31.6653V189.836C174.655 192.657 175.822 195.361 177.895 197.355C179.967 199.35 182.777 200.472 185.707 200.475H406.996C409.926 200.472 412.735 199.35 414.807 197.355C416.879 195.361 418.044 192.657 418.048 189.836V31.6653C418.045 28.8439 416.88 26.1387 414.808 24.1431C412.737 22.1476 409.927 21.0248 406.996 21.0211V21.0211ZM416.982 189.836C416.98 192.385 415.927 194.829 414.055 196.631C412.182 198.433 409.644 199.447 406.996 199.45H185.707C183.059 199.447 180.52 198.434 178.647 196.631C176.774 194.829 175.72 192.385 175.716 189.836V31.6653C175.72 29.1154 176.774 26.6711 178.647 24.868C180.519 23.065 183.059 22.0504 185.707 22.0466H406.996C409.645 22.0495 412.184 23.064 414.056 24.8674C415.928 26.6708 416.981 29.1156 416.982 31.6653V189.836ZM174.65 69.5044V127.955C175.007 127.873 175.359 127.791 175.716 127.709V69.7967C175.359 69.6941 175.002 69.5967 174.65 69.5044V69.5044ZM174.65 69.5044V128.473C175.007 128.391 175.364 128.314 175.716 128.237V69.7967C175.359 69.6941 175.002 69.5967 174.65 69.5044V69.5044ZM174.65 69.5044V128.473C175.007 128.391 175.364 128.314 175.716 128.237V69.7967C175.359 69.6941 175.002 69.5967 174.65 69.5044V69.5044ZM174.65 69.5044V128.473C175.007 128.391 175.364 128.314 175.716 128.237V69.7967C175.359 69.6941 175.002 69.5967 174.65 69.5044V69.5044ZM174.65 65.7667V116.942C175.007 116.829 175.364 116.721 175.716 116.619V66.2332C175.359 66.0743 175.007 65.9205 174.65 65.7667ZM174.65 65.7667V116.942C175.007 116.829 175.364 116.721 175.716 116.619V66.2332C175.359 66.0743 175.007 65.9205 174.65 65.7667Z" fill="#2F2E41"/>
<path d="M127.207 119.913C126.998 119.444 126.685 119.025 126.29 118.686C125.895 118.346 125.427 118.094 124.92 117.947C124.413 117.8 123.878 117.762 123.354 117.836C122.83 117.91 122.329 118.093 121.886 118.373L111.676 110.821L111.193 117.245L120.963 123.432C121.501 124.117 122.282 124.588 123.156 124.756C124.031 124.923 124.939 124.776 125.709 124.342C126.479 123.909 127.056 123.218 127.332 122.402C127.608 121.585 127.564 120.7 127.207 119.913V119.913Z" fill="#FFB6B6"/>
<path d="M86.0646 74.333L82.7048 72.8044C82.7048 72.8044 77.2923 74.2701 79.9218 81.1603L95.8355 109.7L115.264 120.651L121.321 115.484L101.878 100.674L86.0646 74.333Z" fill="#3F3D56"/>
</svg>
