<svg width="213" height="147" viewBox="0 0 213 147" fill="none" xmlns="http://www.w3.org/2000/svg">
<g clip-path="url(#clip0_182_8273)">
<path d="M19.251 64.2016C15.3076 67.4214 21.7604 95.684 21.7604 95.684C21.7604 95.684 23.1943 138.793 26.2414 140.761C29.2886 142.729 36.0998 140.582 38.7884 140.224C41.4771 139.867 39.1469 113.214 35.2036 103.376C31.2602 93.5375 34.3074 79.2273 34.3074 79.2273L55.6373 83.3415C55.6373 83.3415 42.7318 94.253 43.2695 96.5784C43.8072 98.9038 57.6089 106.774 60.1184 107.132C62.6278 107.49 67.4673 92.8219 71.7691 82.8048C76.071 72.7877 42.3733 66.3482 42.3733 66.3482L37.713 57.5832C37.713 57.5832 23.1943 60.9819 19.251 64.2016Z" fill="#2F2E41"/>
<path d="M29.955 141.503C29.955 141.503 28.6543 146.046 29.955 146.046C31.2557 146.046 33.6403 147.344 37.3256 146.912C41.0109 146.479 39.927 141.936 37.3256 141.287C34.7242 140.638 35.3746 135.446 35.3746 135.446C34.5074 133.715 30.3886 135.878 30.3886 135.878L29.955 141.503Z" fill="#2F2E41"/>
<path d="M48.4219 105.376C48.4219 105.376 46.1905 109.543 47.4619 109.817C48.7333 110.091 50.79 111.861 54.4838 112.214C58.1777 112.567 58.0782 107.898 55.6725 106.716C53.2667 105.534 54.9997 100.595 54.9997 100.595C54.5178 98.7211 50.0344 99.969 50.0344 99.969L48.4219 105.376Z" fill="#2F2E41"/>
<path d="M21.6707 25.4748C22.0292 26.1903 20.416 35.1341 20.416 35.1341L21.85 37.6384C21.85 37.6384 30.0951 34.4186 28.8404 33.882C27.5857 33.3454 27.765 26.7269 27.765 26.7269C27.765 26.7269 21.3122 24.7593 21.6707 25.4748Z" fill="#FFB9B9"/>
<path d="M24.7733 28.2317C30.8429 28.2317 35.7633 23.3213 35.7633 17.2641C35.7633 11.2068 30.8429 6.29645 24.7733 6.29645C18.7036 6.29645 13.7832 11.2068 13.7832 17.2641C13.7832 23.3213 18.7036 28.2317 24.7733 28.2317Z" fill="#2F2E41"/>
<path d="M24.0164 11.5349C26.5279 11.5349 28.564 9.50302 28.564 6.99657C28.564 4.49013 26.5279 2.45825 24.0164 2.45825C21.5048 2.45825 19.4688 4.49013 19.4688 6.99657C19.4688 9.50302 21.5048 11.5349 24.0164 11.5349Z" fill="#2F2E41"/>
<path d="M26.0059 9.05213C26.1632 9.06843 26.3214 9.07662 26.4796 9.07666C27.0768 9.07666 27.6681 8.95928 28.2199 8.7312C28.7716 8.50313 29.2729 8.16884 29.6952 7.74741C30.1175 7.32599 30.4525 6.82569 30.681 6.27507C30.9096 5.72446 31.0272 5.13431 31.0272 4.53833C31.0272 3.94235 30.9096 3.3522 30.681 2.80159C30.4525 2.25097 30.1175 1.75067 29.6952 1.32925C29.2729 0.907823 28.7716 0.573532 28.2199 0.34546C27.6681 0.117387 27.0768 -1.77616e-08 26.4796 0C26.3214 4.06084e-05 26.1632 0.00823022 26.0059 0.0245369C27.1238 0.141432 28.1588 0.667389 28.9111 1.50093C29.6634 2.33447 30.0798 3.41653 30.0798 4.53833C30.0798 5.66013 29.6634 6.74219 28.9111 7.57573C28.1588 8.40927 27.1238 8.93523 26.0059 9.05213Z" fill="#2F2E41"/>
<path d="M25.0751 30.1256C29.2328 30.1256 32.6033 26.762 32.6033 22.6127C32.6033 18.4635 29.2328 15.0999 25.0751 15.0999C20.9174 15.0999 17.5469 18.4635 17.5469 22.6127C17.5469 26.762 20.9174 30.1256 25.0751 30.1256Z" fill="#FFB9B9"/>
<path d="M14.2325 34.1503C11.9023 34.687 7.95898 40.411 7.95898 40.411L14.2325 46.6717C14.2325 46.6717 18.7136 63.4862 19.2513 64.2017C22.7741 68.8892 38.6095 58.4776 38.6095 58.4776C38.6095 58.4776 37.9822 53.3796 38.3407 50.8753C38.6854 48.4668 36.9963 43.6308 36.9963 43.6308C36.9963 43.6308 42.9114 41.1265 41.6567 38.6223C40.402 36.118 32.6945 30.3939 29.4682 32.3616C26.2418 34.3292 19.789 32.3616 19.789 32.3616C19.789 32.3616 16.5627 33.6137 14.2325 34.1503Z" fill="#E5E5E5"/>
<path d="M60.0293 70.194C60.0293 70.194 70.2461 78.959 72.7556 77.1702C75.265 75.3814 63.0764 69.1207 63.0764 69.1207L60.0293 70.194Z" fill="#FFB9B9"/>
<path d="M14.1418 67.1531C15.5757 68.763 22.387 64.6488 21.5137 62.8218C20.6405 60.9947 15.2172 64.6488 15.2172 64.6488C15.2172 64.6488 12.7079 65.5432 14.1418 67.1531Z" fill="#FFB9B9"/>
<path d="M14.2318 42.9153L6.7036 56.8677C6.7036 56.8677 15.3072 64.0228 16.3827 64.2016C17.4581 64.3805 14.2318 69.0313 14.2318 69.0313C14.2318 69.0313 4.55267 62.234 0.788567 58.8353C-2.97553 55.4367 7.95829 40.411 7.95829 40.411L11.1847 38.4434L14.2318 42.9153Z" fill="#E5E5E5"/>
<path d="M36.0996 42.3787L44.8825 55.9733C44.8825 55.9733 58.3257 70.999 60.1182 71.7145C61.9106 72.43 64.0615 69.0313 64.0615 69.0313L47.9296 49.5337L41.8354 38.6222L39.5052 37.7278L36.0996 42.3787Z" fill="#E5E5E5"/>
<path d="M24.7747 18.2248C28.9606 18.2248 32.354 16.193 32.354 13.6865C32.354 11.1801 28.9606 9.14819 24.7747 9.14819C20.5887 9.14819 17.1953 11.1801 17.1953 13.6865C17.1953 16.193 20.5887 18.2248 24.7747 18.2248Z" fill="#2F2E41"/>
<path d="M46.0366 111.606C45.7882 111.606 45.55 111.705 45.3744 111.88C45.1987 112.056 45.0999 112.293 45.0996 112.541V144.433C45.0999 144.681 45.1987 144.918 45.3744 145.094C45.55 145.269 45.7882 145.367 46.0366 145.368H155.004C155.252 145.367 155.49 145.269 155.666 145.094C155.842 144.918 155.941 144.681 155.941 144.433V112.541C155.941 112.293 155.842 112.055 155.666 111.88C155.49 111.705 155.252 111.606 155.004 111.606L46.0366 111.606Z" fill="white"/>
<path d="M47.4473 143.025H153.592V113.949H47.4473V143.025Z" fill="#F3F6FA"/>
<path d="M140.195 136.993C139.991 136.992 139.789 137.032 139.6 137.11C139.411 137.188 139.24 137.302 139.096 137.446C138.952 137.59 138.837 137.76 138.759 137.948C138.681 138.136 138.641 138.338 138.641 138.542C138.641 138.745 138.681 138.947 138.759 139.135C138.837 139.323 138.952 139.494 139.096 139.637C139.24 139.781 139.411 139.895 139.6 139.973C139.789 140.051 139.991 140.091 140.195 140.09H146.403C146.814 140.09 147.209 139.927 147.5 139.637C147.791 139.346 147.955 138.952 147.955 138.542C147.955 138.131 147.791 137.737 147.5 137.446C147.209 137.156 146.814 136.993 146.403 136.993H140.195Z" fill="#14CC47"/>
<path d="M147.955 133.988H76.2891V134.396H147.955V133.988Z" fill="white"/>
<path d="M61.3094 137.508C66.3019 137.508 70.3492 133.469 70.3492 128.487C70.3492 123.504 66.3019 119.465 61.3094 119.465C56.3168 119.465 52.2695 123.504 52.2695 128.487C52.2695 133.469 56.3168 137.508 61.3094 137.508Z" fill="#14CC47"/>
<path d="M76.4022 131.713L76.1758 131.374L83.6228 126.419L88.7295 128.865L96.075 124.182L110.687 130.402L122.323 124.698L133.622 129.269L147.819 116.72L148.09 117.025L133.703 129.742L122.339 125.144L110.699 130.85L96.113 124.641L88.7579 129.331L83.6558 126.887L76.4022 131.713Z" fill="#3F3D56"/>
<path d="M77.616 137.206C77.4415 137.206 77.2688 137.24 77.1076 137.306C76.9463 137.373 76.7998 137.47 76.6764 137.593C76.553 137.716 76.4551 137.862 76.3883 138.023C76.3215 138.184 76.2871 138.356 76.2871 138.53C76.2871 138.704 76.3215 138.877 76.3883 139.037C76.4551 139.198 76.553 139.344 76.6764 139.467C76.7998 139.59 76.9463 139.688 77.1076 139.754C77.2688 139.821 77.4415 139.855 77.616 139.855H91.4999C91.8516 139.854 92.1887 139.715 92.4373 139.466C92.6858 139.218 92.8254 138.881 92.8254 138.53C92.8254 138.179 92.6858 137.843 92.4373 137.594C92.1887 137.346 91.8516 137.206 91.4999 137.206H77.616Z" fill="white"/>
<path d="M64.7618 124.451H66.1743L63.2352 127.354C62.7217 127.859 62.0298 128.142 61.3088 128.142C60.5879 128.142 59.8959 127.859 59.3825 127.354L56.4437 124.451H57.8563L60.0889 126.656C60.4141 126.976 60.8524 127.155 61.309 127.155C61.7657 127.155 62.2039 126.976 62.5291 126.656L64.7618 124.451ZM57.8383 132.523H56.4258L59.3829 129.602C59.8963 129.097 60.5883 128.814 61.3092 128.814C62.0302 128.814 62.7221 129.097 63.2356 129.602L66.1927 132.523H64.7802L62.5291 130.3C62.2039 129.98 61.7657 129.8 61.309 129.8C60.8524 129.8 60.4142 129.98 60.089 130.3L57.8383 132.523Z" fill="white"/>
<path d="M60.226 9.45429C59.9776 9.45458 59.7395 9.55319 59.5638 9.72848C59.3882 9.90378 59.2894 10.1414 59.2891 10.3893V42.2809C59.2894 42.5288 59.3882 42.7665 59.5638 42.9418C59.7395 43.1171 59.9776 43.2157 60.226 43.216H169.193C169.442 43.2157 169.68 43.1171 169.856 42.9418C170.031 42.7665 170.13 42.5288 170.13 42.2809V10.3893C170.13 10.1414 170.031 9.90377 169.856 9.72848C169.68 9.55319 169.442 9.45458 169.193 9.45428L60.226 9.45429Z" fill="white"/>
<path d="M61.6367 40.8728H167.782V11.7975H61.6367V40.8728Z" fill="#F3F6FA"/>
<path d="M154.384 34.841C153.972 34.841 153.578 35.0042 153.287 35.2947C152.996 35.5851 152.832 35.9791 152.832 36.3899C152.832 36.8007 152.996 37.1946 153.287 37.4851C153.578 37.7756 153.972 37.9388 154.384 37.9388H160.592C161.004 37.9388 161.399 37.7756 161.69 37.4851C161.981 37.1946 162.144 36.8007 162.144 36.3899C162.144 35.9791 161.981 35.5851 161.69 35.2947C161.399 35.0042 161.004 34.841 160.592 34.841H154.384Z" fill="#14CC47"/>
<path d="M162.144 31.8366H90.4785V32.2441H162.144V31.8366Z" fill="white"/>
<path d="M75.4969 35.3565C80.4894 35.3565 84.5367 31.3175 84.5367 26.3351C84.5367 21.3527 80.4894 17.3137 75.4969 17.3137C70.5043 17.3137 66.457 21.3527 66.457 26.3351C66.457 31.3175 70.5043 35.3565 75.4969 35.3565Z" fill="#14CC47"/>
<path d="M90.5916 29.5609L90.3652 29.2218L97.8123 24.2673L102.919 26.7136L110.264 22.0303L110.364 22.0724L124.876 28.2506L136.512 22.5463L147.811 27.1177L162.009 14.5682L162.28 14.8733L147.893 27.5902L136.528 22.9924L124.888 28.6987L110.303 22.4896L102.947 27.1792L97.8453 24.735L90.5916 29.5609Z" fill="#3F3D56"/>
<path d="M91.8059 35.054C91.4542 35.0545 91.1171 35.1942 90.8686 35.4425C90.6201 35.6909 90.4805 36.0275 90.4805 36.3785C90.4805 36.7294 90.6201 37.066 90.8686 37.3144C91.1171 37.5627 91.4542 37.7024 91.8059 37.7029H105.69C106.042 37.7029 106.379 37.5633 106.628 37.315C106.877 37.0666 107.017 36.7297 107.017 36.3785C107.017 36.0272 106.877 35.6903 106.628 35.4419C106.379 35.1936 106.042 35.054 105.69 35.054H91.8059Z" fill="white"/>
<path d="M79.1358 25.2821C79.3047 24.1532 78.4434 23.5463 77.2657 23.1415L77.6477 21.6122L76.7147 21.3802L76.3428 22.8692C76.0978 22.8082 75.8459 22.7507 75.5957 22.6937L75.9703 21.1949L75.038 20.9629L74.6557 22.4916C74.4527 22.4455 74.2535 22.3999 74.0601 22.3519L74.0612 22.3471L72.7748 22.0266L72.5266 23.0208C72.5266 23.0208 73.2187 23.1791 73.2041 23.1889C73.3332 23.2043 73.451 23.2697 73.5323 23.371C73.6136 23.4722 73.6518 23.6012 73.6387 23.7303L73.2036 25.4725C73.2365 25.4807 73.2689 25.4911 73.3005 25.5035L73.2022 25.4791L72.592 27.9196C72.5786 27.9622 72.5568 28.0018 72.5281 28.036C72.4993 28.0702 72.464 28.0984 72.4243 28.1189C72.3846 28.1394 72.3412 28.152 72.2966 28.1557C72.252 28.1595 72.2071 28.1544 72.1645 28.1408C72.1738 28.1543 71.4865 27.9719 71.4865 27.9719L71.0234 29.0377L72.2376 29.3397C72.4634 29.3962 72.6847 29.4553 72.9023 29.511L72.5163 31.058L73.448 31.29L73.8305 29.7597C74.0848 29.8286 74.3319 29.8922 74.5736 29.9521L74.1927 31.4753L75.1254 31.7073L75.5115 30.1634C77.102 30.4638 78.2984 30.3427 78.8013 28.9073C79.207 27.7513 78.7814 27.0845 77.9445 26.6494C78.5539 26.5086 79.013 26.1085 79.1355 25.2821L79.1358 25.2821ZM77.0043 28.2646C76.7157 29.4206 74.7657 28.7959 74.1331 28.639L74.6454 26.5898C75.2777 26.7472 77.305 27.059 77.0045 28.2646H77.0043ZM77.2925 25.2654C77.0295 26.3169 75.4062 25.7827 74.8794 25.6517L75.3438 23.7932C75.8706 23.9241 77.5667 24.1686 77.2925 25.2654Z" fill="white"/>
<path d="M103.095 60.5302C102.847 60.5304 102.609 60.6291 102.433 60.8043C102.257 60.9796 102.158 61.2173 102.158 61.4652V93.3568C102.158 93.6047 102.257 93.8424 102.433 94.0177C102.609 94.1929 102.847 94.2915 103.095 94.2918H212.062C212.311 94.2915 212.549 94.1929 212.725 94.0177C212.9 93.8424 212.999 93.6047 212.999 93.3568V61.4652C212.999 61.2173 212.9 60.9796 212.725 60.8043C212.549 60.6291 212.311 60.5304 212.062 60.5302L103.095 60.5302Z" fill="white"/>
<path d="M104.506 91.9487H210.651V62.8734H104.506V91.9487Z" fill="#F3F6FA"/>
<path d="M197.253 85.9169C196.842 85.9169 196.447 86.0801 196.156 86.3705C195.865 86.661 195.701 87.055 195.701 87.4658C195.701 87.8765 195.865 88.2705 196.156 88.561C196.447 88.8514 196.842 89.0146 197.253 89.0146H203.461C203.873 89.0146 204.268 88.8514 204.559 88.561C204.85 88.2705 205.013 87.8765 205.013 87.4658C205.013 87.055 204.85 86.661 204.559 86.3705C204.268 86.0801 203.873 85.9169 203.461 85.9169H197.253Z" fill="#14CC47"/>
<path d="M205.013 82.9125H133.348V83.32H205.013V82.9125Z" fill="white"/>
<path d="M118.368 86.4324C123.361 86.4324 127.408 82.3934 127.408 77.411C127.408 72.4287 123.361 68.3896 118.368 68.3896C113.375 68.3896 109.328 72.4287 109.328 77.411C109.328 82.3934 113.375 86.4324 118.368 86.4324Z" fill="#14CC47"/>
<path d="M133.461 80.6369L133.234 80.2978L140.681 75.3433L145.788 77.7896L153.134 73.1063L153.233 73.1484L167.745 79.3266L179.382 73.6223L190.681 78.1935L204.878 65.6442L205.149 65.9495L190.762 78.6662L179.397 74.0684L167.757 79.7747L153.172 73.5656L145.817 78.2552L140.715 75.8113L133.461 80.6369Z" fill="#3F3D56"/>
<path d="M134.675 86.1299C134.323 86.1299 133.985 86.2695 133.736 86.5179C133.487 86.7662 133.348 87.1031 133.348 87.4544C133.348 87.8056 133.487 88.1425 133.736 88.3909C133.985 88.6393 134.323 88.7788 134.675 88.7788H148.559C148.911 88.7788 149.248 88.6393 149.497 88.3909C149.746 88.1425 149.886 87.8056 149.886 87.4544C149.886 87.1031 149.746 86.7662 149.497 86.5179C149.248 86.2695 148.911 86.1299 148.559 86.1299H134.675Z" fill="white"/>
<path d="M118.366 83.3567L122.026 78.2135L118.366 80.3698L114.709 78.2135L118.366 83.3567H118.366Z" fill="white"/>
<path d="M118.366 79.6787H118.366L122.024 77.5214L118.366 71.4653H118.366L114.709 77.5214L118.366 79.6787Z" fill="white"/>
</g>
<defs>
<clipPath id="clip0_182_8273">
<rect width="213" height="147" fill="white"/>
</clipPath>
</defs>
</svg>
