<svg width="476" height="292" viewBox="0 0 476 292" fill="none" xmlns="http://www.w3.org/2000/svg">
<path d="M287.218 258.345L270.049 262.95L287.343 252.316C286.971 235.362 281.053 217.782 281.053 217.782C281.053 217.782 244.094 228.489 234.393 247.03C224.693 265.572 232.329 277.812 245.926 284.925C259.522 292.039 273.932 291.332 283.632 272.79C285.791 268.664 286.859 263.648 287.218 258.345Z" fill="#F2F2F2"/>
<path d="M266.764 261.969L266.286 262.883C260.674 273.478 254.546 280.829 247.977 284.826C247.882 284.886 247.785 284.939 247.691 284.999L247.422 284.553L247.17 284.122C254.367 279.86 260.408 271.673 265.305 262.433C265.466 262.137 265.629 261.836 265.783 261.531C267.822 257.601 269.658 253.508 271.29 249.452C271.419 249.139 271.546 248.819 271.673 248.499C273.799 243.135 275.572 237.873 276.994 233.24C277.096 232.913 277.193 232.584 277.288 232.259C279.661 224.407 280.978 218.509 281.26 217.198C281.297 217.039 281.315 216.951 281.32 216.93L281.813 217.033L281.82 217.031L282.319 217.136C282.314 217.156 282.256 217.454 282.131 218C281.678 220.045 280.391 225.567 278.27 232.629C278.173 232.946 278.076 233.276 277.974 233.603C276.824 237.364 275.451 241.521 273.846 245.799C273.445 246.874 273.038 247.928 272.623 248.962C272.501 249.284 272.374 249.604 272.245 249.917C270.481 254.301 268.654 258.319 266.764 261.969Z" fill="white"/>
<path d="M278.271 232.629C277.947 232.511 277.618 232.39 277.289 232.259C276.395 231.902 275.521 231.501 274.669 231.055C271.034 229.16 267.871 226.473 265.412 223.193C265.097 223.333 264.781 223.474 264.459 223.616C267.026 227.103 270.356 229.957 274.195 231.96C275.105 232.436 276.04 232.863 276.995 233.24C277.319 233.369 277.648 233.49 277.975 233.603C280.665 234.553 283.483 235.089 286.334 235.193C286.27 234.842 286.208 234.499 286.148 234.162C283.461 234.041 280.807 233.525 278.271 232.629Z" fill="white"/>
<path d="M272.625 248.962C272.303 248.817 271.986 248.663 271.674 248.499C271.577 248.454 271.477 248.402 271.382 248.352C267.446 246.293 264.067 243.313 261.532 239.666C258.997 236.019 257.381 231.813 256.823 227.406C256.502 227.579 256.182 227.751 255.863 227.93C256.497 232.424 258.192 236.703 260.808 240.412C263.425 244.121 266.887 247.153 270.909 249.257C271.035 249.323 271.162 249.39 271.291 249.452C271.61 249.613 271.927 249.767 272.246 249.917C277.206 252.197 282.718 252.999 288.123 252.23C288.118 251.887 288.112 251.544 288.103 251.199C282.836 251.975 277.456 251.198 272.625 248.962Z" fill="white"/>
<path d="M266.764 261.969C266.433 261.83 266.107 261.683 265.783 261.531C265.437 261.367 265.093 261.198 264.753 261.021C259.468 258.248 255.223 253.838 252.654 248.45C250.085 243.063 249.33 236.989 250.502 231.136C250.107 231.396 249.714 231.652 249.328 231.917C248.35 237.855 249.268 243.951 251.952 249.338C254.636 254.725 258.95 259.13 264.28 261.926C264.619 262.103 264.961 262.276 265.305 262.433C265.631 262.592 265.957 262.74 266.286 262.883C272.945 265.729 280.436 265.938 287.244 263.469C287.324 263.084 287.388 262.697 287.455 262.305C280.777 264.888 273.355 264.767 266.764 261.969Z" fill="white"/>
<path d="M61.7434 259.953L78.9132 264.558L61.6191 253.924C61.9911 236.97 67.9087 219.39 67.9087 219.39C67.9087 219.39 104.868 230.097 114.568 248.638C124.268 267.18 116.633 279.42 103.036 286.534C89.4393 293.647 75.03 292.94 65.3298 274.398C63.1707 270.272 62.1025 265.256 61.7434 259.953Z" fill="#F2F2F2"/>
<path d="M82.1952 263.577L82.6734 264.491C88.2854 275.086 94.4134 282.437 100.982 286.434C101.077 286.494 101.174 286.547 101.269 286.607L101.537 286.161L101.789 285.73C94.592 281.468 88.5514 273.281 83.6541 264.041C83.4933 263.745 83.3302 263.444 83.1761 263.139C81.1375 259.209 79.3014 255.116 77.6693 251.06C77.5402 250.747 77.4133 250.427 77.2864 250.107C75.1598 244.743 73.3867 239.481 71.9656 234.848C71.8636 234.521 71.7662 234.192 71.6712 233.867C69.2979 226.015 67.9814 220.117 67.6993 218.806C67.662 218.647 67.6445 218.559 67.6395 218.538L67.1458 218.641L67.1389 218.639L66.6406 218.744C66.6456 218.764 66.7036 219.062 66.8278 219.608C67.281 221.653 68.5678 227.175 70.689 234.237C70.7862 234.555 70.8837 234.884 70.9856 235.211C72.135 238.972 73.5086 243.129 75.1128 247.407C75.5139 248.482 75.9216 249.536 76.3357 250.57C76.4581 250.892 76.585 251.212 76.7141 251.525C78.4778 255.91 80.3049 259.927 82.1952 263.577Z" fill="white"/>
<path d="M62.8116 235.77C62.7516 236.107 62.6894 236.45 62.625 236.801C65.476 236.697 68.2947 236.161 70.9846 235.211C71.3114 235.098 71.6404 234.977 71.9646 234.848C72.9197 234.471 73.8541 234.044 74.764 233.568C78.6027 231.565 81.9329 228.711 84.5002 225.224C84.1778 225.082 83.8623 224.941 83.5469 224.801C81.0884 228.081 77.9253 230.768 74.2906 232.663C73.4383 233.109 72.5637 233.511 71.6702 233.867C71.3415 233.999 71.0125 234.119 70.6881 234.237C68.1524 235.133 65.4983 235.649 62.8116 235.77Z" fill="white"/>
<path d="M60.8578 252.807C60.8482 253.152 60.843 253.495 60.8379 253.838C66.2423 254.607 71.7542 253.805 76.7143 251.525C77.0336 251.375 77.3505 251.221 77.6696 251.06C77.7987 250.998 77.9253 250.932 78.052 250.865C82.0736 248.761 85.536 245.729 88.1525 242.02C90.7689 238.311 92.464 234.032 93.0974 229.538C92.7789 229.359 92.4583 229.187 92.1377 229.014C91.5794 233.421 89.9638 237.627 87.4288 241.274C84.8937 244.921 81.5143 247.901 77.5786 249.96C77.4836 250.01 77.3841 250.062 77.2867 250.107C76.9745 250.271 76.6576 250.425 76.3359 250.57C71.5041 252.806 66.1249 253.583 60.8578 252.807Z" fill="white"/>
<path d="M61.5039 263.914C61.5705 264.305 61.6347 264.692 61.7148 265.077C68.5223 267.547 76.0139 267.337 82.6727 264.491C83.0013 264.348 83.3274 264.2 83.6534 264.041C83.9977 263.884 84.3394 263.711 84.6787 263.534C90.0087 260.738 94.3222 256.334 97.0064 250.947C99.6905 245.559 100.609 239.464 99.6308 233.525C99.2446 233.26 98.8516 233.005 98.4563 232.745C99.6284 238.597 98.8735 244.671 96.3045 250.059C93.7354 255.446 89.4905 259.856 84.2053 262.629C83.866 262.806 83.5219 262.975 83.1755 263.139C82.8517 263.291 82.5255 263.438 82.1946 263.577C75.6039 266.375 68.1822 266.496 61.5039 263.914Z" fill="white"/>
<path d="M142.242 272.936L152.464 275.678L142.168 269.346C142.389 259.253 145.912 248.788 145.912 248.788C145.912 248.788 167.915 255.162 173.69 266.2C179.465 277.238 174.919 284.525 166.824 288.76C158.73 292.995 150.152 292.574 144.377 281.536C143.092 279.079 142.456 276.093 142.242 272.936Z" fill="#F2F2F2"/>
<path d="M154.416 275.093L154.701 275.637C158.042 281.944 161.69 286.321 165.601 288.701C165.657 288.736 165.715 288.768 165.771 288.804L165.931 288.538L166.081 288.281C161.796 285.744 158.2 280.87 155.285 275.369C155.189 275.193 155.092 275.014 155 274.832C153.787 272.493 152.694 270.056 151.722 267.641C151.645 267.455 151.57 267.265 151.494 267.074C150.228 263.881 149.172 260.748 148.326 257.99C148.266 257.795 148.208 257.599 148.151 257.406C146.738 252.731 145.954 249.22 145.786 248.44C145.764 248.345 145.754 248.292 145.751 248.28L145.457 248.341L145.453 248.34L145.156 248.403C145.159 248.415 145.194 248.592 145.268 248.917C145.537 250.135 146.304 253.422 147.566 257.626C147.624 257.815 147.682 258.011 147.743 258.206C148.427 260.445 149.245 262.92 150.2 265.466C150.439 266.107 150.681 266.734 150.928 267.35C151.001 267.542 151.076 267.732 151.153 267.918C152.203 270.528 153.291 272.92 154.416 275.093Z" fill="white"/>
<path d="M142.877 258.539C142.841 258.739 142.804 258.944 142.766 259.153C144.463 259.091 146.141 258.772 147.742 258.206C147.937 258.139 148.133 258.067 148.326 257.99C148.894 257.766 149.451 257.511 149.992 257.228C152.278 256.036 154.26 254.337 155.788 252.261C155.597 252.176 155.409 252.092 155.221 252.009C153.757 253.962 151.874 255.561 149.71 256.689C149.203 256.955 148.682 257.194 148.15 257.406C147.955 257.484 147.759 257.556 147.566 257.626C146.056 258.16 144.476 258.467 142.877 258.539Z" fill="white"/>
<path d="M141.713 268.682C141.707 268.887 141.704 269.091 141.701 269.295C144.919 269.754 148.2 269.276 151.153 267.918C151.343 267.829 151.532 267.737 151.722 267.641C151.798 267.605 151.874 267.565 151.949 267.526C154.343 266.273 156.405 264.468 157.962 262.26C159.52 260.052 160.529 257.505 160.906 254.829C160.716 254.722 160.526 254.62 160.335 254.517C160.002 257.141 159.041 259.645 157.531 261.816C156.022 263.987 154.01 265.761 151.667 266.987C151.611 267.017 151.552 267.048 151.494 267.075C151.308 267.172 151.119 267.264 150.928 267.35C148.051 268.681 144.849 269.144 141.713 268.682Z" fill="white"/>
<path d="M142.1 275.294C142.139 275.527 142.177 275.757 142.225 275.986C146.278 277.456 150.738 277.332 154.702 275.637C154.898 275.552 155.092 275.464 155.286 275.37C155.491 275.276 155.694 275.173 155.896 275.067C159.069 273.403 161.637 270.781 163.235 267.574C164.833 264.367 165.38 260.738 164.798 257.202C164.568 257.045 164.334 256.893 164.098 256.738C164.796 260.222 164.347 263.838 162.817 267.045C161.288 270.252 158.761 272.878 155.614 274.529C155.412 274.634 155.207 274.735 155.001 274.832C154.808 274.923 154.614 275.011 154.417 275.093C150.494 276.759 146.075 276.831 142.1 275.294Z" fill="white"/>
<path d="M346.405 180.139L346.361 180.135C338.231 178.792 329.2 178.793 318.751 180.136H318.747C318.486 180.14 318.228 180.091 317.986 179.994C317.744 179.896 317.524 179.752 317.338 179.569C317.152 179.386 317.004 179.169 316.903 178.928C316.802 178.688 316.749 178.43 316.748 178.17V168.707C316.749 168.185 316.956 167.684 317.325 167.315C317.695 166.946 318.195 166.738 318.717 166.738C327.919 165.538 337.237 165.539 346.438 166.74H346.442C346.958 166.747 347.45 166.958 347.812 167.326C348.174 167.695 348.376 168.191 348.374 168.707V178.17C348.374 178.692 348.166 179.192 347.797 179.561C347.428 179.93 346.927 180.138 346.405 180.139Z" fill="white"/>
<path d="M346.405 180.139L346.361 180.135C338.231 178.792 329.2 178.793 318.751 180.136H318.747C318.486 180.14 318.228 180.091 317.986 179.994C317.744 179.896 317.524 179.752 317.338 179.569C317.152 179.386 317.004 179.169 316.903 178.928C316.802 178.688 316.749 178.43 316.748 178.17V168.707C316.749 168.185 316.956 167.684 317.325 167.315C317.695 166.946 318.195 166.738 318.717 166.738C327.919 165.538 337.237 165.539 346.438 166.74H346.442C346.958 166.747 347.45 166.958 347.812 167.326C348.174 167.695 348.376 168.191 348.374 168.707V178.17C348.374 178.692 348.166 179.192 347.797 179.561C347.428 179.93 346.927 180.138 346.405 180.139ZM332.21 166.376C327.709 166.368 323.213 166.667 318.754 167.271C318.563 167.268 318.373 167.303 318.196 167.374C318.018 167.444 317.856 167.549 317.72 167.683C317.583 167.816 317.474 167.975 317.4 168.151C317.325 168.327 317.286 168.516 317.284 168.707V178.17C317.285 178.549 317.436 178.914 317.704 179.182C317.973 179.451 318.337 179.602 318.717 179.603C329.175 178.256 338.25 178.255 346.426 179.602C346.802 179.596 347.161 179.443 347.425 179.175C347.689 178.907 347.838 178.546 347.838 178.17V168.707C347.838 168.327 347.687 167.963 347.418 167.694C347.149 167.425 346.785 167.274 346.405 167.274C341.696 166.683 336.955 166.383 332.21 166.376Z" fill="#14CC47"/>
<path d="M332.561 176.739C334.633 176.739 336.313 175.059 336.313 172.986C336.313 170.914 334.633 169.234 332.561 169.234C330.489 169.234 328.809 170.914 328.809 172.986C328.809 175.059 330.489 176.739 332.561 176.739Z" fill="#14CC47"/>
<path d="M322.913 171.026H319.697C319.483 171.026 319.279 170.941 319.128 170.79C318.978 170.64 318.893 170.435 318.893 170.222V169.15C318.893 168.937 318.978 168.732 319.128 168.582C319.279 168.431 319.483 168.346 319.697 168.346H322.913C323.126 168.346 323.33 168.431 323.481 168.582C323.632 168.732 323.717 168.937 323.717 169.15V170.222C323.717 170.435 323.632 170.64 323.481 170.79C323.33 170.941 323.126 171.026 322.913 171.026Z" fill="#14CC47"/>
<path d="M345.427 178.531H342.21C341.997 178.53 341.793 178.446 341.642 178.295C341.491 178.144 341.406 177.94 341.406 177.726V176.654C341.406 176.441 341.491 176.237 341.642 176.086C341.793 175.935 341.997 175.851 342.21 175.85H345.427C345.64 175.851 345.844 175.935 345.995 176.086C346.146 176.237 346.23 176.441 346.231 176.654V177.726C346.23 177.94 346.146 178.144 345.995 178.295C345.844 178.446 345.64 178.53 345.427 178.531Z" fill="#14CC47"/>
<path d="M341.83 176.225L341.791 176.204C334.823 171.806 326.503 168.294 316.354 165.468L316.35 165.467C316.109 165.368 315.889 165.223 315.704 165.039C315.519 164.856 315.373 164.637 315.273 164.396C315.172 164.156 315.121 163.897 315.121 163.637C315.121 163.376 315.173 163.118 315.273 162.877L318.953 154.159C319.157 153.679 319.543 153.298 320.026 153.102C320.51 152.905 321.052 152.909 321.533 153.111C330.477 155.584 339.061 159.209 347.071 163.893L347.075 163.895C347.547 164.103 347.919 164.488 348.109 164.968C348.299 165.448 348.292 165.983 348.09 166.458L344.41 175.176C344.206 175.657 343.82 176.037 343.337 176.234C342.853 176.43 342.311 176.427 341.83 176.225Z" fill="white"/>
<path d="M341.83 176.225L341.791 176.204C334.823 171.806 326.503 168.294 316.354 165.468L316.35 165.467C316.109 165.368 315.889 165.223 315.704 165.039C315.519 164.856 315.373 164.637 315.273 164.396C315.172 164.156 315.121 163.897 315.121 163.637C315.121 163.376 315.173 163.118 315.273 162.877L318.953 154.159C319.157 153.679 319.543 153.298 320.026 153.102C320.51 152.905 321.052 152.909 321.533 153.111C330.477 155.584 339.061 159.209 347.071 163.893L347.075 163.895C347.547 164.103 347.919 164.488 348.109 164.968C348.299 165.448 348.292 165.983 348.09 166.458L344.41 175.176C344.206 175.657 343.82 176.037 343.337 176.234C342.853 176.43 342.311 176.427 341.83 176.225ZM334.104 158.025C329.961 156.267 325.703 154.794 321.359 153.617C321.184 153.54 320.996 153.498 320.805 153.494C320.614 153.49 320.424 153.524 320.247 153.594C320.069 153.664 319.907 153.768 319.77 153.901C319.632 154.034 319.523 154.192 319.447 154.368L315.767 163.086C315.62 163.436 315.617 163.83 315.76 164.182C315.903 164.534 316.18 164.815 316.53 164.963C326.688 167.789 335.049 171.318 342.058 175.739C342.407 175.88 342.797 175.878 343.145 175.734C343.492 175.589 343.769 175.314 343.916 174.968L347.596 166.25C347.743 165.9 347.746 165.505 347.603 165.153C347.46 164.801 347.183 164.521 346.833 164.372C342.725 161.997 338.474 159.877 334.104 158.025V158.025Z" fill="#14CC47"/>
<path d="M331.858 168.004C333.93 168.004 335.61 166.324 335.61 164.252C335.61 162.179 333.93 160.5 331.858 160.5C329.785 160.5 328.105 162.179 328.105 164.252C328.105 166.324 329.785 168.004 331.858 168.004Z" fill="#14CC47"/>
<path d="M323.731 158.693L320.768 157.443C320.572 157.36 320.417 157.202 320.337 157.004C320.256 156.807 320.258 156.586 320.34 156.389L320.757 155.402C320.84 155.205 320.998 155.05 321.195 154.97C321.393 154.889 321.614 154.891 321.811 154.973L324.774 156.224C324.97 156.307 325.125 156.465 325.206 156.662C325.286 156.86 325.285 157.081 325.202 157.278L324.785 158.265C324.702 158.462 324.544 158.617 324.347 158.697C324.149 158.777 323.928 158.776 323.731 158.693Z" fill="#14CC47"/>
<path d="M341.554 174.362L338.591 173.112C338.394 173.029 338.239 172.871 338.159 172.673C338.079 172.476 338.08 172.255 338.163 172.058L338.58 171.071C338.663 170.874 338.82 170.719 339.018 170.639C339.215 170.558 339.437 170.56 339.633 170.642L342.596 171.893C342.792 171.976 342.948 172.134 343.028 172.331C343.108 172.529 343.107 172.75 343.024 172.947L342.607 173.934C342.524 174.131 342.366 174.286 342.169 174.366C341.971 174.446 341.75 174.445 341.554 174.362Z" fill="#14CC47"/>
<path d="M349.215 171.044C349.89 170.638 350.468 170.089 350.908 169.435C351.348 168.781 351.639 168.039 351.761 167.26C351.883 166.482 351.832 165.686 351.613 164.929C351.394 164.172 351.012 163.472 350.494 162.879L359.986 146.241L350.053 146.883L342.561 162.584C341.622 163.521 341.06 164.77 340.98 166.095C340.901 167.419 341.31 168.726 342.13 169.769C342.95 170.812 344.124 171.518 345.43 171.753C346.736 171.988 348.083 171.736 349.215 171.044V171.044Z" fill="#FFB6B6"/>
<path d="M422.286 284.466H415.714L412.588 259.118L422.287 259.118L422.286 284.466Z" fill="#FFB6B6"/>
<path d="M423.963 290.836L402.773 290.835V290.567C402.774 288.38 403.643 286.282 405.189 284.736C406.736 283.189 408.834 282.32 411.021 282.32H411.022L423.964 282.32L423.963 290.836Z" fill="#2F2E41"/>
<path d="M377.259 284.466H370.687L367.561 259.118L377.26 259.118L377.259 284.466Z" fill="#FFB6B6"/>
<path d="M378.938 290.836L357.748 290.835V290.567C357.748 288.38 358.617 286.282 360.164 284.736C361.711 283.189 363.808 282.32 365.996 282.32H365.996L378.938 282.32L378.938 290.836Z" fill="#2F2E41"/>
<path d="M360.361 146.956C360.361 146.956 358.554 172.697 362.114 185.661C365.674 198.625 366.309 277.023 366.309 277.023H378.243L388.585 170.306L412.429 277.4L423.796 276.618L417.562 150.423L360.361 146.956Z" fill="#2F2E41"/>
<path d="M412.63 60.1835L403.508 53.5265L388.222 56.855L384.084 66.6871L376.954 70.2223C374.609 71.3847 372.582 73.0989 371.046 75.2177C369.511 77.3365 368.512 79.7964 368.137 82.3862L357.951 152.727L417.561 150.423L424.778 67.5826C424.853 66.7173 424.754 65.8456 424.487 65.0192C424.22 64.1927 423.789 63.4284 423.221 62.7713C422.653 62.1142 421.959 61.5778 421.179 61.1937C420.4 60.8097 419.552 60.5859 418.685 60.5355L412.63 60.1835Z" fill="#E4E4E4"/>
<path d="M373.181 75.7167L367.675 83.1386L343.695 156.278L354.936 160.779L372.934 126.697L373.181 75.7167Z" fill="#E4E4E4"/>
<path d="M392.894 49.2253C402.97 49.2253 411.139 41.0567 411.139 30.9802C411.139 20.9036 402.97 12.735 392.894 12.735C382.817 12.735 374.648 20.9036 374.648 30.9802C374.648 41.0567 382.817 49.2253 392.894 49.2253Z" fill="#2F2E41"/>
<path d="M393.14 50.0509C400.493 50.0509 406.454 44.09 406.454 36.7369C406.454 29.3838 400.493 23.4229 393.14 23.4229C385.787 23.4229 379.826 29.3838 379.826 36.7369C379.826 44.09 385.787 50.0509 393.14 50.0509Z" fill="#FFB9B9"/>
<path d="M403.248 35.011C394.771 31.9531 391.902 30.0746 382.538 35.011L379.086 21.2039H406.7L403.248 35.011Z" fill="#2F2E41"/>
<path d="M391.414 23.1763C397.133 23.1763 401.769 18.5401 401.769 12.8209C401.769 7.10183 397.133 2.46558 391.414 2.46558C385.695 2.46558 381.059 7.10183 381.059 12.8209C381.059 18.5401 385.695 23.1763 391.414 23.1763Z" fill="#2F2E41"/>
<path d="M379.086 10.3554C379.087 7.69598 380.112 5.13917 381.949 3.2156C383.785 1.29203 386.292 0.149416 388.948 0.0248895C388.784 0.017117 388.621 0 388.455 0C385.709 0 383.075 1.09101 381.133 3.03302C379.191 4.97502 378.1 7.60895 378.1 10.3554C378.1 13.1018 379.191 15.7357 381.133 17.6777C383.075 19.6197 385.709 20.7107 388.455 20.7107C388.621 20.7107 388.784 20.6936 388.948 20.6858C386.292 20.5613 383.785 19.4187 381.949 17.4951C380.112 15.5716 379.087 13.0148 379.086 10.3554Z" fill="#2F2E41"/>
<path opacity="0.1" d="M417.084 79.929L413.369 116.961L400.25 142.817L417.084 79.929Z" fill="black"/>
<path d="M24.39 193.904H21.1738V196.584H24.39V193.904Z" fill="#F0F0F0"/>
<path d="M328.605 196.584H322.267V193.904H328.605V196.584ZM315.929 196.584H309.591V193.904H315.929V196.584ZM303.254 196.584H296.916V193.904H303.254V196.584ZM290.578 196.584H284.24V193.904H290.578V196.584ZM277.902 196.584H271.565V193.904H277.902V196.584ZM265.226 196.584H258.889V193.904H265.226L265.226 196.584ZM252.551 196.584H246.213V193.904H252.551V196.584ZM239.875 196.584H233.537V193.904H239.875V196.584ZM227.199 196.584H220.862V193.904H227.199V196.584ZM214.524 196.584H208.186V193.904H214.524L214.524 196.584ZM201.848 196.584H195.51V193.904H201.848L201.848 196.584ZM189.173 196.584H182.835V193.904H189.173L189.173 196.584ZM176.497 196.584H170.159V193.904H176.497L176.497 196.584ZM163.821 196.584H157.483V193.904H163.821L163.821 196.584ZM151.145 196.584H144.808V193.904H151.145L151.145 196.584ZM138.47 196.584H132.132V193.904H138.47L138.47 196.584ZM125.794 196.584H119.456V193.904H125.794L125.794 196.584ZM113.118 196.584H106.781V193.904H113.119L113.118 196.584ZM100.443 196.584H94.105V193.904H100.443L100.443 196.584ZM87.7669 196.584H81.4294V193.904H87.767L87.7669 196.584ZM75.0913 196.584H68.7537V193.904H75.0914L75.0913 196.584ZM62.4156 196.584H56.0779V193.904H62.4158L62.4156 196.584ZM49.74 196.584H43.4022V193.904H49.7402L49.74 196.584ZM37.0643 196.584H30.7266V193.904H37.0645L37.0643 196.584Z" fill="#F0F0F0"/>
<path d="M24.39 125.827H21.1738V128.508H24.39V125.827Z" fill="#F0F0F0"/>
<path d="M328.605 128.508H322.267V125.827H328.605V128.508ZM315.929 128.508H309.591V125.827H315.929V128.508ZM303.254 128.508H296.916V125.827H303.254V128.508ZM290.578 128.508H284.24V125.827H290.578V128.508ZM277.902 128.508H271.565V125.827H277.902V128.508ZM265.226 128.508H258.889V125.827H265.226L265.226 128.508ZM252.551 128.508H246.213V125.827H252.551V128.508ZM239.875 128.508H233.537V125.827H239.875V128.508ZM227.199 128.508H220.862V125.827H227.199V128.508ZM214.524 128.508H208.186V125.827H214.524L214.524 128.508ZM201.848 128.508H195.51V125.827H201.848L201.848 128.508ZM189.173 128.508H182.835V125.827H189.173L189.173 128.508ZM176.497 128.508H170.159V125.827H176.497L176.497 128.508ZM163.821 128.508H157.483V125.827H163.821L163.821 128.508ZM151.145 128.508H144.808V125.827H151.145L151.145 128.508ZM138.47 128.508H132.132V125.827H138.47L138.47 128.508ZM125.794 128.508H119.456V125.827H125.794L125.794 128.508ZM113.118 128.508H106.781V125.827H113.119L113.118 128.508ZM100.443 128.508H94.105V125.827H100.443L100.443 128.508ZM87.7669 128.508H81.4294V125.827H87.767L87.7669 128.508ZM75.0913 128.508H68.7537V125.827H75.0914L75.0913 128.508ZM62.4156 128.508H56.0779V125.827H62.4158L62.4156 128.508ZM49.74 128.508H43.4022V125.827H49.7402L49.74 128.508ZM37.0643 128.508H30.7266V125.827H37.0645L37.0643 128.508Z" fill="#F0F0F0"/>
<path d="M24.39 57.7509H21.1738V60.431H24.39V57.7509Z" fill="#F0F0F0"/>
<path d="M328.605 60.431H322.267V57.7509H328.605V60.431ZM315.929 60.431H309.591V57.7509H315.929V60.431ZM303.254 60.431H296.916V57.7509H303.254V60.431ZM290.578 60.431H284.24V57.7509H290.578V60.431ZM277.902 60.431H271.565V57.7509H277.902V60.431ZM265.226 60.431H258.889V57.7509H265.226L265.226 60.431ZM252.551 60.431H246.213V57.7509H252.551V60.431ZM239.875 60.431H233.537V57.7509H239.875V60.431ZM227.199 60.431H220.862V57.7509H227.199V60.431ZM214.524 60.431H208.186V57.7509H214.524L214.524 60.431ZM201.848 60.431H195.51V57.7509H201.848L201.848 60.431ZM189.173 60.431H182.835V57.7509H189.173L189.173 60.431ZM176.497 60.431H170.159V57.7509H176.497L176.497 60.431ZM163.821 60.431H157.483V57.7509H163.821L163.821 60.431ZM151.145 60.431H144.808V57.7509H151.145L151.145 60.431ZM138.47 60.431H132.132V57.7509H138.47L138.47 60.431ZM125.794 60.431H119.456V57.7509H125.794L125.794 60.431ZM113.118 60.431H106.781V57.7509H113.119L113.118 60.431ZM100.443 60.431H94.105V57.7509H100.443L100.443 60.431ZM87.7669 60.431H81.4294V57.7509H87.767L87.7669 60.431ZM75.0913 60.431H68.7537V57.7509H75.0914L75.0913 60.431ZM62.4156 60.431H56.0779V57.7509H62.4158L62.4156 60.431ZM49.74 60.431H43.4022V57.7509H49.7402L49.74 60.431ZM37.0643 60.431H30.7266V57.7509H37.0645L37.0643 60.431Z" fill="#F0F0F0"/>
<path d="M125.969 194.708H99.7031V291.195H125.969V194.708Z" fill="#3F3D56"/>
<path d="M130.793 194.708H104.527V291.195H130.793V194.708Z" fill="#14CC47"/>
<path d="M188.149 126.631H161.883V291.195H188.149V126.631Z" fill="#3F3D56"/>
<path d="M192.973 126.631H166.707V291.195H192.973V126.631Z" fill="#14CC47"/>
<path d="M250.328 58.5548H224.062V291.194H250.328V58.5548Z" fill="#3F3D56"/>
<path d="M255.152 58.5548H228.887V291.194H255.152V58.5548Z" fill="#14CC47"/>
<path d="M21.4422 65.5233C24.9947 65.5233 27.8746 62.6434 27.8746 59.0909C27.8746 55.5383 24.9947 52.6584 21.4422 52.6584C17.8897 52.6584 15.0098 55.5383 15.0098 59.0909C15.0098 62.6434 17.8897 65.5233 21.4422 65.5233Z" fill="#F0F0F0"/>
<path d="M21.4422 133.6C24.9947 133.6 27.8746 130.72 27.8746 127.168C27.8746 123.615 24.9947 120.735 21.4422 120.735C17.8897 120.735 15.0098 123.615 15.0098 127.168C15.0098 130.72 17.8897 133.6 21.4422 133.6Z" fill="#F0F0F0"/>
<path d="M21.4422 201.677C24.9947 201.677 27.8746 198.797 27.8746 195.244C27.8746 191.692 24.9947 188.812 21.4422 188.812C17.8897 188.812 15.0098 191.692 15.0098 195.244C15.0098 198.797 17.8897 201.677 21.4422 201.677Z" fill="#F0F0F0"/>
<path d="M476 290.594H0V291.795H476V290.594Z" fill="#3F3D56"/>
<path d="M401.618 168.346L401.574 168.342C393.444 167 384.413 167 373.964 168.344H373.96C373.699 168.347 373.441 168.298 373.199 168.201C372.957 168.104 372.737 167.959 372.551 167.776C372.365 167.594 372.217 167.376 372.116 167.136C372.015 166.895 371.962 166.638 371.961 166.377V156.914C371.962 156.392 372.169 155.891 372.538 155.522C372.907 155.153 373.408 154.946 373.93 154.945C383.131 153.745 392.45 153.746 401.651 154.947H401.655C402.171 154.955 402.663 155.165 403.025 155.534C403.387 155.902 403.589 156.398 403.587 156.914V166.377C403.586 166.899 403.379 167.399 403.01 167.768C402.641 168.138 402.14 168.345 401.618 168.346Z" fill="white"/>
<path d="M401.618 168.346L401.574 168.342C393.444 167 384.413 167 373.964 168.344H373.96C373.699 168.347 373.441 168.298 373.199 168.201C372.957 168.104 372.737 167.959 372.551 167.776C372.365 167.594 372.217 167.376 372.116 167.136C372.015 166.895 371.962 166.638 371.961 166.377V156.914C371.962 156.392 372.169 155.891 372.538 155.522C372.907 155.153 373.408 154.946 373.93 154.945C383.131 153.745 392.45 153.746 401.651 154.947H401.655C402.171 154.955 402.663 155.165 403.025 155.534C403.387 155.902 403.589 156.398 403.587 156.914V166.377C403.586 166.899 403.379 167.399 403.01 167.768C402.641 168.138 402.14 168.345 401.618 168.346ZM387.422 154.583C382.922 154.575 378.426 154.874 373.966 155.478C373.776 155.475 373.586 155.51 373.408 155.581C373.231 155.651 373.069 155.757 372.933 155.89C372.796 156.024 372.687 156.183 372.612 156.358C372.538 156.534 372.498 156.723 372.497 156.914V166.377C372.497 166.757 372.649 167.121 372.917 167.39C373.186 167.658 373.55 167.809 373.93 167.81C384.388 166.463 393.463 166.463 401.639 167.81C402.015 167.804 402.374 167.65 402.638 167.382C402.902 167.114 403.051 166.753 403.051 166.377V156.914C403.051 156.534 402.899 156.17 402.631 155.901C402.362 155.633 401.998 155.481 401.618 155.481C396.909 154.89 392.168 154.59 387.422 154.583Z" fill="#14CC47"/>
<path d="M387.774 164.946C389.846 164.946 391.526 163.266 391.526 161.194C391.526 159.121 389.846 157.441 387.774 157.441C385.701 157.441 384.021 159.121 384.021 161.194C384.021 163.266 385.701 164.946 387.774 164.946Z" fill="#14CC47"/>
<path d="M378.126 159.233H374.91C374.696 159.233 374.492 159.148 374.341 158.997C374.19 158.847 374.106 158.642 374.105 158.429V157.357C374.106 157.144 374.19 156.939 374.341 156.789C374.492 156.638 374.696 156.553 374.91 156.553H378.126C378.339 156.553 378.543 156.638 378.694 156.789C378.845 156.939 378.93 157.144 378.93 157.357V158.429C378.93 158.642 378.845 158.847 378.694 158.997C378.543 159.148 378.339 159.233 378.126 159.233Z" fill="#14CC47"/>
<path d="M400.639 166.738H397.423C397.21 166.737 397.006 166.653 396.855 166.502C396.704 166.351 396.619 166.147 396.619 165.934V164.862C396.619 164.648 396.704 164.444 396.855 164.293C397.006 164.143 397.21 164.058 397.423 164.057H400.639C400.853 164.058 401.057 164.143 401.208 164.293C401.358 164.444 401.443 164.648 401.443 164.862V165.934C401.443 166.147 401.358 166.351 401.208 166.502C401.057 166.653 400.853 166.737 400.639 166.738Z" fill="#14CC47"/>
<path d="M395.591 155.942C395.536 155.156 395.654 154.367 395.937 153.631C396.219 152.896 396.66 152.231 397.227 151.684C397.794 151.137 398.475 150.721 399.22 150.466C399.966 150.21 400.758 150.121 401.541 150.205L409.709 132.878L414.889 141.379L406.339 156.529C406.111 157.836 405.411 159.014 404.373 159.84C403.334 160.665 402.029 161.081 400.704 161.009C399.379 160.937 398.127 160.381 397.185 159.447C396.243 158.513 395.676 157.266 395.591 155.942Z" fill="#FFB6B6"/>
<path d="M417.799 65.3101L421.163 60.9233C421.163 60.9233 429.359 59.254 430.752 70.5115L429.875 120.559L411.915 148.827L400.25 145.849L415.501 112.268L417.799 65.3101Z" fill="#E4E4E4"/>
</svg>
