<svg width="785" height="409" viewBox="0 0 785 409" fill="none" xmlns="http://www.w3.org/2000/svg">
<path d="M775.99 303.332C781.392 302.512 785.153 297.504 784.247 292.116C777.093 249.548 761.315 208.716 737.663 171.646C712.211 131.757 678.141 97.0061 637.396 69.3764C596.651 41.7466 550.029 21.7794 500.194 10.6149C450.358 -0.549544 398.284 -2.69273 346.944 4.30774C295.605 11.3082 246.005 27.3153 200.978 51.4149C155.951 75.5146 116.377 107.235 84.5172 144.765C52.6572 182.295 29.1345 224.899 15.292 270.146C1.6455 314.752 -2.32924 361.065 3.58068 406.514C3.72176 407.599 4.71396 408.363 5.79993 408.23L417.443 357.712L775.99 303.332Z" fill="#14CC47"/>
</svg>
