<svg width="15" height="15" viewBox="0 0 15 15" fill="none" xmlns="http://www.w3.org/2000/svg">
<path d="M12.8972 0.352295H1.91976C1.05333 0.352295 0.351562 1.05406 0.351562 1.92049V12.8979C0.351562 13.7643 1.05333 14.4661 1.91976 14.4661H12.8972C13.7636 14.4661 14.4654 13.7643 14.4654 12.8979V1.92049C14.4654 1.05406 13.7636 0.352295 12.8972 0.352295ZM5.05616 11.3297H3.07788V5.84099H5.05616V11.3297ZM4.03213 4.83499C3.42759 4.83499 3.02378 4.43197 3.02378 3.89407C3.02378 3.35618 3.4268 2.95315 4.09878 2.95315C4.70332 2.95315 5.10713 3.35618 5.10713 3.89407C5.10713 4.43197 4.7041 4.83499 4.03213 4.83499ZM12.1131 11.3297H10.1983V8.32973C10.1983 7.50015 9.68784 7.30883 9.49652 7.30883C9.3052 7.30883 8.66694 7.43664 8.66694 8.32973C8.66694 8.45754 8.66694 11.3297 8.66694 11.3297H6.68866V5.84099H8.66694V6.60706C8.92177 6.16012 9.43222 5.84099 10.3896 5.84099C11.347 5.84099 12.1131 6.60706 12.1131 8.32973V11.3297Z" fill="white"/>
</svg>
