<svg width="353" height="316" viewBox="0 0 353 316" fill="none" xmlns="http://www.w3.org/2000/svg">
<g clip-path="url(#clip0_182_5802)">
<path d="M1.97738 70.9071C1.28615 71.1016 0.700255 71.5625 0.348227 72.1887C-0.00379998 72.8149 -0.0932216 73.5553 0.0995828 74.2473L45.3768 236.039C45.5712 236.731 46.0319 237.317 46.6577 237.669C47.2836 238.021 48.0235 238.111 48.7151 237.918L215.63 191.154C216.321 190.959 216.907 190.498 217.259 189.872C217.611 189.246 217.701 188.506 217.508 187.814L172.231 26.0217C172.036 25.3301 171.575 24.7439 170.95 24.3916C170.324 24.0394 169.584 23.9499 168.892 24.1428L1.97738 70.9071Z" fill="#E6E6E6"/>
<path d="M50.814 230.278L209.873 185.715L166.796 31.7828L7.73633 76.3462L50.814 230.278Z" fill="white"/>
<path d="M28.7649 96.9005C27.7036 97.1978 27.2661 98.9616 27.7896 100.832C28.313 102.703 29.6024 103.983 30.6636 103.685L103.208 83.3606C104.269 83.0633 104.707 81.2995 104.183 79.429C103.66 77.5585 102.371 76.2786 101.309 76.5759L28.7649 96.9005Z" fill="#E6E6E6"/>
<path d="M34.6086 117.777C33.5474 118.074 33.1099 119.838 33.6333 121.708C34.1568 123.579 35.4461 124.859 36.5073 124.562L109.052 104.237C110.113 103.94 110.551 102.176 110.027 100.305C109.504 98.4347 108.214 97.1548 107.153 97.4521L34.6086 117.777Z" fill="#E6E6E6"/>
<path d="M40.382 138.412C39.3208 138.71 38.8833 140.473 39.4068 142.344C39.9302 144.215 41.2195 145.494 42.2808 145.197L114.825 124.872C115.887 124.575 116.324 122.811 115.801 120.941C115.277 119.07 113.988 117.79 112.927 118.088L40.382 138.412Z" fill="#E6E6E6"/>
<path d="M46.2238 159.289C45.1626 159.586 44.7251 161.35 45.2486 163.22C45.772 165.091 47.0613 166.371 48.1226 166.073L120.667 145.749C121.728 145.451 122.166 143.688 121.642 141.817C121.119 139.947 119.83 138.667 118.768 138.964L46.2238 159.289Z" fill="#E6E6E6"/>
<path d="M138.126 66.502C137.68 66.6263 137.264 66.8373 136.899 67.1229C136.535 67.4086 136.231 67.7632 136.004 68.1666C135.777 68.57 135.631 69.0142 135.576 69.4739C135.521 69.9335 135.556 70.3996 135.681 70.8454C135.806 71.2912 136.017 71.708 136.303 72.0721C136.589 72.4361 136.944 72.7402 137.347 72.9669C137.751 73.1937 138.195 73.3386 138.654 73.3935C139.114 73.4484 139.579 73.4121 140.025 73.2868L153.587 69.4872C154.486 69.2353 155.248 68.6362 155.706 67.8219C156.164 67.0076 156.28 66.0446 156.028 65.1449C155.776 64.2452 155.177 63.4824 154.364 63.0243C153.55 62.5663 152.587 62.4505 151.688 62.7024L138.126 66.502Z" fill="#E6E6E6"/>
<path d="M143.855 86.9737C143.409 87.098 142.992 87.309 142.628 87.5946C142.264 87.8803 141.96 88.2349 141.732 88.6383C141.505 89.0417 141.36 89.4859 141.305 89.9455C141.249 90.4052 141.285 90.8712 141.41 91.3171C141.534 91.7629 141.746 92.1797 142.032 92.5438C142.318 92.9078 142.672 93.2119 143.076 93.4386C143.479 93.6654 143.923 93.8103 144.383 93.8652C144.842 93.9201 145.308 93.8838 145.753 93.7585L159.315 89.9589C160.214 89.7069 160.977 89.1079 161.435 88.2936C161.892 87.4792 162.008 86.5163 161.756 85.6166C161.505 84.7168 160.906 83.9541 160.092 83.496C159.278 83.0379 158.316 82.9221 157.417 83.1741L143.855 86.9737Z" fill="#E6E6E6"/>
<path d="M149.583 107.445C149.138 107.57 148.722 107.781 148.358 108.067C147.994 108.353 147.691 108.707 147.464 109.111C147.237 109.514 147.092 109.958 147.037 110.417C146.982 110.876 147.017 111.342 147.142 111.788C147.267 112.233 147.478 112.65 147.764 113.013C148.049 113.377 148.403 113.681 148.806 113.908C149.209 114.135 149.653 114.28 150.112 114.335C150.571 114.391 151.037 114.355 151.482 114.23L165.044 110.43C165.943 110.179 166.705 109.579 167.163 108.765C167.621 107.951 167.737 106.988 167.485 106.088C167.233 105.188 166.634 104.426 165.821 103.968C165.007 103.51 164.044 103.394 163.145 103.646L149.583 107.445Z" fill="#E6E6E6"/>
<path d="M155.312 127.917C154.414 128.17 153.652 128.769 153.195 129.583C152.738 130.397 152.623 131.359 152.875 132.258C153.126 133.157 153.724 133.92 154.537 134.378C155.35 134.836 156.312 134.952 157.21 134.702L170.772 130.902C171.671 130.649 172.432 130.05 172.889 129.236C173.346 128.422 173.461 127.46 173.21 126.561C172.958 125.662 172.36 124.9 171.547 124.441C170.734 123.983 169.772 123.867 168.874 124.117L155.312 127.917Z" fill="#E6E6E6"/>
<path d="M160.785 163.401C160.218 163.56 159.686 163.828 159.222 164.192C158.758 164.556 158.371 165.008 158.081 165.522C157.792 166.036 157.607 166.602 157.536 167.188C157.466 167.774 157.511 168.368 157.67 168.936C157.829 169.504 158.098 170.035 158.463 170.499C158.827 170.963 159.279 171.35 159.793 171.639C160.307 171.928 160.873 172.113 161.458 172.182C162.044 172.252 162.637 172.206 163.205 172.046L180.486 167.205C181.631 166.884 182.603 166.121 183.186 165.083C183.769 164.045 183.917 162.818 183.596 161.672C183.275 160.526 182.512 159.554 181.475 158.97C180.438 158.386 179.212 158.239 178.066 158.56L160.785 163.401Z" fill="#14CC47"/>
<path d="M178.57 145.941L50.6953 181.768L51.0136 182.905L178.888 147.079L178.57 145.941Z" fill="#E6E6E6"/>
<path d="M307.018 298.85L296.762 301.331L282.318 262.931L297.455 259.27L307.018 298.85Z" fill="#A0616A"/>
<path d="M279.068 316L278.999 315.713C278.186 312.333 278.747 308.767 280.558 305.8C282.369 302.832 285.282 300.705 288.659 299.884L308.725 295.03L311.874 308.065L279.068 316Z" fill="#2F2E41"/>
<path d="M261.617 305.84L251.066 305.84L246.047 265.119L261.619 265.12L261.617 305.84Z" fill="#A0616A"/>
<path d="M264.173 315.939L230.422 315.937V315.642C230.422 312.164 231.803 308.828 234.261 306.369C236.719 303.91 240.053 302.528 243.529 302.528H243.53L264.173 302.529L264.173 315.939Z" fill="#2F2E41"/>
<path d="M246.039 289.944L235.795 167.78L278.204 159.959L278.371 159.928L290.784 167.912L286.464 212.872L306.356 282.966L289.18 287.489L269.256 222.48L264.696 202.711L262.36 228.399L264.094 291.75L246.039 289.944Z" fill="#2F2E41"/>
<path d="M234.481 170.551L234.369 170.409L249.024 60.0055L249.043 59.8609L249.146 59.7574C249.362 59.5413 254.497 54.4646 259.778 54.4646C260.541 54.4646 261.267 54.4452 261.964 54.4276C266.005 54.3224 269.198 54.2384 272.992 58.0352C276.857 61.9027 289.47 76.0254 289.47 95.3679C289.47 114.09 291.174 172.271 291.191 172.856L291.215 173.678L290.526 173.23C290.356 173.12 273.393 162.313 259.165 172.359C254.719 175.499 250.725 176.6 247.31 176.6C239.361 176.6 234.549 170.638 234.481 170.551Z" fill="#14CC47"/>
<path d="M267.673 45.3549C277.917 39.752 281.682 26.9013 276.082 16.6518C270.482 6.40243 257.639 2.63562 247.395 8.23846C237.152 13.8413 233.387 26.6921 238.987 36.9415C244.586 47.1909 257.43 50.9577 267.673 45.3549Z" fill="#A0616A"/>
<path d="M225.175 194.278C226.175 193.502 226.993 192.517 227.572 191.391C228.15 190.265 228.474 189.026 228.522 187.761C228.57 186.496 228.34 185.236 227.849 184.069C227.357 182.903 226.616 181.858 225.677 181.009L237.682 152.678L221.964 155.573L212.974 182.033C211.653 183.705 210.992 185.804 211.114 187.931C211.237 190.059 212.135 192.068 213.639 193.578C215.143 195.087 217.148 195.992 219.274 196.121C221.4 196.25 223.5 195.594 225.175 194.278H225.175Z" fill="#A0616A"/>
<path d="M213.578 172.24L217.444 164.074C217.205 163.93 217.008 163.726 216.873 163.482C213.261 157.22 235.076 105.214 236.53 101.764C236.308 99.8879 234.018 80.0064 235.693 73.305C237.664 65.4161 241.711 61.7395 249.225 61.0113C257.513 60.2325 259.748 71.4927 259.77 71.6071L259.777 100.555L250.267 133.877L228.576 178.151L213.578 172.24Z" fill="#14CC47"/>
<path d="M260.236 34.765C257.702 35.0948 255.791 32.5008 254.904 30.1028C254.018 27.7049 253.342 24.9132 251.139 23.6179C248.129 21.8483 244.278 23.9767 240.836 23.3928C236.949 22.7335 234.422 18.6117 234.224 14.6719C234.026 10.7322 235.593 6.94299 237.13 3.3106L237.667 7.82484C237.595 6.29485 237.917 4.77202 238.602 3.40202C239.286 2.03201 240.311 0.86066 241.577 0L240.885 6.62396C241.319 2.91305 245.314 0.0375995 248.968 0.806615L248.86 4.7534C253.349 4.21926 257.878 3.68436 262.38 4.0913C266.883 4.49824 271.418 5.92371 274.83 8.89082C279.935 13.3292 281.8 20.6374 281.174 27.3751C280.548 34.1128 277.768 40.4424 274.871 46.5568C274.142 48.0952 273.134 49.8312 271.444 50.0271C269.925 50.2032 268.535 48.933 268.063 47.478C267.591 46.023 267.821 44.4423 268.104 42.939C268.531 40.668 269.07 38.3467 268.668 36.071C268.266 33.7953 266.63 31.5465 264.338 31.2676C262.045 30.9887 259.699 33.6109 260.801 35.6416L260.236 34.765Z" fill="#2F2E41"/>
<path d="M352.775 315.987H200.66V314.743H353L352.775 315.987Z" fill="#3F3D56"/>
</g>
<defs>
<clipPath id="clip0_182_5802">
<rect width="353" height="316" fill="white"/>
</clipPath>
</defs>
</svg>
