<svg width="315" height="196" viewBox="0 0 315 196" fill="none" xmlns="http://www.w3.org/2000/svg">
<g clip-path="url(#clip0_182_7804)">
<path d="M29.7068 189.773C31.1007 191.648 32.8287 193.252 34.8042 194.502C35.2244 194.768 35.6557 195.019 36.0945 195.251H46.4207C46.2971 195.004 46.1769 194.753 46.0606 194.502C42.8589 187.758 41.8549 180.181 43.1898 172.837C44.5246 165.494 48.1312 158.752 53.5025 153.561C47.261 155.485 41.4921 159.237 37.7187 164.558C35.8852 167.149 34.5813 170.076 33.8815 173.17C33.2579 166.981 34.249 160.737 36.7584 155.043C31.691 159.159 27.7449 164.794 26.2409 171.137C24.7369 177.484 25.8283 184.527 29.7068 189.773Z" fill="#14CC47"/>
<path d="M228.838 147.614H158.633C158.2 147.613 157.785 147.442 157.479 147.136C157.173 146.831 157 146.416 157 145.984V102.63C157 102.198 157.173 101.783 157.479 101.478C157.785 101.172 158.2 101 158.633 101H228.838C229.271 101 229.686 101.172 229.992 101.478C230.298 101.783 230.47 102.198 230.471 102.63V145.984C230.47 146.416 230.298 146.831 229.992 147.136C229.686 147.442 229.271 147.613 228.838 147.614Z" fill="white"/>
<path d="M228.838 147.614H158.633C158.2 147.613 157.785 147.442 157.479 147.136C157.173 146.831 157 146.416 157 145.984V102.63C157 102.198 157.173 101.783 157.479 101.478C157.785 101.172 158.2 101 158.633 101H228.838C229.271 101 229.686 101.172 229.992 101.478C230.298 101.783 230.47 102.198 230.471 102.63V145.984C230.47 146.416 230.298 146.831 229.992 147.136C229.686 147.442 229.271 147.613 228.838 147.614ZM158.633 101.652C158.373 101.652 158.124 101.755 157.94 101.939C157.757 102.122 157.653 102.371 157.653 102.63V145.984C157.653 146.243 157.757 146.492 157.94 146.675C158.124 146.859 158.373 146.962 158.633 146.962H228.838C229.098 146.962 229.347 146.859 229.53 146.675C229.714 146.492 229.817 146.243 229.818 145.984V102.63C229.817 102.371 229.714 102.122 229.53 101.939C229.347 101.755 229.098 101.652 228.838 101.652H158.633Z" fill="#3F3D56"/>
<path d="M214.96 115.479H172.51C172.121 115.479 171.747 115.325 171.471 115.049C171.196 114.774 171.041 114.401 171.041 114.012C171.041 113.623 171.196 113.25 171.471 112.975C171.747 112.7 172.121 112.545 172.51 112.545H214.96C215.35 112.545 215.724 112.7 215.999 112.975C216.275 113.25 216.429 113.623 216.429 114.012C216.429 114.401 216.275 114.774 215.999 115.049C215.724 115.325 215.35 115.479 214.96 115.479Z" fill="#CCCCCC"/>
<path d="M214.96 125.584H172.51C172.121 125.584 171.747 125.43 171.471 125.155C171.196 124.879 171.041 124.506 171.041 124.117C171.041 123.728 171.196 123.355 171.471 123.08C171.747 122.805 172.121 122.65 172.51 122.65H214.96C215.35 122.65 215.724 122.805 215.999 123.08C216.275 123.355 216.429 123.728 216.429 124.117C216.429 124.506 216.275 124.879 215.999 125.155C215.724 125.43 215.35 125.584 214.96 125.584Z" fill="#CCCCCC"/>
<path d="M211.179 141.606C214.079 141.606 216.43 139.259 216.43 136.364C216.43 133.469 214.079 131.122 211.179 131.122C208.279 131.122 205.928 133.469 205.928 136.364C205.928 139.259 208.279 141.606 211.179 141.606Z" fill="#14CC47"/>
<path d="M295.851 91.4947V90.9953H295.999V91.4947C296.209 91.5038 296.415 91.5541 296.605 91.6426C296.743 91.7073 296.862 91.8063 296.951 91.9302C297.032 92.0447 297.076 92.1821 297.076 92.3228C297.079 92.4256 297.044 92.5261 296.979 92.6054C296.95 92.6415 296.914 92.6706 296.873 92.6905C296.831 92.7105 296.786 92.7207 296.74 92.7204C296.706 92.721 296.672 92.7147 296.64 92.7017C296.608 92.6887 296.58 92.6693 296.556 92.6448C296.531 92.6204 296.511 92.5912 296.498 92.559C296.485 92.5268 296.479 92.4922 296.48 92.4575C296.48 92.4089 296.49 92.3608 296.51 92.3162L296.569 92.1914C296.59 92.1392 296.6 92.0833 296.598 92.0271C296.6 91.94 296.572 91.8549 296.519 91.7856C296.462 91.7129 296.384 91.6586 296.296 91.6295C296.2 91.598 296.1 91.5782 295.999 91.5703V93.3676L296.032 93.3873C296.342 93.5508 296.623 93.7627 296.865 94.0149C296.972 94.1417 297.057 94.2855 297.117 94.4405C297.176 94.5907 297.207 94.7506 297.207 94.9119C297.21 95.1209 297.155 95.3266 297.049 95.5067C296.946 95.6825 296.794 95.8251 296.612 95.9174C296.419 96.0115 296.212 96.0715 295.999 96.0948V96.6304H295.851V96.1047C295.636 96.103 295.424 96.0595 295.226 95.9766C295.028 95.9032 294.854 95.7784 294.721 95.6151C294.604 95.4687 294.54 95.2867 294.541 95.0993C294.537 94.9676 294.578 94.8385 294.657 94.7328C294.688 94.6873 294.729 94.6499 294.778 94.6239C294.827 94.5979 294.881 94.584 294.936 94.5834C294.969 94.5822 295.002 94.5879 295.033 94.6C295.064 94.6121 295.092 94.6304 295.116 94.6538C295.139 94.6771 295.157 94.7051 295.17 94.7358C295.182 94.7666 295.188 94.7995 295.186 94.8326C295.175 94.9337 295.133 95.0289 295.065 95.1047C295.029 95.1516 294.999 95.2021 294.974 95.2555C294.957 95.2971 294.949 95.3417 294.949 95.3866C294.95 95.5064 294.991 95.6225 295.066 95.716C295.148 95.8207 295.257 95.9017 295.381 95.9504C295.522 96.0055 295.673 96.0322 295.825 96.0291H295.851V93.8835L295.664 93.7751C295.486 93.6722 295.35 93.5867 295.257 93.5188C295.166 93.4528 295.082 93.378 295.005 93.2953C294.816 93.0943 294.711 92.8286 294.712 92.5528C294.712 92.3811 294.755 92.212 294.838 92.0616C294.919 91.9115 295.038 91.7852 295.183 91.6952C295.385 91.5734 295.615 91.5045 295.851 91.4947ZM295.851 91.567C295.724 91.571 295.598 91.5988 295.481 91.6491C295.364 91.707 295.268 91.7998 295.206 91.9147C295.135 92.0397 295.099 92.1811 295.101 92.3246C295.099 92.4995 295.153 92.6705 295.255 92.8132C295.309 92.8909 295.373 92.9605 295.447 93.0199C295.565 93.1084 295.69 93.1894 295.819 93.2625L295.851 93.2822V91.567ZM295.999 96.0226C296.084 96.0155 296.168 95.9978 296.248 95.97C296.314 95.9448 296.375 95.9093 296.429 95.8649C296.53 95.7784 296.609 95.6685 296.658 95.5445C296.715 95.4077 296.744 95.2607 296.743 95.1124C296.73 94.8744 296.655 94.644 296.524 94.4444C296.393 94.2448 296.212 94.0831 295.999 93.9755V96.0226Z" fill="white"/>
<path d="M252.838 84.614H182.633C182.2 84.6135 181.785 84.4416 181.479 84.1361C181.173 83.8305 181 83.4163 181 82.9841V39.6299C181 39.1977 181.173 38.7835 181.479 38.4779C181.785 38.1724 182.2 38.0005 182.633 38H252.838C253.271 38.0005 253.686 38.1724 253.992 38.4779C254.298 38.7835 254.47 39.1977 254.471 39.6299V82.9841C254.47 83.4163 254.298 83.8305 253.992 84.1361C253.686 84.4416 253.271 84.6135 252.838 84.614Z" fill="white"/>
<path d="M252.838 84.614H182.633C182.2 84.6135 181.785 84.4416 181.479 84.1361C181.173 83.8305 181 83.4163 181 82.9841V39.6299C181 39.1977 181.173 38.7835 181.479 38.4779C181.785 38.1724 182.2 38.0005 182.633 38H252.838C253.271 38.0005 253.686 38.1724 253.992 38.4779C254.298 38.7835 254.47 39.1977 254.471 39.6299V82.9841C254.47 83.4163 254.298 83.8305 253.992 84.1361C253.686 84.4416 253.271 84.6135 252.838 84.614ZM182.633 38.652C182.373 38.6522 182.124 38.7553 181.94 38.9387C181.757 39.122 181.653 39.3706 181.653 39.6299V82.9841C181.653 83.2434 181.757 83.492 181.94 83.6753C182.124 83.8587 182.373 83.9618 182.633 83.9621H252.838C253.098 83.9618 253.347 83.8587 253.53 83.6753C253.714 83.492 253.817 83.2434 253.817 82.9841V39.6299C253.817 39.3706 253.714 39.122 253.53 38.9387C253.347 38.7553 253.098 38.6522 252.838 38.652H182.633Z" fill="#3F3D56"/>
<path d="M238.96 52.4791H196.51C196.121 52.4791 195.747 52.3246 195.471 52.0495C195.196 51.7744 195.041 51.4013 195.041 51.0122C195.041 50.6232 195.196 50.2501 195.471 49.975C195.747 49.6999 196.121 49.5453 196.51 49.5453H238.96C239.35 49.5453 239.724 49.6999 239.999 49.975C240.275 50.2501 240.429 50.6232 240.429 51.0122C240.429 51.4013 240.275 51.7744 239.999 52.0495C239.724 52.3246 239.35 52.4791 238.96 52.4791Z" fill="#CCCCCC"/>
<path d="M238.96 62.5842H196.51C196.121 62.5842 195.747 62.4297 195.471 62.1546C195.196 61.8795 195.041 61.5064 195.041 61.1173C195.041 60.7283 195.196 60.3552 195.471 60.0801C195.747 59.805 196.121 59.6505 196.51 59.6505H238.96C239.35 59.6505 239.724 59.805 239.999 60.0801C240.275 60.3552 240.429 60.7283 240.429 61.1173C240.429 61.5064 240.275 61.8795 239.999 62.1546C239.724 62.4297 239.35 62.5842 238.96 62.5842Z" fill="#CCCCCC"/>
<path d="M235.179 78.6062C238.079 78.6062 240.43 76.2592 240.43 73.364C240.43 70.4688 238.079 68.1218 235.179 68.1218C232.279 68.1218 229.928 70.4688 229.928 73.364C229.928 76.2592 232.279 78.6062 235.179 78.6062Z" fill="#14CC47"/>
<path d="M248.027 62.4754V61.976H248.175V62.4754C248.385 62.4845 248.591 62.5347 248.781 62.6233C248.919 62.688 249.038 62.787 249.126 62.9108C249.208 63.0254 249.252 63.1627 249.251 63.3034C249.255 63.4063 249.22 63.5067 249.154 63.586C249.126 63.6221 249.09 63.6513 249.048 63.6712C249.007 63.6911 248.962 63.7013 248.916 63.701C248.881 63.7017 248.847 63.6953 248.816 63.6823C248.784 63.6693 248.755 63.65 248.731 63.6254C248.707 63.601 248.687 63.5718 248.674 63.5396C248.661 63.5074 248.655 63.4729 248.656 63.4382C248.656 63.3895 248.666 63.3414 248.685 63.2969L248.745 63.172C248.766 63.1198 248.776 63.0639 248.774 63.0077C248.776 62.9206 248.748 62.8356 248.695 62.7663C248.637 62.6936 248.56 62.6393 248.471 62.6101C248.375 62.5787 248.276 62.5588 248.175 62.551V64.3483L248.208 64.368C248.517 64.5315 248.799 64.7434 249.041 64.9956C249.148 65.1223 249.233 65.2662 249.293 65.4211C249.352 65.5714 249.382 65.7312 249.383 65.8926C249.386 66.1015 249.331 66.3072 249.225 66.4873C249.122 66.6632 248.97 66.8057 248.787 66.8981C248.595 66.9922 248.388 67.0522 248.175 67.0755V67.6111H248.027V67.0854C247.812 67.0836 247.6 67.0401 247.402 66.9572C247.204 66.8838 247.03 66.759 246.896 66.5958C246.779 66.4494 246.716 66.2673 246.717 66.0799C246.713 65.9483 246.754 65.8191 246.832 65.7135C246.863 65.6679 246.905 65.6305 246.954 65.6045C247.003 65.5785 247.057 65.5646 247.112 65.564C247.145 65.5629 247.178 65.5685 247.209 65.5806C247.24 65.5927 247.268 65.6111 247.291 65.6344C247.315 65.6578 247.333 65.6857 247.345 65.7165C247.358 65.7472 247.363 65.7802 247.362 65.8132C247.351 65.9144 247.308 66.0095 247.24 66.0853C247.205 66.1322 247.175 66.1828 247.15 66.2361C247.133 66.2778 247.125 66.3224 247.125 66.3673C247.126 66.4871 247.167 66.6032 247.242 66.6967C247.324 66.8014 247.433 66.8823 247.556 66.931C247.698 66.9861 247.849 67.0129 248.001 67.0098H248.027V64.8642L247.839 64.7557C247.662 64.6528 247.526 64.5674 247.433 64.4994C247.342 64.4335 247.257 64.3586 247.181 64.276C246.992 64.0749 246.887 63.8092 246.888 63.5334C246.887 63.3617 246.93 63.1927 247.013 63.0422C247.095 62.8921 247.214 62.7658 247.359 62.6758C247.561 62.5541 247.791 62.4851 248.027 62.4754ZM248.027 62.5477C247.9 62.5516 247.774 62.5795 247.657 62.6297C247.54 62.6876 247.443 62.7805 247.381 62.8953C247.311 63.0203 247.275 63.1617 247.277 63.3052C247.275 63.4802 247.329 63.6512 247.431 63.7939C247.484 63.8715 247.549 63.9411 247.622 64.0005C247.741 64.0891 247.865 64.1701 247.994 64.2432L248.027 64.2629V62.5477ZM248.175 67.0032C248.26 66.9961 248.344 66.9785 248.424 66.9507C248.49 66.9254 248.55 66.8899 248.604 66.8455C248.706 66.7591 248.785 66.6491 248.834 66.5252C248.891 66.3883 248.92 66.2414 248.919 66.0931C248.906 65.855 248.83 65.6246 248.7 65.4251C248.569 65.2255 248.388 65.0638 248.175 64.9562V67.0032Z" fill="white"/>
<path d="M120.008 69.7259C119.396 69.6818 118.782 69.7721 118.21 69.9904C117.637 70.2087 117.119 70.5498 116.692 70.9896C116.266 71.4294 115.941 71.9572 115.741 72.5358C115.54 73.1145 115.47 73.7299 115.534 74.3387L102.037 80.6552L108.643 84.6932L120.447 78.0759C121.465 77.9009 122.382 77.3595 123.027 76.5541C123.671 75.7487 123.997 74.7354 123.943 73.7062C123.889 72.677 123.458 71.7033 122.733 70.9697C122.008 70.2361 121.038 69.7936 120.008 69.7259Z" fill="#FFB6B6"/>
<path d="M64.159 191.254L68.8202 191.254L71.0377 173.306L64.1582 173.306L64.159 191.254Z" fill="#FFB6B6"/>
<path d="M62.9707 189.735L72.1502 189.735H72.1506C73.7021 189.735 75.19 190.35 76.287 191.445C77.3841 192.54 78.0004 194.026 78.0005 195.574V195.764L62.971 195.765L62.9707 189.735Z" fill="#2F2E41"/>
<path d="M87.9441 191.254L92.6054 191.254L94.8229 173.306L87.9434 173.306L87.9441 191.254Z" fill="#FFB6B6"/>
<path d="M86.7539 189.735L95.9334 189.735H95.9338C97.4852 189.735 98.9731 190.35 100.07 191.445C101.167 192.54 101.784 194.026 101.784 195.574V195.764L86.7542 195.765L86.7539 189.735Z" fill="#2F2E41"/>
<path d="M91.0572 98.1636L93.4229 103.248L97.688 148.72L94.3726 187.803H86.6184L77.4684 126.199L73.1706 186.384L62.7078 185.963L60.6992 104.364L91.0572 98.1636Z" fill="#2F2E41"/>
<path d="M53.3552 56.2018L63.1636 52.2181L77.0078 52.9932L89.3156 57.4707L93.4219 103.248C82.7145 109.085 71.8682 110.678 60.8332 106.505L50.5918 76.6885L53.3552 56.2018Z" fill="#E4E4E4"/>
<path d="M85.4867 58.6809L89.8393 57.4707C89.8393 57.4707 93.1314 55.3338 94.2146 61.6861C95.2978 68.0383 100.871 77.9188 100.871 77.9188L110.412 72.8428L114.83 82.473L99.7621 91.5845L83.8945 75.6242L85.4867 58.6809Z" fill="#E4E4E4"/>
<path d="M61.6132 43.7369C61.0846 42.5395 60.7975 41.25 60.7681 39.9419C60.7388 38.6338 60.9678 37.3327 61.4422 36.113C61.9165 34.8932 62.6268 33.7787 63.5327 32.833C64.4385 31.8873 65.522 31.129 66.7214 30.6013C67.9208 30.0737 69.2126 29.787 70.523 29.7577C71.8333 29.7284 73.1367 29.957 74.3585 30.4305C75.5804 30.9041 76.6968 31.6132 77.6442 32.5175C78.5915 33.4217 79.3511 34.5034 79.8797 35.7007L79.9368 35.8325C80.987 38.2587 81.0287 41.0019 80.0528 43.4588C79.5696 44.6753 78.851 45.7849 77.9383 46.7243C77.0255 47.6636 75.9363 48.4142 74.7329 48.9334C72.3025 49.9818 69.5545 50.0234 67.0934 49.0492C64.6323 48.075 62.6596 46.1646 61.6094 43.7385L61.6132 43.7369Z" fill="#FFB6B6"/>
<path d="M75.1628 34.6179C77.2382 34.9938 80.4498 36.2981 82.2322 34.7679C81.352 33.7412 80.2447 32.9327 78.9978 32.4062C78.7522 32.3249 78.5248 32.1966 78.3283 32.0285C77.7206 31.4155 78.1902 30.3591 77.9121 29.5302C77.7771 29.2273 77.5734 28.9599 77.3172 28.749C77.0609 28.5381 76.7591 28.3894 76.4355 28.3148C75.8169 28.13 75.1686 28.1 74.5609 27.876C73.1228 27.3364 72.1003 25.7923 70.6262 25.3727C69.3418 25.0018 68.0494 25.5782 66.9409 26.2508C65.8325 26.9235 64.7359 27.7216 63.4391 27.8492C62.4701 27.9375 61.8566 29.5287 60.8837 29.5753C58.8451 29.6743 58.9583 28.333 58.8075 30.471C58.7205 31.7468 56.8943 34.285 56.924 35.5719C56.9542 36.4152 56.8047 37.2504 56.8288 38.0963C56.8837 39.7073 57.5309 41.2418 58.6471 42.4067C59.5752 43.3595 60.7824 44.0022 61.5637 45.0883C61.97 45.6648 62.2519 46.3379 62.7249 46.8596C63.1978 47.3813 63.9989 47.6952 64.5268 47.3228C65.0547 46.9503 65.0645 46.1442 65.3264 45.5309C65.4871 45.1548 65.7615 44.8383 66.1114 44.6258C66.4612 44.4132 66.8688 44.3151 67.2772 44.3454C67.7014 44.4007 68.1017 44.5731 68.4331 44.8432C68.7645 45.1133 69.0138 45.4703 69.153 45.8741C68.9058 44.5185 68.2542 43.2485 68.0065 41.8919C67.7589 40.5354 68.0816 38.9149 69.2517 38.3852C69.7541 38.1518 70.4328 38.0891 70.6347 37.5514C70.7584 37.2274 70.6453 36.8447 70.6929 36.4944C70.9501 34.7776 73.8096 34.3528 75.1628 34.6179Z" fill="#2F2E41"/>
<path d="M62.0105 105.975C61.9211 105.37 61.6997 104.791 61.362 104.28C61.0243 103.769 60.5785 103.338 60.0559 103.018C59.5334 102.697 58.9468 102.495 58.3376 102.426C57.7283 102.356 57.1112 102.421 56.5297 102.615L47.4267 90.8315L44.9102 98.1448L53.9403 108.213C54.3319 109.167 55.0604 109.944 55.9877 110.397C56.9149 110.851 57.9765 110.949 58.9713 110.673C59.966 110.397 60.8248 109.766 61.385 108.901C61.9452 108.035 62.1677 106.994 62.0105 105.975V105.975Z" fill="#FFB6B6"/>
<path d="M56.5008 58.4243L53.3566 56.2018C53.3566 56.2018 46.1636 55.7904 45.1172 61.686L31.9277 83.3458L48.281 105.868L56.2094 97.5359L46.2054 85.8654L54.6049 70.4699L56.5008 58.4243Z" fill="#E4E4E4"/>
<path d="M133.102 61.8564H132.937V57.3455C132.937 57.0026 132.869 56.6631 132.738 56.3464C132.607 56.0296 132.414 55.7418 132.171 55.4994C131.928 55.2569 131.64 55.0646 131.323 54.9334C131.005 54.8022 130.665 54.7347 130.322 54.7347H120.748C120.405 54.7347 120.065 54.8022 119.747 54.9334C119.43 55.0646 119.142 55.2569 118.899 55.4994C118.656 55.7418 118.463 56.0296 118.332 56.3464C118.2 56.6631 118.133 57.0026 118.133 57.3455V82.0928C118.133 82.4357 118.2 82.7752 118.332 83.0919C118.463 83.4087 118.656 83.6965 118.899 83.939C119.142 84.1814 119.43 84.3737 119.747 84.5049C120.065 84.6361 120.405 84.7036 120.748 84.7036H130.322C130.665 84.7036 131.005 84.6361 131.323 84.5049C131.64 84.3737 131.928 84.1814 132.171 83.939C132.414 83.6965 132.607 83.4087 132.738 83.092C132.869 82.7752 132.937 82.4357 132.937 82.0928V65.0674H133.102V61.8564Z" fill="#3F3D56"/>
<path d="M130.428 55.4139H129.179C129.236 55.5545 129.258 55.7071 129.242 55.8582C129.227 56.0094 129.174 56.1543 129.09 56.2804C129.005 56.4065 128.89 56.5098 128.756 56.5812C128.621 56.6526 128.472 56.69 128.319 56.69H122.835C122.683 56.69 122.533 56.6526 122.399 56.5812C122.264 56.5098 122.15 56.4065 122.065 56.2804C121.98 56.1543 121.927 56.0093 121.912 55.8582C121.896 55.7071 121.918 55.5545 121.976 55.4139H120.809C120.291 55.4139 119.794 55.6193 119.428 55.9849C119.061 56.3506 118.855 56.8465 118.855 57.3636V82.0746C118.855 82.5917 119.061 83.0877 119.428 83.4533C119.794 83.819 120.291 84.0244 120.809 84.0244H130.428C130.946 84.0244 131.443 83.819 131.809 83.4533C132.176 83.0877 132.381 82.5917 132.381 82.0746V57.3636C132.381 56.8465 132.176 56.3506 131.809 55.9849C131.443 55.6193 130.946 55.4139 130.428 55.4139Z" fill="#14CC47"/>
<path d="M216.781 46.614H146.576C146.143 46.6135 145.728 46.4416 145.422 46.1361C145.116 45.8305 144.944 45.4163 144.943 44.9841V1.62986C144.944 1.19775 145.116 0.783472 145.422 0.477921C145.728 0.17237 146.143 0.000494525 146.576 0H216.781C217.214 0.000494527 217.629 0.17237 217.935 0.477921C218.241 0.783472 218.413 1.19775 218.414 1.62986V44.9841C218.413 45.4163 218.241 45.8305 217.935 46.1361C217.629 46.4416 217.214 46.6135 216.781 46.614Z" fill="white"/>
<path d="M216.781 46.614H146.576C146.143 46.6135 145.728 46.4416 145.422 46.1361C145.116 45.8305 144.944 45.4163 144.943 44.9841V1.62986C144.944 1.19775 145.116 0.783472 145.422 0.477921C145.728 0.17237 146.143 0.000494525 146.576 0H216.781C217.214 0.000494527 217.629 0.17237 217.935 0.477921C218.241 0.783472 218.413 1.19775 218.414 1.62986V44.9841C218.413 45.4163 218.241 45.8305 217.935 46.1361C217.629 46.4416 217.214 46.6135 216.781 46.614ZM146.576 0.651944C146.316 0.652228 146.067 0.755351 145.884 0.938684C145.7 1.12202 145.597 1.37059 145.596 1.62986V44.9841C145.597 45.2434 145.7 45.492 145.884 45.6753C146.067 45.8587 146.316 45.9618 146.576 45.9621H216.781C217.041 45.9618 217.29 45.8587 217.474 45.6753C217.657 45.492 217.761 45.2434 217.761 44.9841V1.62986C217.761 1.37059 217.657 1.12202 217.474 0.938684C217.29 0.755351 217.041 0.652228 216.781 0.651944H146.576Z" fill="#3F3D56"/>
<path d="M202.903 14.4791H160.454C160.064 14.4791 159.69 14.3246 159.415 14.0495C159.139 13.7744 158.984 13.4013 158.984 13.0122C158.984 12.6232 159.139 12.2501 159.415 11.975C159.69 11.6999 160.064 11.5453 160.454 11.5453H202.903C203.293 11.5453 203.667 11.6999 203.942 11.975C204.218 12.2501 204.373 12.6232 204.373 13.0122C204.373 13.4013 204.218 13.7744 203.942 14.0495C203.667 14.3246 203.293 14.4791 202.903 14.4791Z" fill="#CCCCCC"/>
<path d="M202.903 24.5842H160.454C160.064 24.5842 159.69 24.4297 159.415 24.1546C159.139 23.8795 158.984 23.5064 158.984 23.1173C158.984 22.7283 159.139 22.3552 159.415 22.0801C159.69 21.805 160.064 21.6505 160.454 21.6505H202.903C203.293 21.6505 203.667 21.805 203.942 22.0801C204.218 22.3552 204.373 22.7283 204.373 23.1173C204.373 23.5064 204.218 23.8795 203.942 24.1546C203.667 24.4297 203.293 24.5842 202.903 24.5842Z" fill="#CCCCCC"/>
<path d="M199.122 40.6061C202.023 40.6061 204.374 38.2591 204.374 35.3639C204.374 32.4687 202.023 30.1217 199.122 30.1217C196.222 30.1217 193.871 32.4687 193.871 35.3639C193.871 38.2591 196.222 40.6061 199.122 40.6061Z" fill="#14CC47"/>
<path d="M199.265 32.8944V32.395H199.413V32.8944C199.623 32.9035 199.829 32.9537 200.019 33.0423C200.157 33.107 200.276 33.206 200.365 33.3298C200.447 33.4444 200.49 33.5817 200.49 33.7224C200.493 33.8253 200.458 33.9257 200.393 34.005C200.364 34.0411 200.328 34.0703 200.287 34.0902C200.245 34.1101 200.2 34.1203 200.154 34.12C200.12 34.1207 200.086 34.1143 200.054 34.1013C200.022 34.0883 199.994 34.069 199.97 34.0444C199.945 34.0201 199.925 33.9908 199.912 33.9586C199.899 33.9264 199.893 33.8919 199.894 33.8572C199.894 33.8085 199.904 33.7604 199.924 33.7159L199.983 33.591C200.004 33.5388 200.014 33.4829 200.013 33.4267C200.014 33.3396 199.986 33.2546 199.934 33.1853C199.876 33.1126 199.798 33.0583 199.71 33.0291C199.614 32.9977 199.514 32.9778 199.414 32.97V34.7673L199.446 34.787C199.756 34.9505 200.037 35.1624 200.279 35.4146C200.386 35.5413 200.472 35.6852 200.531 35.8401C200.59 35.9904 200.621 36.1502 200.621 36.3116C200.624 36.5205 200.57 36.7262 200.463 36.9063C200.36 37.0822 200.208 37.2247 200.026 37.3171C199.833 37.4112 199.626 37.4712 199.414 37.4945V38.0301H199.265V37.5044C199.051 37.5026 198.838 37.4591 198.64 37.3762C198.442 37.3028 198.268 37.178 198.135 37.0148C198.018 36.8684 197.954 36.6863 197.955 36.4989C197.951 36.3673 197.992 36.2381 198.071 36.1325C198.102 36.0869 198.143 36.0495 198.192 36.0235C198.241 35.9975 198.295 35.9836 198.35 35.983C198.383 35.9819 198.416 35.9875 198.447 35.9996C198.478 36.0117 198.506 36.0301 198.53 36.0534C198.553 36.0768 198.571 36.1047 198.584 36.1355C198.596 36.1662 198.602 36.1992 198.601 36.2322C198.589 36.3334 198.547 36.4285 198.479 36.5043C198.443 36.5512 198.413 36.6018 198.388 36.6551C198.371 36.6968 198.363 36.7414 198.364 36.7863C198.364 36.9061 198.405 37.0222 198.48 37.1157C198.562 37.2204 198.671 37.3013 198.795 37.35C198.936 37.4051 199.087 37.4319 199.239 37.4288H199.265V35.2832L199.078 35.1747C198.9 35.0718 198.765 34.9864 198.671 34.9184C198.58 34.8525 198.496 34.7776 198.419 34.695C198.23 34.4939 198.126 34.2282 198.127 33.9524C198.126 33.7807 198.169 33.6117 198.252 33.4612C198.333 33.3111 198.452 33.1848 198.597 33.0948C198.8 32.9731 199.029 32.9041 199.265 32.8944ZM199.265 32.9667C199.138 32.9706 199.012 32.9985 198.895 33.0487C198.778 33.1066 198.682 33.1995 198.62 33.3143C198.549 33.4393 198.513 33.5807 198.515 33.7242C198.514 33.8992 198.567 34.0702 198.669 34.2129C198.723 34.2905 198.787 34.3601 198.861 34.4196C198.979 34.5081 199.104 34.5891 199.233 34.6622L199.265 34.6819V32.9667ZM199.413 37.4222C199.498 37.4151 199.582 37.3975 199.662 37.3697C199.728 37.3444 199.789 37.3089 199.843 37.2645C199.944 37.1781 200.023 37.0681 200.072 36.9442C200.129 36.8073 200.158 36.6604 200.157 36.5121C200.144 36.274 200.069 36.0436 199.938 35.8441C199.807 35.6445 199.627 35.4828 199.413 35.3752V37.4222Z" fill="white"/>
<path d="M167.285 196H24.3751C24.2756 196 24.1802 195.961 24.1099 195.89C24.0395 195.82 24 195.725 24 195.626C24 195.526 24.0395 195.431 24.1099 195.361C24.1802 195.291 24.2756 195.251 24.3751 195.251H167.285C167.384 195.251 167.48 195.291 167.55 195.361C167.62 195.431 167.66 195.526 167.66 195.626C167.66 195.725 167.62 195.82 167.55 195.89C167.48 195.961 167.384 196 167.285 196Z" fill="#CACACA"/>
</g>
<defs>
<clipPath id="clip0_182_7804">
<rect width="315" height="196" fill="white"/>
</clipPath>
</defs>
</svg>
