<svg width="456" height="295" viewBox="0 0 456 295" fill="none" xmlns="http://www.w3.org/2000/svg">
<path d="M456 291.488H0V294.82H456V291.488Z" fill="#85848B"/>
<path d="M361.271 232.649C361.271 235.212 346.33 242.685 328.582 242.685C310.835 242.685 297.006 235.212 297.006 232.649C297.006 230.085 311.391 230.911 329.156 230.911C346.921 230.911 361.271 230.081 361.271 232.649Z" fill="#504F60"/>
<path opacity="0.2" d="M361.271 232.649C361.271 235.212 346.33 242.685 328.582 242.685C310.835 242.685 297.006 235.212 297.006 232.649" fill="black"/>
<path d="M182.539 185.614C185.419 185.983 188.409 186.218 191.167 185.323C191.602 185.188 192.08 184.889 192.036 184.454C192.005 184.296 191.938 184.148 191.841 184.02C190.801 182.46 189.927 180.796 189.234 179.054C189.207 178.963 189.15 178.884 189.073 178.828C188.983 178.795 188.885 178.795 188.795 178.828C187.522 179.162 186.423 179.984 185.159 180.335C184.514 180.512 183.841 180.562 183.178 180.483C182.604 180.418 181.822 179.944 181.301 180.005C181.596 181.904 182.317 183.676 182.539 185.614Z" fill="#14CC47"/>
<path d="M237.014 180.805C238.913 179.501 240.881 178.133 242.002 176.121C242.082 176.001 242.129 175.861 242.137 175.717C242.118 175.575 242.062 175.44 241.976 175.326C240.908 173.629 239.534 172.145 237.922 170.951C237.082 171.545 236.322 172.246 235.663 173.036C235.185 173.54 233.865 174.34 233.852 175.109C233.852 175.543 234.356 176.047 234.59 176.412C234.907 176.881 235.207 177.359 235.494 177.846C235.659 178.085 237.167 180.709 237.014 180.805Z" fill="#14CC47"/>
<path d="M193.83 191.432C193.864 191.879 193.741 192.325 193.482 192.692C193.279 192.896 193.028 193.045 192.752 193.126C188.725 194.568 184.063 192.77 180.044 194.19C179.219 194.481 178.437 194.903 177.607 195.181C176.618 195.478 175.597 195.659 174.566 195.72C173.145 195.854 171.716 195.941 170.291 195.98C169.208 196.057 168.12 195.962 167.067 195.698C166.541 195.563 166.048 195.319 165.622 194.981C165.197 194.644 164.846 194.22 164.595 193.739C164.377 193.307 164.333 192.807 164.473 192.344C164.536 192.185 164.626 192.038 164.738 191.909C165.011 191.604 165.331 191.344 165.686 191.14L167.167 190.185C167.862 189.693 168.617 189.293 169.413 188.994C170 188.803 170.621 188.721 171.216 188.56C173.297 187.952 174.887 186.301 176.365 184.715L178.38 182.564C178.569 182.328 178.808 182.136 179.08 182.004C179.36 181.911 179.657 181.882 179.949 181.921C181.907 182.061 183.798 182.695 185.445 183.763C185.866 184.079 186.32 184.347 186.8 184.563C187.982 185.023 189.498 184.676 190.589 184.094C191.106 183.816 190.993 183.659 191.21 183.164C191.427 182.669 191.957 182.351 192.418 182.803C192.557 182.959 192.655 183.147 192.705 183.351C193.139 184.784 192.974 186.327 192.974 187.83C192.961 188.065 192.991 188.3 193.061 188.525C193.172 188.752 193.304 188.967 193.456 189.168C193.487 189.221 193.515 189.276 193.539 189.333C193.805 189.999 193.904 190.719 193.83 191.432Z" fill="#514E7F"/>
<path d="M193.83 191.432C193.864 191.879 193.741 192.325 193.482 192.691C193.279 192.895 193.028 193.045 192.752 193.126C188.725 194.568 184.063 192.77 180.044 194.19C179.219 194.481 178.437 194.903 177.607 195.181C176.618 195.478 175.597 195.659 174.566 195.72C173.145 195.854 171.716 195.941 170.291 195.98C169.208 196.057 168.12 195.962 167.067 195.698C166.541 195.563 166.048 195.319 165.622 194.981C165.197 194.644 164.846 194.22 164.595 193.739C164.377 193.307 164.333 192.807 164.473 192.344C164.536 192.185 164.626 192.038 164.738 191.909C164.973 192.4 165.142 193.052 165.29 193.287C165.49 193.634 165.761 193.935 166.086 194.17C166.411 194.404 166.783 194.567 167.176 194.647C167.764 194.683 168.353 194.607 168.914 194.425C172.563 193.521 176.443 193.508 179.949 192.14C181.152 191.666 182.299 191.036 183.564 190.749C184.828 190.463 186.17 190.541 187.474 190.432C189.533 190.267 191.527 189.646 193.556 189.32C193.818 189.991 193.912 190.716 193.83 191.432Z" fill="#464353"/>
<path d="M246.238 180.54C246.047 182.069 245.078 183.385 244.014 184.502C242.95 185.619 241.746 186.622 240.899 187.908C239.856 189.503 239.387 191.479 238.032 192.826C237.511 193.316 236.927 193.733 236.294 194.064C235.585 194.483 234.835 194.828 234.056 195.094C232.032 195.741 229.851 195.594 227.735 195.437C227.048 195.431 226.368 195.3 225.728 195.051C225.436 194.903 225.157 194.731 224.893 194.538C224.363 194.211 223.917 193.765 223.59 193.235C223.43 192.946 223.385 192.608 223.464 192.288C223.585 191.935 223.793 191.618 224.068 191.366C224.544 190.871 225.055 190.411 225.597 189.989C226.341 189.509 227.011 188.924 227.587 188.251C227.94 187.72 228.2 187.132 228.356 186.514C228.664 185.429 228.852 184.315 228.917 183.19C228.914 182.442 228.991 181.697 229.147 180.965C229.468 179.819 230.32 178.793 230.224 177.607C230.186 177.437 230.201 177.26 230.268 177.099C230.369 176.973 230.51 176.886 230.667 176.851C231.331 176.587 232.032 176.424 232.744 176.369C233.102 176.344 233.46 176.399 233.794 176.53C234.127 176.661 234.428 176.864 234.673 177.125C234.969 177.481 235.164 177.994 235.599 178.133C235.814 178.192 236.04 178.2 236.259 178.159C237.328 178.05 238.457 177.916 239.3 177.225C239.69 176.875 240.003 176.449 240.22 175.973C240.436 175.497 240.552 174.981 240.56 174.457C240.56 174.062 240.382 173.649 240.995 173.588C241.455 173.528 241.82 174.023 242.055 174.327C242.902 175.461 243.771 176.647 244.088 178.029C244.211 177.981 244.342 177.956 244.475 177.955C244.746 177.952 245.013 178.015 245.254 178.139C245.496 178.262 245.704 178.442 245.86 178.663C246.206 179.223 246.341 179.889 246.238 180.54Z" fill="#514E7F"/>
<path d="M246.238 180.54C246.047 182.069 245.078 183.385 244.014 184.502C242.949 185.619 241.746 186.622 240.899 187.908C239.856 189.503 239.387 191.479 238.031 192.826C237.511 193.316 236.926 193.733 236.293 194.064C235.585 194.483 234.835 194.828 234.056 195.094C232.031 195.741 229.85 195.594 227.735 195.437C227.048 195.431 226.368 195.3 225.727 195.051C225.436 194.903 225.157 194.731 224.893 194.538C224.363 194.211 223.916 193.765 223.59 193.235C223.997 193.039 224.441 192.932 224.893 192.922C225.832 192.974 226.518 193.86 227.417 194.134C228.699 194.521 229.976 193.617 231.275 193.308C232.123 193.109 233.013 193.161 233.852 192.874C234.551 192.604 235.196 192.213 235.759 191.718C236.531 191.167 237.217 190.505 237.797 189.755C238.278 189.004 238.679 188.204 238.991 187.369C239.677 185.769 240.485 184.224 241.407 182.747C241.543 182.513 241.708 182.297 241.898 182.104C242.102 181.917 242.332 181.787 242.563 181.621C243.432 180.965 243.792 179.884 244.096 178.824C244.179 178.501 244.294 178.188 244.44 177.889C244.711 177.887 244.978 177.95 245.219 178.074C245.461 178.197 245.669 178.377 245.826 178.598C246.199 179.171 246.346 179.864 246.238 180.54Z" fill="#464353"/>
<path d="M155.134 45.0839C156.215 45.8942 157.105 46.9325 157.741 48.1251C158.349 49.3155 161.855 58.5521 161.651 59.8946C162.794 58.7433 167.299 58.5565 168.455 57.4052C168.937 56.9229 171.539 54.516 171.93 53.9555C172.321 53.3951 175.223 52.2177 175.541 51.6268C176.727 49.5023 167.129 41.4518 168.359 39.3534C168.427 39.2569 168.462 39.1411 168.459 39.0232C168.431 38.9241 168.375 38.8352 168.298 38.7668C167.512 37.9631 166.469 37.4635 165.522 36.8683C164.575 36.273 163.662 35.4432 163.406 34.3484C162.503 34.7641 161.674 35.3248 160.951 36.008C159.19 37.517 157.46 39.0565 155.76 40.6263C155.095 41.2433 153.809 42.0644 153.5 42.9463C153.136 43.8935 154.5 44.5669 155.134 45.0839Z" fill="#A1616A"/>
<path d="M170.675 41.6646C169.203 42.654 167.827 43.7799 166.565 45.0273C165.375 46.2046 164.245 47.5689 163.959 49.2155C163.837 49.8628 163.854 50.5188 163.754 51.1749C163.32 54.0206 160.861 56.106 159.775 58.7692C159.46 59.5912 159.229 60.4427 159.084 61.3108C158.779 62.9565 158.612 64.6248 158.584 66.2984C158.558 67.9189 160.148 69.0355 160.731 70.5474C161.313 72.0593 161.469 73.6147 161.765 75.1657C162.321 78.094 163.342 80.918 164.371 83.7246C166.513 89.6419 173.456 105.999 175.598 111.921C182.162 110.274 199.636 106.49 205.449 103.019C207.387 101.863 192.003 88.8251 194.075 87.9258C194.194 87.9073 194.306 87.8616 194.404 87.7922C194.502 87.7228 194.582 87.6316 194.639 87.5259C194.695 87.4201 194.726 87.3027 194.729 87.1828C194.733 87.063 194.708 86.944 194.657 86.8353C192.585 77.7725 186.103 70.3258 183.162 61.502C182.141 58.439 180.307 55.8236 178.917 52.9127C177.657 50.2755 176.984 47.3603 175.476 44.8535C175.192 44.337 174.82 43.8739 174.377 43.4849C174.001 43.1966 173.594 42.9504 173.165 42.7507C172.305 42.3336 171.505 42.086 170.675 41.6646Z" fill="#514E7F"/>
<path d="M155.484 44.0542C161.159 44.0542 165.759 39.4539 165.759 33.7792C165.759 28.1045 161.159 23.5043 155.484 23.5043C149.809 23.5043 145.209 28.1045 145.209 33.7792C145.209 39.4539 149.809 44.0542 155.484 44.0542Z" fill="#A1616A"/>
<path d="M165.938 38.606C166.45 38.1337 167.093 37.8277 167.782 37.7284C168.472 37.6291 169.175 37.7412 169.8 38.0499C170.495 38.4105 171.103 39.1404 170.947 39.905L176.043 39.9832C176.854 39.961 177.665 40.0354 178.459 40.2048C179.257 40.3787 179.97 40.8258 180.475 41.4691C180.535 41.5516 180.605 41.6515 180.709 41.6646C180.794 41.6659 180.877 41.6383 180.944 41.5864C181.728 41.1932 182.611 41.042 183.481 41.1519C186.235 41.33 188.781 42.7073 190.941 44.4277C191.33 44.6954 191.632 45.0716 191.81 45.5095C191.988 46.0874 191.775 46.8129 192.244 47.2257C192.244 52.0047 193.886 56.471 194.981 61.1284C195.177 61.9582 195.972 62.6924 196.523 63.3441C197.205 64.0666 197.762 64.8977 198.17 65.8032C199.1 68.2187 197.818 71.0601 198.722 73.4844C199.104 74.5097 199.843 75.3526 200.46 76.2432C201.273 77.2716 201.787 78.5043 201.946 79.8058C201.985 80.388 201.911 80.9745 201.946 81.5436C202.004 82.3264 202.15 83.1002 202.38 83.8506C202.751 85.2525 203.139 86.6529 203.544 88.0518C204.205 90.311 205.065 92.7483 207.09 93.9518C202.202 94.7816 197.049 95.594 192.392 93.8953C191.742 93.6737 191.125 93.3653 190.558 92.9786C188.877 91.7795 188.065 89.7288 187.339 87.7911C186.531 85.6188 185.71 83.4075 185.545 81.0961C185.546 80.361 185.442 79.6295 185.236 78.9238C184.763 77.6639 183.498 76.9036 182.351 76.2041C181.056 75.4944 179.883 74.5821 178.876 73.5018C178.376 72.9577 177.993 72.3168 177.751 71.6188C177.509 70.9208 177.413 70.1806 177.468 69.4439C177.555 68.7271 177.837 68.0363 177.863 67.3151C177.889 66.5939 177.568 65.7684 176.877 65.5772C173.319 64.4998 171.62 60.2855 170.83 56.6534C170.488 54.7762 170.335 52.8696 170.373 50.962L170.326 47.2561C169.835 46.8093 169.44 46.2674 169.165 45.6631C168.89 45.0589 168.741 44.405 168.727 43.7413C168.774 43.3541 168.767 42.9621 168.705 42.5769C168.533 42.1061 168.253 41.6821 167.888 41.3387C167.103 40.5325 166.445 39.6109 165.938 38.606Z" fill="#464353"/>
<path d="M154.995 50.3539C154.877 51.5008 155.138 52.6782 154.882 53.8035C154.782 54.2379 154.608 54.6724 154.482 55.0764C154.097 56.696 154.264 58.3979 154.956 59.912C155.647 61.4112 156.474 62.8437 157.428 64.1914C157.75 64.6515 158.016 65.1489 158.218 65.6729C158.383 66.2231 158.485 66.79 158.523 67.363C158.774 69.6637 159.178 71.9452 159.73 74.1927C160.217 76.139 165.743 92.7788 167.029 94.3212C167.263 94.6627 167.616 94.9032 168.02 94.9946C168.311 95.0055 168.6 94.9459 168.863 94.8208L171.469 93.8215C171.691 93.7537 171.897 93.6414 172.073 93.4914C172.318 93.2059 172.45 92.8417 172.447 92.466C172.634 90.3459 167.094 73.5888 166.391 71.5859C164.262 65.5382 161.429 59.7078 160.043 53.4472C159.656 51.7094 159.452 49.0331 158.179 47.6472C157.654 47.0737 157.832 47.317 157.202 47.6168C156.883 47.7549 156.576 47.9161 156.281 48.099C155.912 48.3554 155.605 48.6909 155.383 49.081C155.16 49.4711 155.028 49.906 154.995 50.3539Z" fill="#464353"/>
<path d="M162.905 61.828C163.605 65.5252 164.326 69.2138 165.043 72.911L175.244 70.2391C175.326 69.1703 174.757 68.1798 174.375 67.1979C173.445 64.8648 173.424 62.2668 172.672 59.8685C172.103 58.0438 171.112 56.3668 170.578 54.529C170.269 53.4603 170.113 52.3567 169.809 51.2749C169.483 50.2126 169.082 49.1745 168.61 48.1686C168.037 46.7096 167.29 45.3252 166.385 44.0455C165.082 44.5321 163.692 45.0969 162.949 46.2743C162.568 46.9377 162.35 47.6824 162.314 48.4466C162.136 50.7362 162.966 53.0388 162.692 55.3154C162.41 57.4835 162.482 59.6829 162.905 61.828Z" fill="#14CC47"/>
<path d="M175.415 111.009C175.988 113.181 175.158 115.466 174.48 117.617C173.46 120.856 172.764 124.189 172.404 127.566C172.359 128.425 172.187 129.273 171.891 130.082C171.57 130.807 171.022 131.42 170.648 132.11C169.623 133.926 169.649 136.142 169.871 138.219C170.019 139.587 170.24 140.952 170.514 142.299C170.848 143.945 171.261 145.666 170.779 147.273C171.587 147.095 172.134 148.142 172.082 148.963C172.03 149.784 171.765 150.701 172.16 151.409C173.16 151.774 173.168 153.147 173.138 154.211C173.155 156.057 173.388 157.894 173.833 159.686C175.345 166.956 176.95 174.205 178.647 181.435C182.318 182.573 186.606 183.759 190.108 182.182C190.76 181.891 191.411 181.426 191.559 180.722C191.597 180.343 191.55 179.96 191.42 179.601L189.76 173.562C189.356 172.102 188.952 170.595 189.165 169.096C189.326 167.979 189.813 166.776 189.265 165.79C189.078 165.451 188.783 165.186 188.566 164.864C187.697 163.591 188.153 161.888 188.222 160.346C188.249 160 188.226 159.651 188.153 159.312C188.034 158.915 187.868 158.535 187.658 158.178C186.286 155.515 185.627 152.543 185.746 149.55C185.798 149.168 185.745 148.779 185.594 148.424C185.489 148.278 185.394 148.124 185.312 147.964C185.247 147.685 185.279 147.392 185.403 147.134C184.905 146.756 184.455 146.319 184.065 145.831C184.306 145.681 184.509 145.478 184.661 145.238C184.812 144.998 184.906 144.727 184.937 144.445C184.968 144.163 184.935 143.877 184.839 143.61C184.744 143.343 184.589 143.101 184.386 142.902C184.563 142.867 184.727 142.783 184.859 142.659C184.992 142.536 185.087 142.379 185.135 142.205C185.183 142.03 185.182 141.846 185.132 141.673C185.082 141.499 184.985 141.343 184.851 141.221C184.638 141.073 184.356 141.008 184.204 140.787C183.969 140.465 184.16 140.018 184.351 139.674L185.364 137.845C186.12 136.485 186.289 134.804 187.101 133.501C188.266 131.602 189.026 129.486 189.778 127.392L192.702 119.324L194.67 121.032C195.325 121.533 195.875 122.159 196.286 122.874C196.566 123.581 196.743 124.324 196.812 125.081C197.533 129.46 200.287 133.257 201.308 137.572C201.534 138.532 201.686 139.54 202.238 140.361C202.436 140.613 202.613 140.88 202.768 141.16C202.912 141.587 202.987 142.035 202.99 142.485C203.081 143.368 203.361 144.22 203.811 144.985C204.26 145.75 204.869 146.408 205.596 146.917C206.565 147.582 207.769 148.038 208.294 149.089C208.4 149.415 208.546 149.726 208.729 150.015C209.198 150.579 210.21 150.644 210.41 151.353C210.523 151.748 210.315 152.222 210.536 152.569C210.662 152.73 210.829 152.854 211.018 152.93L213.847 154.342C217.01 155.923 218.626 159.555 220.959 162.201C221.765 163.063 222.478 164.006 223.088 165.016C224.096 166.819 224.561 169.083 226.264 170.23C226.721 170.467 227.138 170.777 227.498 171.147C228.032 171.85 227.836 172.837 227.884 173.723C227.932 174.609 228.61 175.665 229.453 175.396C229.157 176.469 229.157 177.602 229.453 178.676C233.153 178.486 236.682 177.057 239.471 174.618C240.297 173.897 241.092 172.976 241.1 171.881C241.113 171.692 241.071 171.503 240.979 171.338C240.812 171.124 240.592 170.958 240.34 170.856C237.694 169.422 236.899 166.098 235.561 163.4C234.392 161.019 232.663 158.969 231.217 156.757C228.071 152 225.925 146.243 221.167 143.102C220.12 142.411 218.904 141.799 218.378 140.656C218.087 140.018 218.052 139.288 217.822 138.627C217.592 137.967 217.04 137.324 216.336 137.324C216.727 136.368 216.649 135.204 216.675 134.17C216.702 133.711 216.649 133.251 216.519 132.81C216.338 132.336 216.103 131.884 215.819 131.463C214.578 129.362 213.957 126.951 214.029 124.512C214.064 123.256 214.286 121.961 213.908 120.762C213.716 120.158 213.382 119.607 213.152 119.025C212.805 117.97 212.622 116.868 212.609 115.757L212.348 111.582C212.309 110.192 212.128 108.809 211.809 107.455C210.94 104.214 210.071 90.6369 207.095 89.1076C204.119 87.5783 199.006 98.0271 195.656 98.2313C194.174 98.293 192.71 98.5756 191.311 99.0698C189.083 99.904 187.214 101.459 185.394 102.98L179.233 108.154C177.93 109.227 176.853 110.253 175.415 111.009Z" fill="#464353"/>
<path d="M145.844 22.3703C147.199 20.5195 149.528 19.5376 151.822 19.455C154.116 19.3725 156.375 20.0937 158.43 21.1147C159.037 21.4596 159.685 21.7253 160.359 21.9054C161.445 22.127 162.653 21.8315 163.635 22.3398C164.938 23.0306 165.19 24.7902 165.077 26.25C164.964 27.7098 164.691 29.3303 165.468 30.5946C165.744 30.9551 165.995 31.334 166.22 31.7285C166.554 32.4801 166.359 33.3491 166.159 34.1441C165.651 33.7097 165.364 33.0536 164.912 32.5496C164.46 32.0457 163.674 31.7068 163.113 32.0848C162.553 32.4628 162.562 33.1492 162.531 33.7661C162.501 34.3831 162.344 35.1216 161.762 35.3215C161.519 35.3768 161.265 35.358 161.033 35.2674C160.8 35.1767 160.6 35.0185 160.459 34.8132C159.464 33.5967 159.864 31.6547 158.877 30.4295C158.317 29.7344 157.383 29.3955 156.866 28.6656C156.458 28.0921 156.353 27.3622 155.997 26.7453C155.641 26.1283 154.811 25.6765 154.259 26.1023C154.071 26.2822 153.914 26.4921 153.794 26.7235C153.45 27.2164 152.95 27.5788 152.374 27.7522C151.799 27.9257 151.182 27.9 150.623 27.6794C150.196 27.4171 149.733 27.2167 149.25 27.0842C148.933 27.0683 148.619 27.1413 148.342 27.2948C148.064 27.4484 147.836 27.6764 147.681 27.9531C147.37 28.5059 147.219 29.135 147.247 29.7691C147.247 30.638 147.403 31.5634 146.908 32.2586C146.72 32.5202 146.484 32.7442 146.213 32.9189C145.487 33.3838 144.475 33.6966 143.806 33.1666C143.579 32.9554 143.411 32.6894 143.316 32.3942C143.222 32.099 143.205 31.7845 143.267 31.4809C143.398 30.8762 143.569 30.281 143.78 29.6996C144.162 28.3528 143.663 26.8365 144.08 25.5679C144.517 24.4254 145.11 23.3492 145.844 22.3703Z" fill="#464353"/>
<path d="M151.347 53.0215C151.282 53.3381 151.315 53.6671 151.443 53.9642C151.572 54.1666 151.748 54.3349 151.955 54.4552C153.416 55.3653 155.078 55.9038 156.795 56.0236C157.029 56.0276 157.258 56.0872 157.464 56.1974C157.873 56.4667 157.899 57.0663 157.747 57.5442C157.544 57.995 157.439 58.4836 157.438 58.9779C157.564 59.8859 158.642 60.2813 159.55 60.416C160.823 60.5767 162.217 60.4942 163.225 59.6991C163.908 59.0764 164.428 58.2964 164.741 57.4269C167.235 51.6964 168.108 45.3619 170.633 39.6488C170.824 39.2758 170.952 38.8734 171.011 38.4584C171.037 38.2506 171.008 38.0395 170.925 37.847C170.843 37.6544 170.71 37.4875 170.541 37.3635C170.072 37.0724 169.342 37.2375 169.025 36.7814C168.869 36.5511 168.886 36.2383 168.747 35.995C168.456 35.478 167.691 35.5605 167.17 35.2607C166.762 35.0435 166.479 34.596 166.023 34.5091C165.799 34.4965 165.575 34.5362 165.369 34.6252C165.163 34.7142 164.981 34.85 164.837 35.0218C163.355 36.4034 162.578 38.3628 161.752 40.2136C160.492 43.0506 159.016 45.787 157.338 48.3988C157.534 48.0947 156.4 45.792 155.957 45.6921C155.179 45.5357 154.184 46.8999 153.763 47.4082C152.44 49.0116 151.602 50.9588 151.347 53.0215Z" fill="#14CC47"/>
<path opacity="0.1" d="M167.133 35.6649C166.821 35.6701 166.514 35.7454 166.235 35.8853C165.956 36.0252 165.712 36.2261 165.521 36.473C165.057 37.0769 164.965 37.8763 164.848 38.6453C164.453 41.0816 163.583 43.4167 162.289 45.5185" fill="black"/>
<path opacity="0.1" d="M169.348 37.3983C168.917 37.4079 168.496 37.5295 168.127 37.7512C167.757 37.9729 167.452 38.287 167.241 38.6626C166.953 39.346 166.774 40.0701 166.711 40.8088C166.338 42.4465 165.62 43.9856 164.604 45.3229" fill="black"/>
<path d="M272.601 122.335V116.939C272.6 112.967 271.021 109.158 268.212 106.349C265.403 103.541 261.593 101.963 257.621 101.963H44.5231C40.5509 101.963 36.7413 103.541 33.9321 106.349C31.1229 109.158 29.5441 112.967 29.543 116.939V126.888L272.601 122.335Z" fill="#33323D"/>
<path d="M103.807 95.6376C103.807 95.6376 103.199 133.375 109.89 145.792C116.58 158.208 119.448 212.225 119.448 212.225C119.448 212.225 189.587 219.48 238.464 203.536C287.34 187.591 391.341 181.07 391.341 181.07L373.815 62.9445C373.815 62.9445 287.232 57.3921 237.977 80.8833C188.722 104.375 103.807 95.6376 103.807 95.6376Z" fill="#8DD070"/>
<path opacity="0.1" d="M103.807 95.6376C103.807 95.6376 103.199 133.375 109.89 145.792C116.58 158.208 119.448 212.225 119.448 212.225C119.448 212.225 189.587 219.48 238.464 203.536C287.34 187.591 391.341 181.07 391.341 181.07L373.815 62.9445C373.815 62.9445 287.232 57.3921 237.977 80.8833C188.722 104.375 103.807 95.6376 103.807 95.6376Z" fill="black"/>
<path d="M119.33 109.423C119.33 109.423 117.136 140.561 122.641 150.51C128.145 160.459 128.402 204.874 128.402 204.874C128.402 204.874 191.524 207.802 236.426 192.518C281.327 177.233 375.683 167.319 375.683 167.319L364.96 70.717C364.96 70.717 286.888 69.9133 241.322 91.4277C195.756 112.942 119.33 109.423 119.33 109.423Z" fill="#8DD070"/>
<path opacity="0.1" d="M240.627 174.831C249.608 173.712 254.944 157.189 252.544 137.927C250.145 118.664 240.919 103.955 231.938 105.074C222.957 106.193 217.621 122.715 220.02 141.978C222.419 161.241 231.645 175.949 240.627 174.831Z" fill="black"/>
<path opacity="0.2" d="M326.346 5.40027C326.346 5.40027 242.23 26.6888 202.564 64.1609C162.898 101.633 79.3945 119.376 79.3945 119.376C79.3945 119.376 90.395 155.476 100.57 165.242C110.745 175.009 130.044 225.545 130.044 225.545C130.044 225.545 199.023 210.921 240.644 180.735C282.265 150.549 379.267 112.425 379.267 112.425L326.346 5.40027Z" fill="black"/>
<path d="M78.1309 113.972C78.1309 113.972 89.127 150.075 99.2934 159.842C109.46 169.609 128.767 220.141 128.767 220.141C128.767 220.141 197.755 205.521 239.381 175.335C281.006 145.149 377.999 107.038 377.999 107.038L325.078 0C325.078 0 240.966 21.2885 201.3 58.7606C161.634 96.2328 78.1309 113.972 78.1309 113.972Z" fill="#8DD070"/>
<path opacity="0.1" d="M78.1309 113.972C78.1309 113.972 89.127 150.075 99.2934 159.842C109.46 169.609 128.767 220.141 128.767 220.141C128.767 220.141 197.755 205.521 239.381 175.335C281.006 145.149 377.999 107.038 377.999 107.038L325.078 0C325.078 0 240.966 21.2885 201.3 58.7606C161.634 96.2328 78.1309 113.972 78.1309 113.972Z" fill="black"/>
<path d="M97.1191 122.331C97.1191 122.331 104.587 152.643 112.881 160.42C121.175 168.197 135.039 210.383 135.039 210.383C135.039 210.383 196.011 193.795 234.056 165.468C272.102 137.142 358.872 98.7919 358.872 98.7919L319.028 10.11C319.028 10.11 244.479 33.2971 207.711 67.7584C170.943 102.22 97.1191 122.331 97.1191 122.331Z" fill="#8DD070"/>
<path opacity="0.1" d="M232.652 147.359C240.857 143.539 240.865 126.176 232.671 108.579C224.476 90.9817 211.182 79.8136 202.977 83.6344C194.772 87.4551 194.764 104.818 202.959 122.415C211.153 140.012 224.447 151.18 232.652 147.359Z" fill="black"/>
<path opacity="0.1" d="M278.354 127.631V277.52C278.354 279.222 278.019 280.908 277.367 282.48C276.716 284.053 275.761 285.482 274.557 286.685C273.353 287.889 271.924 288.843 270.351 289.494C268.778 290.145 267.092 290.48 265.39 290.48H42.5122C39.0758 290.478 35.7805 289.113 33.351 286.682C30.9215 284.252 29.5566 280.956 29.5566 277.52V112.521C35.9432 114.893 35.9432 114.893 42.5122 114.693H265.39C268.824 114.693 272.117 116.055 274.548 118.481C276.978 120.906 278.347 124.197 278.354 127.631Z" fill="black"/>
<path d="M278.354 129.539V279.427C278.353 282.865 276.987 286.161 274.556 288.591C272.124 291.022 268.828 292.387 265.39 292.387H42.5122C39.0758 292.386 35.7805 291.02 33.351 288.59C30.9215 286.159 29.5566 282.864 29.5566 279.427V114.424C35.9432 116.792 35.9432 116.792 42.5122 116.596H265.39C268.825 116.596 272.119 117.959 274.549 120.385C276.98 122.812 278.349 126.104 278.354 129.539Z" fill="#504F60"/>
<path opacity="0.1" d="M277.72 184.954V232.888H231.232C224.932 232.803 218.918 230.24 214.493 225.755C210.067 221.269 207.586 215.222 207.586 208.921C207.586 202.619 210.067 196.572 214.493 192.086C218.918 187.601 224.932 185.038 231.232 184.954H277.72Z" fill="black"/>
<path d="M278.354 183.676V231.619H231.867C225.567 231.534 219.553 228.972 215.127 224.486C210.702 220.001 208.221 213.953 208.221 207.652C208.221 201.351 210.702 195.303 215.127 190.818C219.553 186.332 225.567 183.77 231.867 183.685L278.354 183.676Z" fill="#33323D"/>
<path opacity="0.1" d="M234.095 218.268C239.256 218.268 243.44 214.084 243.44 208.923C243.44 203.762 239.256 199.578 234.095 199.578C228.934 199.578 224.75 203.762 224.75 208.923C224.75 214.084 228.934 218.268 234.095 218.268Z" fill="black"/>
<path d="M234.732 216.999C239.893 216.999 244.077 212.815 244.077 207.654C244.077 202.493 239.893 198.309 234.732 198.309C229.571 198.309 225.387 202.493 225.387 207.654C225.387 212.815 229.571 216.999 234.732 216.999Z" fill="#14CC47"/>
<path d="M359.046 183.264C359.415 187.265 356.387 191.149 357.269 195.068C357.46 195.906 357.821 196.697 357.951 197.544C358.316 199.873 356.93 202.076 355.605 204.022L344.222 220.723C343.766 221.457 343.221 222.131 342.597 222.73C340.425 224.668 337.158 224.468 334.299 225.046C332.29 225.453 330.392 226.292 328.738 227.505C328.669 227.564 328.625 227.647 328.615 227.738C328.606 227.828 328.631 227.919 328.686 227.991C329.158 228.635 329.784 229.149 330.507 229.489C331.229 229.828 332.025 229.981 332.822 229.933C333.122 230.329 332.822 230.906 332.388 231.189C331.775 231.623 330.937 231.728 330.815 232.762C330.772 233.122 330.845 233.488 331.023 233.804C331.482 234.507 332.195 235.004 333.013 235.19C336.954 236.394 341.211 234.278 344.161 231.397C347.111 228.517 349.227 224.88 352.121 221.948C353.724 220.327 355.544 218.937 357.195 217.364C360.488 214.227 363.047 210.413 365.519 206.594C366.262 205.443 367.01 204.261 367.322 202.927C367.635 201.593 367.488 200.247 367.839 198.956C368.3 197.262 369.538 195.915 370.568 194.494C372.588 191.714 373.935 188.312 373.67 184.888C373.405 181.465 371.28 178.08 368.048 176.916C367.046 176.514 365.941 176.447 364.898 176.725C363.573 177.133 362.596 178.228 361.692 179.275L359.52 181.773C358.978 182.321 358.55 182.971 358.26 183.685C358.121 184.043 358.087 184.434 358.164 184.811C358.242 185.188 358.425 185.534 358.694 185.809" fill="#FBBEBE"/>
<path opacity="0.05" d="M359.046 183.264C359.415 187.265 356.387 191.149 357.269 195.068C357.46 195.906 357.821 196.697 357.951 197.544C358.316 199.873 356.93 202.076 355.605 204.022L344.222 220.723C343.766 221.457 343.221 222.131 342.597 222.73C340.425 224.668 337.158 224.468 334.299 225.046C332.29 225.453 330.392 226.292 328.738 227.505C328.669 227.564 328.625 227.647 328.615 227.738C328.606 227.828 328.631 227.919 328.686 227.991C329.158 228.635 329.784 229.149 330.507 229.489C331.229 229.828 332.025 229.981 332.822 229.933C333.122 230.329 332.822 230.906 332.388 231.189C331.775 231.623 330.937 231.728 330.815 232.762C330.772 233.122 330.845 233.488 331.023 233.804C331.482 234.507 332.195 235.004 333.013 235.19C336.954 236.394 341.211 234.278 344.161 231.397C347.111 228.517 349.227 224.88 352.121 221.948C353.724 220.327 355.544 218.937 357.195 217.364C360.488 214.227 363.047 210.413 365.519 206.594C366.262 205.443 367.01 204.261 367.322 202.927C367.635 201.593 367.488 200.247 367.839 198.956C368.3 197.262 369.538 195.915 370.568 194.494C372.588 191.714 373.935 188.312 373.67 184.888C373.405 181.465 371.28 178.08 368.048 176.916C367.046 176.514 365.941 176.447 364.898 176.725C363.573 177.133 362.596 178.228 361.692 179.275L359.52 181.773C358.978 182.321 358.55 182.971 358.26 183.685C358.121 184.043 358.087 184.434 358.164 184.811C358.242 185.188 358.425 185.534 358.694 185.809" fill="black"/>
<path d="M367.661 286.274C365.176 287.79 362.078 287.882 359.189 287.53C358.724 287.473 358.173 287.438 357.886 287.799C357.451 288.32 357.964 289.102 358.494 289.506C360.198 290.786 362.2 291.61 364.311 291.9C366.197 292.168 368.099 292.294 370.003 292.278C375.216 292.369 380.43 292.456 385.561 291.709C385.865 291.686 386.161 291.6 386.43 291.457C386.761 291.225 386.991 290.875 387.073 290.48C387.425 289.141 386.747 287.708 385.722 286.778C384.696 285.848 383.38 285.331 382.094 284.832L377.576 283.072C376.515 282.659 374.817 281.564 373.665 281.651C371.502 281.808 369.455 285.223 367.661 286.274Z" fill="#3F3D56"/>
<path opacity="0.05" d="M367.661 286.274C365.176 287.79 362.078 287.882 359.189 287.53C358.724 287.473 358.173 287.438 357.886 287.799C357.451 288.32 357.964 289.102 358.494 289.506C360.198 290.786 362.2 291.61 364.311 291.9C366.197 292.168 368.099 292.294 370.003 292.278C375.216 292.369 380.43 292.456 385.561 291.709C385.865 291.686 386.161 291.6 386.43 291.457C386.761 291.225 386.991 290.875 387.073 290.48C387.425 289.141 386.747 287.708 385.722 286.778C384.696 285.848 383.38 285.331 382.094 284.832L377.576 283.072C376.515 282.659 374.817 281.564 373.665 281.651C371.502 281.808 369.455 285.223 367.661 286.274Z" fill="black"/>
<path d="M370.827 226.293C368.946 228.795 366.999 231.684 367.464 234.782C367.716 236.45 368.65 237.923 369.337 239.465C370.266 241.56 370.753 243.81 371.231 246.052C371.935 249.328 372.643 252.612 373.073 255.94C373.564 259.698 371.257 270.573 371.044 274.357C370.992 275.269 370.883 276.255 370.249 276.911C370.001 277.172 369.671 277.381 369.558 277.72C369.492 278.046 369.546 278.386 369.71 278.675C370.77 281.065 372.938 282.846 375.358 283.863C377.778 284.879 383.613 286.635 386.25 286.726C386.598 286.764 386.95 286.718 387.275 286.591C387.626 286.377 387.902 286.06 388.066 285.683C389.956 282.069 388.14 269.217 388.166 265.138C388.192 261.736 388.996 258.356 388.848 254.958C388.727 252.23 387.979 249.562 387.732 246.843C387.297 242.385 388.114 237.906 388.935 233.5C389.561 230.12 390.191 226.74 390.994 223.403C391.485 221.366 392.055 219.311 393.167 217.543C394.036 216.139 395.257 214.966 396.269 213.632C399.078 209.949 400.327 205.308 399.744 200.712C399.684 200.277 393.228 202.35 392.658 202.597C390.336 203.58 388.2 204.954 386.341 206.659C384.847 208.084 383.669 209.987 382.362 211.582C380.511 213.838 378.683 216.11 376.879 218.398C374.82 221.014 372.802 223.645 370.827 226.293Z" fill="#464353"/>
<path opacity="0.05" d="M370.827 226.141C368.946 228.643 366.999 231.537 367.464 234.63C367.716 236.303 368.65 237.775 369.337 239.318C370.266 241.408 370.753 243.662 371.231 245.9C371.935 249.18 372.643 252.465 373.073 255.788C373.564 259.551 371.257 270.421 371.044 274.205C370.992 275.117 370.883 276.108 370.249 276.764C370.001 277.02 369.671 277.229 369.558 277.568C369.492 277.894 369.546 278.234 369.71 278.523C370.77 280.917 372.938 282.694 375.358 283.737C377.778 284.78 383.613 285.688 386.25 285.775C386.598 285.813 386.95 285.767 387.275 285.64C387.627 285.429 387.903 285.113 388.066 284.736C389.956 281.121 388.14 269.096 388.166 265.012C388.192 261.606 388.996 258.23 388.848 254.828C388.727 252.1 387.979 249.432 387.732 246.717C387.297 242.255 388.114 237.775 388.935 233.37C389.561 229.994 390.191 226.614 390.994 223.273C391.485 221.236 392.055 219.181 393.167 217.412C394.036 216.009 395.257 214.836 396.269 213.502C399.079 209.819 400.328 205.178 399.744 200.581C399.684 200.147 393.228 202.219 392.658 202.467C390.337 203.453 388.201 204.829 386.341 206.533C384.847 207.954 383.669 209.857 382.362 211.452C380.511 213.708 378.683 215.982 376.879 218.273C374.82 220.868 372.802 223.49 370.827 226.141Z" fill="black"/>
<path d="M349.896 171.177C355.719 171.177 360.44 166.456 360.44 160.633C360.44 154.809 355.719 150.088 349.896 150.088C344.072 150.088 339.352 154.809 339.352 160.633C339.352 166.456 344.072 171.177 349.896 171.177Z" fill="#FBBEBE"/>
<path d="M359.393 160.19C360.367 161.743 361.644 163.085 363.148 164.135C364.652 165.184 366.352 165.92 368.147 166.298L367.352 169.187C365.979 174.149 364.437 179.397 360.605 182.838C361.039 181.157 360.483 179.362 359.536 177.902C358.589 176.443 357.259 175.296 355.956 174.162L349.887 168.905C349.711 168.762 349.564 168.588 349.452 168.392C349.302 168.021 349.302 167.607 349.452 167.236C350.226 164.83 352.433 163.326 354.231 161.701C355.134 160.861 355.94 159.923 356.634 158.904C357.846 157.174 358.598 158.912 359.393 160.19Z" fill="#FBBEBE"/>
<path d="M336.007 150.032L335.768 148.051C337.432 148.485 339.014 147.069 340.078 145.605C341.143 144.141 342.129 142.416 343.749 141.803C345.718 141.065 347.803 142.238 349.684 143.228C351.79 144.397 354.102 145.149 356.492 145.444C356.873 145.457 357.252 145.518 357.617 145.627C358.843 146.061 359.425 147.599 359.603 148.994C359.781 150.388 359.733 151.87 360.337 153.112C360.772 154.055 361.58 154.755 362.075 155.684C363.378 158.178 362.118 161.589 363.478 164.035L360.098 160.937C359.79 160.655 359.355 160.359 359.012 160.598C358.743 160.789 358.721 161.202 358.612 161.532C358.286 162.497 357.079 162.783 356.205 162.401C355.332 162.019 354.694 161.189 354.033 160.433C352.539 158.669 350.757 157.118 348.672 156.366C347.758 156.025 346.781 155.881 345.808 155.946C344.834 156.01 343.885 156.281 343.024 156.74C341.447 157.631 340.291 159.707 338.358 159.781C335.708 159.881 334.604 154.946 333.379 152.995C333.827 152.658 334.143 152.173 334.27 151.627C334.397 151.08 334.328 150.507 334.074 150.006C334.252 149.932 335.968 149.728 336.007 150.032Z" fill="#464353"/>
<path d="M205.588 88.3866C204.741 89.1402 203.957 89.9627 203.246 90.8456C202.53 91.7409 202.149 92.858 202.169 94.0042C202.172 94.3366 202.279 94.6597 202.473 94.9296C202.572 95.0587 202.709 95.1537 202.865 95.2012C203.021 95.2487 203.187 95.2464 203.342 95.1946C203.516 95.1056 203.666 94.9741 203.776 94.8123C204.235 94.2605 204.723 93.7327 205.236 93.2308C205.423 93.044 205.67 92.8485 205.922 92.918C206.035 92.9581 206.137 93.0252 206.218 93.1135C206.51 93.3662 206.723 93.6982 206.83 94.0693C206.983 94.7341 206.596 95.3988 206.157 95.9201C205.718 96.4415 205.201 96.9411 205.023 97.5972C204.956 97.7704 204.956 97.9626 205.023 98.1359C205.107 98.2612 205.224 98.3606 205.362 98.4226C205.984 98.7652 206.674 98.9668 207.383 99.0134C208.091 99.0599 208.802 98.9502 209.463 98.692C210.332 98.3401 211.106 97.7362 212.001 97.4234C212.388 97.3173 212.764 97.1717 213.121 96.9889C213.377 96.8185 213.597 96.5991 213.768 96.3433C213.939 96.0876 214.057 95.8005 214.116 95.4987C214.229 94.8957 214.251 94.2792 214.182 93.6696C214.073 91.3095 213.568 88.9844 212.687 86.7921C212.636 86.6508 212.549 86.525 212.435 86.4272C212.304 86.3475 212.154 86.3068 212.001 86.3099C210.888 86.1926 209.064 85.6235 207.99 86.0362C207.615 86.242 207.291 86.5301 207.043 86.879C206.843 87.1006 205.588 88.0955 205.588 88.3866Z" fill="#A1616A"/>
<path d="M205.234 87.4047C205.234 86.3446 203.931 83.7856 206.003 83.6162C206.003 82.4823 204.4 81.7784 204.7 80.575C204.795 80.1753 205.134 79.8494 205.173 79.441C205.304 78.281 203.209 77.6511 203.557 76.5388C203.687 76.1044 204.148 75.8524 204.248 75.4223C204.482 74.4187 202.688 73.9712 202.653 72.9415C202.653 72.5939 202.849 72.2681 202.831 71.9205C202.831 71.4861 202.453 71.1559 202.245 70.7779C201.702 69.8091 201.967 68.3102 200.976 67.8105C201.632 67.867 201.845 66.8938 201.576 66.2986C201.306 65.7034 200.755 65.1864 200.75 64.526C200.783 64.2867 200.783 64.0441 200.75 63.8048C200.568 63.1705 199.53 63.1184 199.356 62.5015C199.333 62.2647 199.326 62.0267 199.334 61.7889C199.265 61.298 198.761 60.9852 198.287 60.8462C197.795 60.7626 197.322 60.5935 196.888 60.3465C196.584 60.1163 196.232 59.7339 195.906 59.9121C195.785 59.9859 195.724 60.125 195.632 60.2292C195.241 60.6854 194.494 60.4856 194.003 60.151C192.552 59.1648 191.831 57.3966 191.522 55.6717C191.214 53.9469 191.223 52.1657 190.836 50.4582C190.718 49.9261 190.561 49.4034 190.367 48.8942C190.202 48.4597 189.672 47.7776 189.637 47.3388C189.559 46.3396 191.627 47.0217 192.413 47.1216C193.177 47.1962 193.931 47.3416 194.668 47.556C195.454 47.853 196.224 48.1909 196.975 48.5683C200.112 49.9543 203.9 50.1237 206.42 52.4524C207.25 53.2171 207.949 54.2207 209.027 54.5682C209.521 54.663 210.009 54.7892 210.487 54.9462C211.681 55.5067 211.868 57.0924 212.52 58.2394C212.725 58.5423 212.904 58.8621 213.054 59.1952C213.18 59.5881 213.239 59.9993 213.228 60.4117L213.319 63.4225C213.467 68.4666 213.615 73.5237 213.076 78.5374C212.902 80.1926 212.642 81.8957 213.133 83.4859C213.263 83.9203 213.445 84.3287 213.567 84.7675C213.674 85.282 213.73 85.806 213.732 86.3316L213.802 88.2823C213.826 88.434 213.792 88.5892 213.706 88.7167C213.633 88.7757 213.548 88.8176 213.457 88.8394C213.366 88.8613 213.272 88.8624 213.18 88.8427C210.465 88.5994 207.719 87.0701 205.156 87.9955" fill="#464353"/>
<path d="M329.152 237.293C346.898 237.293 361.285 235.214 361.285 232.649C361.285 230.084 346.898 228.004 329.152 228.004C311.406 228.004 297.02 230.084 297.02 232.649C297.02 235.214 311.406 237.293 329.152 237.293Z" fill="#504F60"/>
<path d="M356.796 232.875C356.231 230.455 355.879 228.33 355.879 228.33C355.879 228.33 356.01 225.697 354.828 223.721V223.06V218.194C355.164 217.311 355.576 216.458 356.057 215.644C356.926 214.115 356.057 208.51 356.057 208.51C356.057 208.51 352.812 200.607 353.598 195.594C354.385 190.58 346.934 173.332 346.934 173.332C346.98 171.669 347.214 170.016 347.633 168.405C347.713 168.067 347.745 167.719 347.729 167.371C347.729 167.328 347.729 167.289 347.729 167.245C347.729 167.202 347.729 167.271 347.729 167.284C347.616 163.978 345 157.783 345 157.783L345.352 145.974C345.352 145.974 347.021 139.023 344.301 129.66C343.349 126.397 342.741 123.786 342.355 121.77C342.311 121.544 342.268 121.336 342.233 121.114C347.833 120.245 352.112 119.55 352.112 119.55C352.112 119.55 348.863 105.956 346.669 103.575C344.475 101.194 342.719 93.7173 342.719 93.7173C342.719 93.7173 341.577 84.1201 343.423 81.3135C345.27 78.5069 345.53 73.667 345.53 73.667C345.53 73.667 349.74 70.6258 350.27 69.2486C350.8 67.8713 351.674 64.8301 351.674 63.2183C351.674 61.6064 351.148 60.1771 351.322 59.3081C351.496 58.4392 350.092 55.2286 350.796 53.6993C350.978 53.2295 351.072 52.7303 351.074 52.2264C351.076 52.212 351.076 52.1974 351.074 52.183C351.081 50.8447 350.957 49.509 350.705 48.1947C349.487 47.1663 348.066 46.4068 346.534 45.9659L346.443 45.6009L346.204 44.6451C346.071 44.557 345.933 44.4758 345.791 44.4018V44.0543L345.752 42.6727L346.412 39.5706C347.716 34.1746 340.508 33.3709 340.508 33.3709C340.071 32.5432 339.344 31.9058 338.466 31.5809C337.019 31.0726 338.227 39.6966 338.901 40.2701C339.409 40.7046 340.982 43.3895 341.742 44.719L341.864 44.9362C341.745 45.0432 341.634 45.1594 341.533 45.2838L341.807 47.1563L341.851 47.443C341.373 48.0362 340.985 48.6964 340.699 49.4025C340.699 49.4025 342.003 50.8449 341.755 52.4437C341.507 54.0425 342.159 56.0714 342.189 56.18C342.111 56.0888 341.186 55.0895 340.26 55.3328C339.335 55.5761 336.75 56.3538 336.75 56.3538C336.75 56.3538 334.821 56.6927 335.012 57.1185C335.203 57.5442 333.709 59.4124 333.709 59.4124L328.521 54.4943C328.469 54.3466 328.413 54.1989 328.369 54.0599C328.158 53.3508 328.012 52.6235 327.935 51.8876C328.5 51.7532 329.055 51.5775 329.594 51.3619C330.14 51.1747 330.631 50.8588 331.028 50.4408C331.554 49.8195 331.654 48.9767 331.867 48.2033C332.275 46.6914 333.17 45.3489 333.791 43.9109C334.843 41.4809 335.182 38.8017 334.769 36.1862C334.689 35.3802 334.416 34.6052 333.974 33.927C333.127 32.7627 331.589 32.2891 330.472 31.3594C329.355 30.4296 328.634 29.0089 327.331 28.3181C326.154 27.6882 324.724 27.762 323.395 27.9793C320.798 28.4074 318.304 29.3149 316.039 30.6555C315.283 31.09 314.449 31.6244 313.58 31.4636C312.833 31.3289 312.277 30.7337 311.808 30.1602C311.813 30.1365 311.82 30.1133 311.829 30.0907C311.808 30.0696 311.789 30.0463 311.773 30.0212C311.223 31.2414 310.947 32.5671 310.965 33.9053C310.965 34.1138 310.965 34.3397 310.991 34.5266V34.7438C310.991 34.8046 310.991 34.8654 310.991 34.9219C310.991 35.0145 310.978 35.1067 310.952 35.1956C310.842 35.4614 310.676 35.7001 310.465 35.8951C310.306 36.0762 310.16 36.2694 310.031 36.4729C310.031 36.4034 310.074 36.3339 310.1 36.2601C309.769 36.7438 309.582 37.3119 309.561 37.898C309.537 38.3246 309.677 38.7443 309.953 39.071C310.213 39.3236 310.496 39.5506 310.8 39.7488C310.696 40.3223 310.644 40.9038 310.643 41.4866C310.653 43.2142 311.108 44.9101 311.965 46.4102C312.822 47.9103 314.052 49.1639 315.535 50.0498C315.596 50.1932 315.653 50.3409 315.709 50.4843C316.374 52.2221 316.873 54.2641 316.652 56.1322C316.652 56.2669 316.613 56.4059 316.591 56.5406C316.569 56.6753 316.461 56.684 316.404 56.7579C316.404 56.7579 307.832 56.8447 305.816 55.02C303.801 53.1953 300.725 59.4819 300.725 59.4819C300.725 59.4819 297.653 60.0771 297.036 59.4819C296.419 58.8867 292.826 59.3994 292.826 59.3994C291.354 58.0902 289.438 57.3911 287.469 57.4443C286.276 56.5376 284.959 55.8061 283.559 55.272L283.463 55.2372C282.845 55.012 282.185 54.9288 281.53 54.9939C281.53 54.9939 277.316 51.5183 276.086 49.6414C274.857 47.7645 269.005 40.8349 268.979 40.8045V40.47L268.913 39.462C268.74 39.4893 268.564 39.5038 268.388 39.5055C268.357 39.4055 268.314 39.2882 268.27 39.1536C267.933 38.1704 267.518 37.2159 267.028 36.2992C267.028 36.2992 267.028 35.0262 267.397 34.7047C267.766 34.3832 267.245 29.7127 267.245 29.7127C267.245 29.7127 263.448 20.8367 260.046 27.4622C260.046 27.4622 253.616 31.7504 259.012 36.7466C259.012 36.7466 261.184 37.7894 261.471 38.6148C261.671 39.1492 262.401 40.6481 262.892 41.656L263.113 42.0905L263.053 42.1426L263.131 42.9768L263.166 43.2983C262.149 43.8761 261.458 44.4496 261.628 44.8797C261.927 45.6158 262.133 46.3864 262.24 47.1737C262.24 47.1737 269.704 56.5232 270.669 60.5159C270.669 60.5159 290.684 72.4114 297.266 73.2586L296.102 79.189C295.932 80.7982 295.845 82.4151 295.841 84.0332C295.928 85.3062 295.051 91.0845 295.051 91.0845C295.051 91.0845 293.908 99.5825 292.943 100.773C291.979 101.963 292.153 107.06 292.153 107.06C291.925 109.499 291.489 111.915 290.849 114.28C289.885 117.508 290.584 121.505 290.584 121.505C290.584 121.505 287.252 129.152 295.237 123.969C295.237 123.969 299.147 123.725 303.675 123.569C303.675 123.717 303.675 123.869 303.675 124.004C303.675 124.586 303.675 125.216 303.644 125.876C303.583 130.255 303.557 136.303 303.757 140.856C304.109 148.928 306.568 164.904 306.568 164.904V172.945C306.409 173.7 306.331 174.469 306.333 175.239C306.281 178.069 307.035 180.855 308.506 183.272L309.123 188.625C309.123 188.625 310.565 192.153 310.591 194.273C310.586 194.444 310.565 194.614 310.53 194.781C310.474 195.051 310.451 195.327 310.461 195.602C310.378 198.035 311.842 203.857 311.842 203.857C311.842 203.857 311.929 209.718 312.807 210.061C313.559 210.352 311.803 213.437 311.282 214.323C311.268 214.269 311.258 214.214 311.252 214.158L311.143 214.332C310.962 214.806 310.869 215.31 310.869 215.818C310.82 216.218 310.885 216.624 311.057 216.989C311.23 217.353 311.502 217.661 311.842 217.877C313.511 218.898 314.406 219.745 312.989 220.084C312.468 220.165 311.952 220.274 311.443 220.41C311.443 220.345 311.391 220.275 311.369 220.215C311.169 220.293 311.002 220.437 310.897 220.624C310.792 220.811 310.754 221.029 310.791 221.24C310.804 221.929 310.982 222.605 311.308 223.212C312.711 226.358 313.685 227.557 313.685 227.557L314.358 227.483C314.259 227.74 314.127 227.984 313.967 228.209C313.711 228.573 313.371 228.871 312.976 229.078C312.608 229.298 312.198 229.438 311.773 229.49C311.297 229.506 310.83 229.621 310.402 229.829C309.973 230.037 309.594 230.333 309.288 230.698C308.419 231.832 307.863 233.374 309.592 234.73L315.87 236.902C315.87 236.902 326.671 238.305 326.097 235.881C325.524 233.457 325.176 231.337 325.176 231.337C325.222 229.857 324.925 228.386 324.307 227.04C324.194 226.82 324.066 226.608 323.925 226.406L324.307 226.367C324.307 226.367 325.098 221.01 326.149 219.993C326.392 219.758 326.449 219.559 326.392 219.437C326.501 219.146 326.223 218.976 325.871 218.876L325.793 219.089C325.449 219.014 325.098 218.975 324.746 218.972C324.746 218.972 324.394 216.17 325.537 215.149C325.629 215.032 325.696 214.898 325.734 214.755C325.772 214.611 325.78 214.461 325.758 214.315C325.767 213.93 325.726 213.546 325.636 213.172C325.625 213.196 325.612 213.219 325.597 213.241C325.024 210.696 323.078 206.651 323.078 206.651C323.078 206.651 322.991 204.105 323.694 203.084C324.398 202.063 323.603 189.233 323.603 189.233C323.603 189.233 323.868 183.034 323.078 180.144C322.287 177.255 324.042 173.853 324.042 173.853C324.042 173.853 324.042 173.788 324.042 173.671V173.627L323.942 172.65C323.94 172.67 323.94 172.691 323.942 172.711C323.764 171.069 323.429 168.092 323.182 166.72C322.83 164.764 323.273 155.424 323.273 155.424L324.85 151.427L327.661 158.313L330.646 167.489C330.646 167.489 332.123 169.426 332.158 171.399C332.158 171.494 332.158 171.59 332.158 171.685C332.134 171.889 332.122 172.093 332.123 172.298C332.07 173.457 332.388 174.603 333.031 175.57C333.031 175.57 333.822 179.914 335.051 181.005C336.281 182.095 336.281 184.233 336.281 184.233C336.281 184.233 337.771 190.524 338.453 191.618C339.044 192.548 339.074 195.094 339.07 195.889C339.07 196.033 339.07 196.115 339.07 196.115C339.07 196.115 339.279 198.366 339.27 200.251C339.27 200.486 339.27 200.712 339.27 200.925C339.272 200.909 339.272 200.893 339.27 200.877C339.269 201.392 339.208 201.905 339.087 202.406L339.061 202.493C339.061 202.384 339.061 202.28 339.092 202.176C338.786 203.456 338.64 204.77 338.657 206.086C338.618 208.345 338.961 211.021 340.33 212.603C342.702 215.323 344.192 214.984 344.192 214.984C344.192 214.984 343.054 218.381 341.646 219.063C341.593 219.088 341.543 219.121 341.499 219.159C341.499 219.089 341.473 219.024 341.464 218.959C341.307 219.128 341.187 219.329 341.112 219.547C341.038 219.766 341.009 219.998 341.029 220.228C340.929 221.722 341.872 224.138 342.767 225.263C343.1 225.588 343.507 225.827 343.953 225.958C343.883 226.008 343.809 226.053 343.732 226.093C343.575 226.179 343.414 226.255 343.249 226.323C343.021 226.42 342.779 226.483 342.533 226.51C342.056 226.523 341.588 226.637 341.16 226.845C340.731 227.054 340.352 227.351 340.048 227.718C339.179 228.847 338.622 230.39 340.352 231.745L346.63 233.917C346.63 233.917 357.361 235.295 356.796 232.875Z" fill="url(#paint0_linear_182_5664)"/>
<path d="M315.56 236.889L309.477 234.717C307.8 233.361 308.335 231.819 309.182 230.685C309.473 230.323 309.839 230.028 310.254 229.82C310.669 229.612 311.125 229.495 311.589 229.477C312.001 229.425 312.396 229.284 312.749 229.064C313.134 228.855 313.465 228.557 313.713 228.196C314.157 227.491 314.396 226.677 314.404 225.845C314.404 225.845 321.077 223.89 322.902 225.845C323.228 226.199 323.5 226.599 323.71 227.031C324.316 228.381 324.613 229.849 324.579 231.328C324.579 231.328 324.918 233.448 325.47 235.872C326.021 238.297 315.56 236.889 315.56 236.889Z" fill="#2D293D"/>
<path d="M345.294 233.891L339.212 231.719C337.535 230.363 338.069 228.821 338.916 227.692C339.206 227.329 339.57 227.033 339.985 226.824C340.4 226.615 340.855 226.499 341.319 226.484C341.559 226.459 341.794 226.396 342.014 226.297C342.175 226.229 342.331 226.152 342.483 226.067C344.182 225.133 344.138 222.839 344.138 222.839C344.138 222.839 350.807 220.884 352.636 222.839C352.881 223.103 353.095 223.395 353.275 223.708C354.418 225.684 354.292 228.322 354.292 228.322C354.292 228.322 354.631 230.446 355.161 232.866C355.691 235.286 345.294 233.891 345.294 233.891Z" fill="#2D293D"/>
<path opacity="0.1" d="M322.907 225.841C323.233 226.195 323.505 226.594 323.715 227.027L313.723 228.187C314.166 227.483 314.406 226.669 314.413 225.836C314.413 225.836 321.082 223.886 322.907 225.841Z" fill="black"/>
<path opacity="0.1" d="M353.283 223.716V225.589C351.727 228.148 344.207 227.587 342.021 226.305C342.182 226.238 342.339 226.161 342.491 226.075C344.189 225.141 344.146 222.847 344.146 222.847C344.146 222.847 350.815 220.892 352.644 222.847C352.889 223.112 353.103 223.403 353.283 223.716Z" fill="black"/>
<path d="M354.471 215.644C354.006 216.46 353.609 217.313 353.285 218.194V224.907C351.582 227.709 342.749 226.775 341.555 225.245C340.36 223.716 339.113 219.737 340.455 219.046C341.798 218.355 342.919 214.966 342.919 214.966C342.919 214.966 341.472 215.305 339.178 212.585C336.884 209.866 337.566 203.835 337.992 202.393C338.418 200.951 337.992 196.106 337.992 196.106C337.992 196.106 338.079 192.704 337.401 191.601C336.723 190.497 335.277 184.215 335.277 184.215C335.277 184.215 335.277 182.091 334.086 180.987C332.896 179.884 332.131 175.548 332.131 175.548C331.435 174.464 331.136 173.173 331.284 171.894C331.536 169.769 329.837 167.475 329.837 167.475L326.948 158.295L324.228 151.413L322.699 155.406C322.699 155.406 322.265 164.751 322.616 166.702C322.968 168.653 323.485 173.84 323.485 173.84C323.485 173.84 321.787 177.238 322.551 180.127C323.316 183.016 323.038 189.224 323.038 189.224C323.038 189.224 323.803 202.05 323.12 203.071C322.438 204.092 322.525 206.642 322.525 206.642C322.525 206.642 326.001 214.115 324.906 215.136C323.811 216.157 324.141 218.959 324.141 218.959C324.141 218.959 326.518 218.959 325.501 219.98C324.485 221.001 323.716 226.353 323.716 226.353L313.441 227.557C313.441 227.557 312.502 226.371 311.142 223.212C309.783 220.054 311.394 220.41 312.763 220.067C314.131 219.724 313.267 218.881 311.651 217.86C310.035 216.839 310.973 214.545 310.973 214.545C310.973 214.545 313.436 210.383 312.585 210.044C311.733 209.705 311.651 203.84 311.651 203.84C311.651 203.84 309.952 196.888 310.378 195.003C310.804 193.117 309.018 188.634 309.018 188.634L308.423 183.281C306.605 180.244 305.942 176.653 306.555 173.167V164.912C306.555 164.912 304.174 148.941 303.835 140.869C303.618 135.699 303.678 128.643 303.748 124.242C303.791 121.775 303.835 120.137 303.835 120.137L340.538 116.313C340.538 116.313 340.503 118.008 341.203 121.766C341.581 123.782 342.167 126.393 343.088 129.656C345.721 139.001 344.109 145.965 344.109 145.965L343.766 157.778C343.766 157.778 346.994 165.677 346.316 168.396C345.907 170.011 345.676 171.667 345.63 173.332C345.63 173.332 352.851 190.58 352.086 195.594C351.321 200.607 354.462 208.51 354.462 208.51C354.462 208.51 355.323 214.115 354.471 215.644Z" fill="#464353"/>
<path opacity="0.05" d="M333.488 171.381L344.663 169.891C344.663 169.891 338.333 176.351 333.488 171.381Z" fill="black"/>
<path opacity="0.1" d="M343.045 158.973C343.045 158.973 343.428 162.926 341.008 164.412C341.008 164.412 345.339 163.735 343.045 158.973Z" fill="black"/>
<path opacity="0.1" d="M342.359 146.4C342.359 146.4 333.018 154.09 329.62 153.451C326.223 152.812 342.359 146.4 342.359 146.4Z" fill="black"/>
<path opacity="0.1" d="M319.634 174.987C319.634 174.987 312.54 176.599 312.327 179.449C312.114 182.299 319.634 174.987 319.634 174.987Z" fill="black"/>
<path opacity="0.05" d="M321.196 210.422C321.196 210.422 311.173 212.29 314.018 213.563C316.864 214.836 321.539 215.857 321.539 215.857C321.539 215.857 324.776 216.026 321.196 210.422Z" fill="black"/>
<g opacity="0.05">
<path opacity="0.05" d="M311.993 215.588C311.741 215.43 311.527 215.218 311.369 214.967C311.21 214.715 311.11 214.432 311.076 214.136L310.972 214.315C310.972 214.315 310.038 216.609 311.654 217.625C311.836 217.743 312.014 217.86 312.175 217.973C312.475 217.916 312.796 217.873 313.105 217.795C314.473 217.456 313.609 216.609 311.993 215.588Z" fill="black"/>
<path opacity="0.05" d="M324.905 214.906C325.183 214.654 325.174 214.002 325.005 213.168C324.57 213.824 324.444 214.849 324.436 215.627C324.541 215.357 324.701 215.111 324.905 214.906Z" fill="black"/>
<path opacity="0.05" d="M323.361 172.637C322.992 173.642 322.764 174.693 322.684 175.761C322.877 175.023 323.138 174.305 323.461 173.614L323.361 172.637Z" fill="black"/>
<path opacity="0.05" d="M346.318 168.179C346.384 167.874 346.415 167.562 346.409 167.25C346.283 167.884 346.196 168.47 346.131 168.987C346.187 168.722 346.248 168.47 346.318 168.179Z" fill="black"/>
<path opacity="0.05" d="M323.12 202.845C323.259 202.636 323.337 201.933 323.372 200.955C323.057 201.712 322.891 202.521 322.881 203.34C322.94 203.166 323.02 203 323.12 202.845Z" fill="black"/>
<path opacity="0.05" d="M325.206 218.868C324.679 220.572 324.289 222.315 324.038 224.081L313.763 225.267C313.763 225.267 312.824 224.081 311.464 220.923C311.355 220.679 311.257 220.429 311.173 220.176C310.556 220.458 310.304 221.097 311.121 222.96C312.481 226.106 313.424 227.305 313.424 227.305L323.699 226.115C323.699 226.115 324.463 220.762 325.48 219.741C326.001 219.25 325.68 218.994 325.206 218.868Z" fill="black"/>
<path opacity="0.05" d="M311.653 203.61C311.653 203.61 311.735 209.47 312.587 209.809C313.021 208.84 313.304 207.919 312.921 207.767C312.052 207.428 311.987 201.563 311.987 201.563C311.987 201.563 310.289 194.612 310.714 192.726C311.14 190.841 309.354 186.357 309.354 186.357L308.759 181.005C306.941 177.967 306.278 174.377 306.891 170.89V162.636C306.891 162.636 304.51 146.665 304.171 138.593C303.954 133.423 304.015 126.367 304.084 121.966C304.084 121.171 304.11 120.467 304.124 119.872L303.832 119.902C303.832 119.902 303.785 121.536 303.746 124.008C303.676 128.409 303.611 135.465 303.832 140.63C304.171 148.703 306.548 164.678 306.548 164.678V172.932C305.938 176.418 306.603 180.006 308.42 183.042L309.011 188.395C309.011 188.395 310.797 192.896 310.371 194.768C309.945 196.641 311.653 203.61 311.653 203.61Z" fill="black"/>
<path opacity="0.05" d="M341.898 222.978C341.063 221.769 340.507 220.391 340.269 218.942C339.221 219.889 340.425 223.564 341.572 225.024C342.758 226.553 351.595 227.487 353.302 224.681V223.065C350.987 225.337 343.019 224.425 341.898 222.978Z" fill="black"/>
<path opacity="0.05" d="M354.81 213.376C354.344 214.192 353.945 215.045 353.619 215.926V217.13C353.815 216.695 354.088 216.113 354.488 215.427C354.757 214.758 354.884 214.04 354.862 213.32C354.862 213.32 354.823 213.359 354.81 213.376Z" fill="black"/>
<path opacity="0.05" d="M342.421 214.719C342.744 214.064 343.025 213.389 343.26 212.698C343.26 212.698 341.813 213.037 339.519 210.318C337.851 208.341 337.755 204.605 337.994 202.163C337.56 203.61 336.886 209.64 339.18 212.36C340.679 214.137 341.813 214.606 342.421 214.719Z" fill="black"/>
<path opacity="0.05" d="M337.991 195.876C338.14 197.55 338.197 199.231 338.16 200.911C338.203 200.646 338.261 200.384 338.334 200.125C338.768 198.678 338.334 193.838 338.334 193.838C338.334 193.838 338.421 190.437 337.739 189.333C337.057 188.23 335.636 181.939 335.636 181.939C335.636 181.939 335.636 179.814 334.445 178.711C333.255 177.607 332.49 173.271 332.49 173.271C331.788 172.19 331.481 170.899 331.621 169.617C331.878 167.493 330.179 165.199 330.179 165.199L327.29 156.023L324.57 149.141L323.037 153.138C323.037 153.138 323.037 153.642 322.984 154.442L324.227 151.196L326.947 158.065L329.836 167.241C329.836 167.241 331.535 169.535 331.278 171.659C331.138 172.941 331.445 174.232 332.147 175.313C332.147 175.313 332.912 179.658 334.102 180.753C335.293 181.847 335.288 183.981 335.288 183.981C335.288 183.981 336.735 190.267 337.413 191.366C338.091 192.466 337.991 195.876 337.991 195.876Z" fill="black"/>
</g>
<path d="M345.127 39.5575L344.489 42.6596L344.528 44.0412L344.554 45.0578L341.009 45.4227L340.613 44.6885C339.879 43.3591 338.354 40.6567 337.863 40.2396C337.207 39.6922 336.038 31.0639 337.429 31.5765C338.285 31.9071 338.987 32.5433 339.401 33.3622C339.401 33.3622 346.383 34.1616 345.127 39.5575Z" fill="#FFCDD3"/>
<path opacity="0.1" d="M344.554 45.0579L341.009 45.4228L340.613 44.6886C341.09 44.1458 341.74 43.785 342.453 43.6677C343.166 43.5505 343.898 43.684 344.523 44.0456L344.554 45.0579Z" fill="black"/>
<path d="M345.446 46.7392L340.771 47.821L340.671 47.1259L340.406 45.2534C340.406 45.2534 342.257 42.7856 344.933 44.6364L345.168 45.5879L345.446 46.7392Z" fill="#14CC47"/>
<path d="M269.721 39.8966L264.729 42.5729L264.294 41.6344C263.821 40.6395 263.113 39.1406 262.917 38.5932C262.622 37.7677 260.541 36.725 260.541 36.725C255.327 31.7331 261.54 27.4406 261.54 27.4406C264.833 20.8151 268.491 29.6911 268.491 29.6911C268.491 29.6911 269.004 34.3703 268.643 34.6831C268.283 34.9959 268.283 36.2775 268.283 36.2775C268.759 37.1958 269.161 38.1502 269.486 39.1319C269.638 39.6055 269.721 39.8966 269.721 39.8966Z" fill="#FFCDD3"/>
<path opacity="0.1" d="M269.723 39.8964L264.731 42.5726L264.297 41.6342C265.001 41.0434 267.499 39.0275 268.32 39.11C268.712 39.1589 269.108 39.1691 269.502 39.1404C269.641 39.6053 269.723 39.8964 269.723 39.8964Z" fill="black"/>
<path d="M270.23 41.404L264.621 44.1672L264.508 42.9637L264.43 42.1296C264.43 42.1296 267.679 39.3447 268.64 39.4533C269.125 39.5236 269.618 39.5236 270.104 39.4533L270.169 40.4612L270.23 41.404Z" fill="#14CC47"/>
<path d="M331.53 60.164C331.53 60.164 307.079 62.9228 311.649 61.437C314.83 60.3986 316.094 58.3957 316.359 56.1366C316.576 54.2553 316.09 52.2264 315.451 50.4886C314.876 48.9469 314.148 47.4667 313.279 46.0701C313.279 46.0701 331.96 35.7908 328.228 45.136C327.653 46.5495 327.295 48.0423 327.168 49.5632C327.056 51.0746 327.219 52.5938 327.651 54.0468C328.355 56.4044 329.698 58.5214 331.53 60.164Z" fill="#FFCDD3"/>
<path opacity="0.1" d="M328.216 45.1228C327.64 46.5364 327.283 48.0291 327.156 49.55C325.396 51.0315 323.467 50.9316 320.987 50.9316C319.084 50.9316 316.972 51.3921 315.452 50.4754C314.877 48.9337 314.149 47.4535 313.279 46.0569C313.279 46.0569 331.957 35.7776 328.216 45.1228Z" fill="black"/>
<path d="M320.657 51.5834C326.24 51.5834 330.767 47.057 330.767 41.4735C330.767 35.89 326.24 31.3636 320.657 31.3636C315.073 31.3636 310.547 35.89 310.547 41.4735C310.547 47.057 315.073 51.5834 320.657 51.5834Z" fill="#FFCDD3"/>
<path opacity="0.1" d="M331.53 60.164C331.53 60.164 307.079 62.9228 311.649 61.4369C314.83 60.3986 316.094 58.3957 316.359 56.1365C317.575 54.8332 320.021 53.8643 321.572 53.3603C323.006 52.8781 324.555 52.8523 326.004 53.2865C326.574 53.4582 327.116 53.7098 327.616 54.0338C328.328 56.4001 329.683 58.5222 331.53 60.164Z" fill="black"/>
<path opacity="0.1" d="M345.449 46.7392L340.774 47.821L340.674 47.1258C341.174 46.4383 341.875 45.9217 342.679 45.6465C343.484 45.3713 344.354 45.3508 345.17 45.5878L345.449 46.7392Z" fill="black"/>
<path opacity="0.1" d="M270.23 41.404L264.621 44.1672L264.508 42.9637C266.325 41.9869 268.213 41.1489 270.156 40.4569L270.23 41.404Z" fill="black"/>
<path opacity="0.1" d="M341.205 121.774C331.729 123.286 318.261 125.215 316.123 124.564C314.346 124.025 308.681 124.081 303.75 124.251C303.793 121.783 303.837 120.145 303.837 120.145L340.54 116.322C340.54 116.322 340.505 118.016 341.205 121.774Z" fill="black"/>
<path d="M350.648 119.55C350.648 119.55 319.467 124.903 316.122 123.895C312.777 122.887 295.594 123.977 295.594 123.977C287.86 129.16 291.088 121.514 291.088 121.514C291.088 121.514 290.411 117.521 291.345 114.293C291.972 111.923 292.401 109.505 292.626 107.064C292.626 107.064 292.457 101.963 293.391 100.773C294.325 99.5824 295.433 91.0888 295.433 91.0888C295.433 91.0888 296.28 85.3105 296.198 84.0375C296.115 82.7645 296.45 79.1933 296.45 79.1933L297.557 73.2455C291.184 72.3983 271.811 60.5028 271.811 60.5028C270.877 56.5101 263.657 47.1649 263.657 47.1649C263.551 46.3791 263.352 45.6088 263.061 44.871C262.553 43.5111 270.2 40.7914 270.2 40.7914C270.2 40.7914 275.891 47.7427 277.081 49.6283C278.272 51.5138 282.347 54.9808 282.347 54.9808C282.98 54.9157 283.62 54.999 284.215 55.2241L284.315 55.2545C285.681 55.7907 286.961 56.5224 288.117 57.4268C290.033 57.3814 291.891 58.0824 293.3 59.3819C293.3 59.3819 296.775 58.8692 297.379 59.4645C297.983 60.0597 300.946 59.4645 300.946 59.4645C300.946 59.4645 303.918 53.1778 305.873 55.0026C307.828 56.8273 316.122 56.7404 316.122 56.7404C317.225 55.2719 319.915 54.2205 321.596 53.6992C323.03 53.219 324.578 53.1932 326.028 53.6253C326.653 53.8119 327.241 54.1059 327.765 54.4942L332.809 59.421C332.809 59.421 334.252 57.5485 334.082 57.1271C333.913 56.7056 335.781 56.3624 335.781 56.3624C335.781 56.3624 338.245 55.5978 339.179 55.3414C340.113 55.0851 340.969 56.0974 341.047 56.1886C341.016 56.08 340.378 54.0163 340.612 52.4523C340.847 50.8882 339.591 49.4111 339.591 49.4111C342.563 42.1035 349.276 48.2206 349.276 48.2206C349.276 48.2206 350.04 52.2133 349.362 53.7426C348.685 55.2719 350.04 58.5 349.871 59.3515C349.701 60.203 350.214 61.6454 350.214 63.2616C350.214 64.8778 349.345 67.9321 348.854 69.2919C348.363 70.6518 344.266 73.7104 344.266 73.7104C344.266 73.7104 344.01 78.5546 342.224 81.3569C340.439 84.1591 341.56 93.7433 341.56 93.7433C341.56 93.7433 343.258 101.22 345.383 103.601C347.507 105.982 350.648 119.55 350.648 119.55Z" fill="#3F3D56"/>
<path opacity="0.1" d="M305.194 63.6439C305.194 63.6439 304.26 60.8417 303.409 60.6027C302.563 60.2918 301.74 59.923 300.945 59.4992L301.493 58.4521C301.493 58.4521 304.682 59.3211 305.194 60.2638C305.707 61.2066 305.194 63.6439 305.194 63.6439Z" fill="black"/>
<path opacity="0.1" d="M288.116 57.4443C287.947 58.3133 280.383 59.0562 280.383 59.0562L284.206 55.2242L284.302 55.259C285.673 55.798 286.958 56.5342 288.116 57.4443Z" fill="black"/>
<path d="M266.236 46.4612C266.611 46.4612 266.914 46.1578 266.914 45.7835C266.914 45.4092 266.611 45.1057 266.236 45.1057C265.862 45.1057 265.559 45.4092 265.559 45.7835C265.559 46.1578 265.862 46.4612 266.236 46.4612Z" fill="#575988"/>
<path d="M267.105 47.821C267.48 47.821 267.783 47.5175 267.783 47.1432C267.783 46.7689 267.48 46.4655 267.105 46.4655C266.731 46.4655 266.428 46.7689 266.428 47.1432C266.428 47.5175 266.731 47.821 267.105 47.821Z" fill="#575988"/>
<path d="M267.957 49.0766C268.331 49.0766 268.635 48.7731 268.635 48.3988C268.635 48.0245 268.331 47.7211 267.957 47.7211C267.583 47.7211 267.279 48.0245 267.279 48.3988C267.279 48.7731 267.583 49.0766 267.957 49.0766Z" fill="#575988"/>
<path d="M268.848 50.4321C269.222 50.4321 269.525 50.1286 269.525 49.7543C269.525 49.38 269.222 49.0765 268.848 49.0765C268.473 49.0765 268.17 49.38 268.17 49.7543C268.17 50.1286 268.473 50.4321 268.848 50.4321Z" fill="#575988"/>
<path d="M348.937 50.2322C349.241 50.2322 349.488 49.9852 349.488 49.6804C349.488 49.3757 349.241 49.1287 348.937 49.1287C348.632 49.1287 348.385 49.3757 348.385 49.6804C348.385 49.9852 348.632 50.2322 348.937 50.2322Z" fill="#575988"/>
<path d="M349.022 51.4878C349.327 51.4878 349.574 51.2408 349.574 50.936C349.574 50.6313 349.327 50.3843 349.022 50.3843C348.718 50.3843 348.471 50.6313 348.471 50.936C348.471 51.2408 348.718 51.4878 349.022 51.4878Z" fill="#575988"/>
<path d="M349.097 52.7391C349.401 52.7391 349.648 52.4921 349.648 52.1874C349.648 51.8827 349.401 51.6356 349.097 51.6356C348.792 51.6356 348.545 51.8827 348.545 52.1874C348.545 52.4921 348.792 52.7391 349.097 52.7391Z" fill="#575988"/>
<path opacity="0.1" d="M305.225 86.6704C305.142 86.5704 324.298 110.757 339.165 96.7802C339.178 96.7846 315.687 99.9692 305.225 86.6704Z" fill="black"/>
<path opacity="0.1" d="M294.234 99.2435C294.234 99.2435 305.695 99.5563 306.895 102.854V106.286C306.568 106.467 306.201 106.562 305.828 106.562C305.455 106.562 305.088 106.467 304.761 106.286C303.606 105.66 296.676 102.141 294.234 103.836V99.2435Z" fill="black"/>
<path d="M294.445 99.2435C294.445 99.2435 305.407 99.5433 306.554 102.689V105.956C306.241 106.129 305.89 106.22 305.533 106.22C305.175 106.22 304.824 106.129 304.512 105.956C303.408 105.365 296.783 102.007 294.445 103.623V99.2435Z" fill="#3F3D56"/>
<path opacity="0.1" d="M300.49 74.3577C301.661 77.068 303.153 79.6279 304.935 81.9824C306.872 84.5849 309.22 86.8549 311.886 88.7035C311.886 88.7035 300.681 75.9304 300.49 74.3577Z" fill="black"/>
<path opacity="0.1" d="M296.74 61.0416C296.74 61.0416 298.652 69.2963 303.579 72.0986L296.74 61.0416Z" fill="black"/>
<path opacity="0.1" d="M293.807 61.8757C293.76 61.7237 292.109 68.3926 300.159 72.0986C300.159 72.0986 296.74 70.9386 293.807 61.8757Z" fill="black"/>
<path opacity="0.1" d="M343.852 56.3407C343.726 56.3407 347.823 58.9475 348.94 60.1639C348.94 60.1639 346.272 56.1669 343.852 56.3407Z" fill="black"/>
<path d="M317.926 50.6362C317.927 50.8568 317.974 51.0746 318.064 51.276C318.154 51.4773 318.285 51.6578 318.449 51.806C318.612 51.9542 318.804 52.067 319.013 52.1371C319.222 52.2072 319.444 52.2331 319.663 52.2133C322.744 52.4044 325.954 52.5391 328.787 51.3444C329.318 51.1547 329.796 50.8386 330.177 50.4233C330.681 49.802 330.781 48.9592 330.985 48.1858C331.385 46.6739 332.237 45.3314 332.849 43.8934C333.886 41.4638 334.233 38.7957 333.853 36.1817C333.773 35.3805 333.508 34.6087 333.08 33.9269C332.263 32.7582 330.773 32.2846 329.691 31.3549C328.609 30.4251 327.914 29.0045 326.65 28.3137C325.511 27.6794 324.117 27.7576 322.835 27.9748C320.314 28.4029 317.898 29.3099 315.719 30.6467C314.984 31.0812 314.181 31.6156 313.338 31.4548C312.599 31.3158 312.06 30.6945 311.6 30.1123C311.007 31.5027 310.759 33.0152 310.874 34.5221C310.906 34.7432 310.899 34.9683 310.853 35.1868C310.746 35.4511 310.585 35.6895 310.379 35.8863C309.619 36.7552 309.145 38.1672 309.897 39.0622C310.223 39.4489 310.727 39.6617 311.044 40.0571C311.613 40.7653 311.422 41.7949 311.409 42.6986C311.377 43.0142 311.457 43.3307 311.635 43.5936C311.799 43.7468 312 43.8549 312.219 43.9075C312.437 43.96 312.666 43.9551 312.882 43.8934C313.312 43.7637 313.764 43.7209 314.211 43.7674C314.682 43.9206 315.089 44.2263 315.367 44.6363C316.77 46.4654 317.326 48.4552 317.926 50.6362Z" fill="#2D293D"/>
<g opacity="0.1">
<path opacity="0.1" d="M330.536 49.6543C330.154 50.0696 329.677 50.3857 329.146 50.5754C326.296 51.7615 323.089 51.6268 320.022 51.4443C319.693 51.4476 319.367 51.3747 319.071 51.2314C318.601 50.9577 318.423 50.3842 318.28 49.8629C317.68 47.6906 317.128 45.6964 315.703 43.8847C315.429 43.4668 315.022 43.1532 314.548 42.9941C314.101 42.9519 313.65 42.9946 313.218 43.1201C313.003 43.1824 312.775 43.1879 312.556 43.1362C312.338 43.0844 312.136 42.9771 311.971 42.8246C311.794 42.5618 311.714 42.2452 311.746 41.9296C311.746 41.0173 311.95 39.9963 311.381 39.2881C311.063 38.8928 310.559 38.6799 310.234 38.2889C310.021 38.0006 309.891 37.6601 309.856 37.3036C309.822 36.9471 309.885 36.5879 310.038 36.2643C309.495 37.1332 309.265 38.2237 309.895 38.971C310.221 39.3576 310.725 39.5705 311.042 39.9659C311.611 40.6784 311.42 41.7037 311.407 42.6074C311.373 42.9225 311.452 43.2393 311.628 43.5024C311.793 43.6563 311.995 43.7649 312.214 43.8174C312.434 43.87 312.663 43.8647 312.879 43.8022C313.31 43.6725 313.762 43.6297 314.209 43.6762C314.68 43.8293 315.087 44.1351 315.365 44.5451C316.785 46.3568 317.341 48.3466 317.941 50.5276C318.011 51.0643 318.279 51.5554 318.693 51.9048C318.99 52.0484 319.318 52.1198 319.648 52.1134C322.729 52.3045 325.939 52.4436 328.772 51.2444C329.304 51.0561 329.781 50.7398 330.162 50.3234C330.354 50.0787 330.501 49.8022 330.597 49.5066C330.601 49.5631 330.571 49.6109 330.536 49.6543Z" fill="black"/>
<path opacity="0.1" d="M310.872 34.9218C311.009 34.7736 311.114 34.5992 311.181 34.4092C311.22 34.1893 311.22 33.9643 311.181 33.7444C311.096 32.5058 311.257 31.2626 311.654 30.0863L311.598 30.0211C311.003 31.4094 310.754 32.921 310.872 34.4265C310.885 34.5914 310.885 34.757 310.872 34.9218Z" fill="black"/>
</g>
<path opacity="0.1" d="M316.119 56.7621C316.119 56.7621 328.749 58.4391 329.883 56.5405L316.119 56.7621Z" fill="black"/>
<path opacity="0.1" d="M340.674 51.5355C340.674 51.5355 347.695 51.5355 349.237 54.177L340.674 51.5355Z" fill="black"/>
<path d="M379.952 286.209C377.87 288.071 375.164 289.082 372.371 289.042C371.659 289.042 370.672 289.176 370.668 289.889C370.685 290.098 370.757 290.299 370.877 290.471C371.758 291.941 373.15 293.034 374.787 293.543C376.307 294.003 377.932 293.925 379.518 293.842L384.145 293.603C385.014 293.556 385.883 293.512 386.752 293.404C387.621 293.295 388.568 293.117 389.476 292.969C391.707 292.652 393.963 292.547 396.214 292.656C396.814 292.678 397.518 292.656 397.874 292.222C398.23 291.787 398.048 290.958 397.913 290.306C397.635 288.963 397.913 287.556 397.657 286.209C397.222 283.845 395.176 282.034 392.934 281.178C390.849 280.387 387.156 279.479 385.183 280.8C383.102 282.186 381.829 284.502 379.952 286.209Z" fill="#3F3D56"/>
<path d="M384.549 207.024C384.957 208.966 386.838 210.452 386.89 212.433C386.938 214.024 385.804 215.357 384.987 216.717C384.218 218.126 383.568 219.596 383.045 221.114C381.508 225.065 379.599 228.862 377.345 232.453C376.259 234.191 375.043 236.046 375.29 238.067C375.463 239.011 375.797 239.919 376.276 240.751L379.535 247.225C380.249 248.517 380.807 249.89 381.199 251.313C381.481 252.543 381.507 253.816 381.672 255.067C382.185 259.038 384.049 263.035 382.945 266.884C382.85 267.214 382.511 267.614 382.246 267.384C383.323 269.395 384.188 271.42 384.105 273.701C384.062 274.896 383.697 276.143 384.136 277.255C384.323 277.72 384.649 278.154 384.644 278.654C384.644 278.984 384.492 279.292 384.457 279.614C384.366 280.531 385.209 281.295 386.082 281.586C386.955 281.877 387.907 281.856 388.789 282.121C390.483 282.629 391.695 284.089 393.134 285.101C394.609 286.117 396.348 286.683 398.138 286.73C398.394 286.758 398.652 286.706 398.877 286.583C399.005 286.471 399.107 286.333 399.178 286.179C399.248 286.025 399.285 285.857 399.285 285.688C399.364 284.876 399.242 284.058 398.93 283.305C398.618 282.552 398.125 281.887 397.495 281.369C397.219 281.196 396.991 280.957 396.831 280.674C396.75 280.423 396.729 280.157 396.77 279.896C397.032 276.335 396.968 272.758 396.579 269.209C396.403 268.084 396.346 266.943 396.409 265.807C396.501 264.86 396.787 263.921 396.683 262.978C396.579 262.036 396.097 261.175 395.814 260.267C395.31 258.651 395.449 256.913 395.38 255.223C395.293 252.286 394.619 249.402 393.95 246.534C393.685 245.409 393.394 244.231 392.599 243.397C391.921 242.689 390.827 242.011 391.083 241.069C391.225 240.721 391.436 240.406 391.704 240.143C392.019 239.748 392.25 239.294 392.383 238.807C392.516 238.32 392.548 237.81 392.477 237.311C392.763 237.383 393.065 237.355 393.333 237.23C393.6 237.104 393.815 236.89 393.942 236.624C399.233 234.126 403.5 229.13 405.403 223.59C405.515 223.179 405.688 222.787 405.915 222.426C406.406 221.74 407.258 221.444 408.014 221.066C410.386 219.871 412.024 217.634 413.527 215.444C414.396 214.176 415.265 212.864 415.656 211.369C415.861 210.402 415.959 209.416 415.947 208.428L416.082 203.323C416.111 202.987 416.079 202.648 415.986 202.324C415.857 202.02 415.67 201.746 415.434 201.515C413.989 199.987 412.092 198.964 410.021 198.596C408.631 198.348 407.21 198.396 405.802 198.279C403.074 198.053 400.38 197.206 397.652 197.41C393.364 197.727 389.545 200.699 387.525 204.496C386.816 205.834 386.069 206.998 384.549 207.024Z" fill="#464353"/>
<path d="M360.74 173.832C360.798 174.62 360.692 175.411 360.427 176.156C360.093 176.869 359.254 177.425 358.52 177.134C358.742 176.634 358.155 176.065 357.608 176.126C357.338 176.188 357.088 176.314 356.879 176.494C356.669 176.674 356.506 176.903 356.404 177.16C356.041 177.889 355.92 178.715 356.057 179.519C356.231 180.518 356.808 181.478 356.656 182.482C356.535 183.316 355.922 184.146 356.248 184.919C356.459 185.272 356.725 185.591 357.034 185.862C357.464 186.391 357.674 187.064 357.621 187.743C357.568 188.422 357.257 189.055 356.752 189.511L364.972 189.676C364.672 191.049 365.289 192.453 365.993 193.673C367.964 197.03 370.686 199.884 373.946 202.012C377.205 204.14 380.913 205.484 384.779 205.938C384.57 206.06 384.391 206.227 384.254 206.427C384.117 206.627 384.027 206.855 383.989 207.094C383.951 207.333 383.967 207.577 384.035 207.809C384.103 208.042 384.222 208.256 384.384 208.436C385.053 209.101 386.187 209.019 387.025 208.588C387.864 208.158 388.52 207.446 389.284 206.894C390.634 205.938 392.281 205.494 393.929 205.643C394.958 205.743 395.957 206.077 396.992 206.129C400.033 206.29 402.64 204.1 405.568 203.205C407.701 202.549 410.121 202.549 411.911 201.216C412.684 200.642 413.319 199.699 413.093 198.77C412.906 198.235 412.61 197.746 412.224 197.332C411.194 195.998 410.586 194.395 409.847 192.878C408.384 189.876 406.369 187.176 403.908 184.919C402.05 183.295 400.082 181.803 398.017 180.453C397.518 180.084 396.985 179.763 396.427 179.493C395.706 179.176 394.906 179.023 394.254 178.624C393.29 178.016 392.734 176.942 391.991 176.078C390.362 174.175 387.859 173.302 385.852 171.807C384.505 170.803 383.315 169.483 381.707 169C380.925 168.762 380.095 168.744 379.313 168.51C377.536 167.971 376.242 166.394 374.5 165.755C373.122 165.251 371.602 165.381 370.155 165.203C368.524 165.002 366.966 164.409 365.615 163.474C365.179 163.12 364.691 162.835 364.168 162.631C361.965 161.962 361.787 166.064 361.561 167.484C361.27 169.596 360.74 171.694 360.74 173.832Z" fill="#14CC47"/>
<path d="M362.887 187.586C363.257 191.592 360.233 195.472 361.115 199.395C361.302 200.229 361.662 201.024 361.793 201.871C362.162 204.196 360.772 206.399 359.447 208.345L348.064 225.05C347.607 225.783 347.061 226.457 346.439 227.057C344.267 228.99 340.999 228.795 338.141 229.368C336.132 229.781 334.236 230.62 332.58 231.827C332.505 231.885 332.456 231.97 332.443 232.063C332.43 232.157 332.454 232.251 332.51 232.327C332.982 232.97 333.607 233.484 334.329 233.823C335.051 234.163 335.846 234.316 336.642 234.269C336.942 234.66 336.642 235.242 336.229 235.525C335.621 235.959 334.778 236.059 334.656 237.097C334.615 237.458 334.688 237.823 334.865 238.14C335.325 238.84 336.038 239.335 336.855 239.522C340.795 240.73 345.053 238.609 348.003 235.729C350.953 232.848 353.069 229.212 355.962 226.284C357.565 224.659 359.386 223.273 361.037 221.7C364.33 218.559 366.893 214.749 369.361 210.93C370.104 209.779 370.855 208.597 371.164 207.263C371.472 205.929 371.329 204.578 371.681 203.288C372.141 201.598 373.38 200.247 374.409 198.83C376.43 196.05 377.781 192.648 377.511 189.22C377.242 185.792 375.122 182.412 371.889 181.248C370.887 180.849 369.783 180.782 368.74 181.057C367.415 181.465 366.437 182.56 365.533 183.611L363.361 186.105C362.832 186.657 362.417 187.308 362.14 188.021C362 188.38 361.967 188.772 362.044 189.149C362.121 189.527 362.305 189.874 362.575 190.15" fill="#FBBEBE"/>
<path d="M368.657 171.155C367.162 171.242 365.516 171.39 364.46 172.459C364.017 172.95 363.659 173.51 363.4 174.118C362.375 176.208 361.375 178.393 361.302 180.722C361.241 182.582 361.78 184.402 362.062 186.24C362.297 187.769 361.701 189.329 361.588 190.876C363.443 190.306 365.894 189.533 367.575 188.573C368.722 187.917 369.83 187.17 371.081 186.752C372.867 186.157 375.86 187.187 377.559 188.012C377.65 186.822 376.755 184.745 376.851 183.551C376.864 183.048 376.954 182.55 377.116 182.073C377.37 181.57 377.671 181.091 378.015 180.644C378.662 179.593 378.959 178.364 378.865 177.133C378.77 175.902 378.289 174.733 377.49 173.793C375.982 172.098 373.623 171.464 371.372 171.186C369.955 171.021 368.527 170.972 367.102 171.038" fill="#14CC47"/>
<defs>
<linearGradient id="paint0_linear_182_5664" x1="306.824" y1="237.293" x2="306.824" y2="24.9902" gradientUnits="userSpaceOnUse">
<stop stop-color="#808080" stop-opacity="0.25"/>
<stop offset="0.54" stop-color="#808080" stop-opacity="0.12"/>
<stop offset="1" stop-color="#808080" stop-opacity="0.1"/>
</linearGradient>
</defs>
</svg>
