<svg width="211" height="155" viewBox="0 0 211 155" fill="none" xmlns="http://www.w3.org/2000/svg">
<g clip-path="url(#clip0_182_7590)">
<path opacity="0.2" d="M27.9236 78.5283C25.1485 79.3678 22.5511 81.4004 21.8579 84.2205C21.065 87.4614 22.8934 90.7283 23.1577 94.056C24.0112 104.959 8.52201 112.651 10.7317 123.361C11.609 127.619 15.1553 130.752 18.6496 133.34C24.2474 137.472 30.4582 141.123 37.3363 142.153C47.7758 143.72 58.6833 139.116 68.8303 142.026C77.0147 144.373 83.2775 151.251 91.4056 153.79C97.5926 155.722 104.258 154.961 110.686 154.178C114.152 153.757 117.783 153.271 120.579 151.189C125.779 147.312 126.106 139.657 129.587 134.171C134.964 125.71 146.753 124.049 156.638 125.693C166.523 127.337 176.122 131.385 186.137 131.055C188.277 130.984 190.469 130.693 192.337 129.641C194.607 128.363 196.141 126.112 197.497 123.884C205.973 109.907 210.625 93.9416 210.987 77.5933C211.045 74.7841 210.946 71.8534 209.626 69.3739C207.958 66.2371 204.624 64.3606 201.305 63.0981C193.335 60.0611 184.532 59.5643 176.722 56.139C169.19 52.8352 163.089 47.041 156.53 42.0755C143.458 32.1993 128.306 25.4423 112.23 22.3198C108.463 21.5909 104.553 21.0703 100.81 21.912C96.4964 22.8817 92.779 25.5737 89.4364 28.4719C80.5436 36.1816 73.4164 45.6939 65.2212 54.1433C59.5678 59.9702 53.4118 65.2861 46.8248 70.029C43.7919 72.2178 40.5684 74.8166 37.189 76.4349C34.0955 77.9143 31.1948 77.5412 27.9236 78.5283Z" fill="#14CC47"/>
<path d="M74.9876 48.6895C74.9876 48.6895 60.1901 68.3685 70.7761 91.3063C81.3622 114.244 52.3262 151.099 52.3262 151.099" stroke="#535461" stroke-width="2" stroke-miterlimit="10"/>
<path d="M81.6245 41.3247C80.4491 46.3892 74.8249 49.4064 74.8249 49.4064C74.8249 49.4064 71.1112 44.2116 72.2866 39.1471C73.4619 34.0826 76.498 30.4635 79.0861 31.0654C81.6742 31.6673 82.7998 36.2602 81.6245 41.3247Z" fill="#8ED16F"/>
<path d="M77.8459 40.4423C78.2154 38.8523 78.0324 37.4509 77.4372 37.3122C76.8421 37.1735 76.06 38.35 75.6905 39.94C75.321 41.53 75.504 42.9314 76.0992 43.0701C76.6943 43.2088 77.4764 42.0323 77.8459 40.4423Z" fill="#8ED16F"/>
<path opacity="0.3" d="M77.8459 40.4423C78.2154 38.8523 78.0324 37.4509 77.4372 37.3122C76.8421 37.1735 76.06 38.35 75.6905 39.94C75.321 41.53 75.504 42.9314 76.0992 43.0701C76.6943 43.2088 77.4764 42.0323 77.8459 40.4423Z" fill="black"/>
<path d="M79.0649 63.8254C74.1797 65.5889 68.5938 62.4989 68.5938 62.4989C68.5938 62.4989 70.9292 56.5526 75.8183 54.7929C80.7074 53.0332 85.3897 53.6427 86.2895 56.1194C87.1892 58.596 83.9502 62.0618 79.0649 63.8254Z" fill="#8ED16F"/>
<path d="M77.6912 59.9207C79.2236 59.3657 80.2975 58.4494 80.0897 57.8742C79.8819 57.299 78.4712 57.2827 76.9388 57.8377C75.4063 58.3928 74.3325 59.309 74.5403 59.8842C74.748 60.4594 76.1587 60.4758 77.6912 59.9207Z" fill="#8ED16F"/>
<path opacity="0.3" d="M77.6912 59.9207C79.2236 59.3657 80.2975 58.4494 80.0897 57.8742C79.8819 57.299 78.4712 57.2827 76.9388 57.8377C75.4063 58.3928 74.3325 59.309 74.5403 59.8842C74.748 60.4594 76.1587 60.4758 77.6912 59.9207Z" fill="black"/>
<path d="M77.9302 81.7562C73.0449 83.5198 67.459 80.4297 67.459 80.4297C67.459 80.4297 69.7944 74.4834 74.6835 72.7237C79.5726 70.9639 84.255 71.5735 85.1547 74.0502C86.0544 76.5268 82.8154 79.9965 77.9302 81.7562Z" fill="#8ED16F"/>
<path d="M76.6109 78.1226C78.1448 77.5696 79.2205 76.6546 79.0135 76.0788C78.8065 75.5031 77.3952 75.4846 75.8613 76.0376C74.3274 76.5906 73.2518 77.5056 73.4588 78.0814C73.6658 78.6571 75.077 78.6755 76.6109 78.1226Z" fill="#8ED16F"/>
<path opacity="0.3" d="M76.6109 78.1226C78.1448 77.5696 79.2205 76.6546 79.0135 76.0788C78.8065 75.5031 77.3952 75.4846 75.8613 76.0376C74.3274 76.5906 73.2518 77.5056 73.4588 78.0814C73.6658 78.6571 75.077 78.6755 76.6109 78.1226Z" fill="black"/>
<path d="M83.6352 102.792C78.75 104.556 73.1641 101.466 73.1641 101.466C73.1641 101.466 75.4995 95.5196 80.3886 93.7599C85.2777 92.0002 89.9601 92.6098 90.8598 95.0864C91.7595 97.5631 88.5205 101.04 83.6352 102.792Z" fill="#8ED16F"/>
<path d="M82.3199 99.168C83.8538 98.615 84.9294 97.7 84.7224 97.1243C84.5154 96.5486 83.1042 96.5301 81.5703 97.0831C80.0364 97.6361 78.9608 98.5511 79.1678 99.1268C79.3748 99.7026 80.786 99.721 82.3199 99.168Z" fill="#8ED16F"/>
<path opacity="0.3" d="M82.3199 99.168C83.8538 98.615 84.9294 97.7 84.7224 97.1243C84.5154 96.5486 83.1042 96.5301 81.5703 97.0831C80.0364 97.6361 78.9608 98.5511 79.1678 99.1268C79.3748 99.7026 80.786 99.721 82.3199 99.168Z" fill="black"/>
<path d="M79.9243 122.031C75.039 123.794 69.4531 120.704 69.4531 120.704C69.4531 120.704 71.7886 114.758 76.6777 112.998C81.5668 111.238 86.2491 111.848 87.1489 114.325C88.0486 116.801 84.8134 120.271 79.9243 122.031Z" fill="#8ED16F"/>
<path d="M78.617 118.079C80.1494 117.524 81.2233 116.608 81.0155 116.033C80.8077 115.458 79.397 115.441 77.8646 115.996C76.3321 116.551 75.2583 117.468 75.466 118.043C75.6738 118.618 77.0845 118.634 78.617 118.079Z" fill="#8ED16F"/>
<path opacity="0.3" d="M78.617 118.079C80.1494 117.524 81.2233 116.608 81.0155 116.033C80.8077 115.458 79.397 115.441 77.8646 115.996C76.3321 116.551 75.2583 117.468 75.466 118.043C75.6738 118.618 77.0845 118.634 78.617 118.079Z" fill="black"/>
<path d="M57.0093 68.9206C60.6158 72.6624 66.9904 72.371 66.9904 72.371C66.9904 72.371 67.515 66.003 63.9084 62.2612C60.3019 58.5194 55.8339 56.9782 53.9273 58.8108C52.0206 60.6434 53.4028 65.1788 57.0093 68.9206Z" fill="#8ED16F"/>
<path d="M62.6444 67.5928C63.0841 67.1678 62.5226 65.8711 61.3903 64.6966C60.2581 63.5221 58.9838 62.9145 58.5441 63.3395C58.1045 63.7645 58.6659 65.0611 59.7982 66.2356C60.9305 67.4102 62.2048 68.0178 62.6444 67.5928Z" fill="#8ED16F"/>
<path opacity="0.3" d="M62.6444 67.5928C63.0841 67.1678 62.5226 65.8711 61.3903 64.6966C60.2581 63.5221 58.9838 62.9145 58.5441 63.3395C58.1045 63.7645 58.6659 65.0611 59.7982 66.2356C60.9305 67.4102 62.2048 68.0178 62.6444 67.5928Z" fill="black"/>
<path d="M54.939 128.341C58.5455 132.083 64.9201 131.792 64.9201 131.792C64.9201 131.792 65.4446 125.424 61.8381 121.682C58.2316 117.94 53.7636 116.399 51.857 118.231C49.9503 120.064 51.3324 124.599 54.939 128.341Z" fill="#8ED16F"/>
<path d="M60.5702 127.018C61.0098 126.593 60.4483 125.297 59.3161 124.122C58.1838 122.948 56.9095 122.34 56.4699 122.765C56.0302 123.19 56.5917 124.487 57.724 125.661C58.8562 126.836 60.1305 127.443 60.5702 127.018Z" fill="#8ED16F"/>
<path opacity="0.3" d="M60.5702 127.018C61.0098 126.593 60.4483 125.297 59.3161 124.122C58.1838 122.948 56.9095 122.34 56.4699 122.765C56.0302 123.19 56.5917 124.487 57.724 125.661C58.8562 126.836 60.1305 127.443 60.5702 127.018Z" fill="black"/>
<path d="M59.7195 89.9223C64.3675 92.2456 70.275 89.8303 70.275 89.8303C70.275 89.8303 68.6478 83.654 64.0037 81.3307C59.3597 79.0074 54.6313 79.0304 53.4483 81.4227C52.2653 83.815 55.0716 87.599 59.7195 89.9223Z" fill="#8ED16F"/>
<path d="M64.5773 86.7761C64.8501 86.2285 63.8888 85.1938 62.4301 84.4649C60.9714 83.7359 59.5677 83.5889 59.2948 84.1364C59.022 84.684 59.9833 85.7187 61.442 86.4476C62.9007 87.1766 64.3044 87.3236 64.5773 86.7761Z" fill="#8ED16F"/>
<path opacity="0.3" d="M64.5773 86.7761C64.8501 86.2285 63.8888 85.1938 62.4301 84.4649C60.9714 83.7359 59.5677 83.5889 59.2948 84.1364C59.022 84.684 59.9833 85.7187 61.442 86.4476C62.9007 87.1766 64.3044 87.3236 64.5773 86.7761Z" fill="black"/>
<path d="M61.6695 110.843C66.3174 113.167 72.225 110.751 72.225 110.751C72.225 110.751 70.5978 104.575 65.9537 102.252C61.3097 99.9285 56.5814 99.9515 55.3983 102.344C54.2153 104.736 57.0408 108.543 61.6695 110.843Z" fill="#8ED16F"/>
<path d="M66.5285 107.7C66.8013 107.152 65.84 106.118 64.3813 105.389C62.9226 104.66 61.5189 104.513 61.246 105.06C60.9731 105.608 61.9345 106.643 63.3932 107.372C64.8519 108.101 66.2556 108.248 66.5285 107.7Z" fill="#8ED16F"/>
<path opacity="0.3" d="M66.5285 107.7C66.8013 107.152 65.84 106.118 64.3813 105.389C62.9226 104.66 61.5189 104.513 61.246 105.06C60.9731 105.608 61.9345 106.643 63.3932 107.372C64.8519 108.101 66.2556 108.248 66.5285 107.7Z" fill="black"/>
<path d="M140.14 72.0924C140.14 72.0924 152.273 85.5449 143.593 101.225C134.913 116.905 158.721 142.099 158.721 142.099" stroke="#535461" stroke-width="2" stroke-miterlimit="10"/>
<path d="M134.698 67.0579C135.662 70.52 140.273 72.5825 140.273 72.5825C140.273 72.5825 143.318 69.0314 142.354 65.5693C141.391 62.1073 138.901 59.6333 136.779 60.0447C134.657 60.4562 133.734 63.5959 134.698 67.0579Z" fill="#8ED16F"/>
<path d="M137.794 66.4547C137.491 65.3678 137.641 64.4098 138.129 64.315C138.617 64.2202 139.258 65.0245 139.561 66.1114C139.864 67.1983 139.714 68.1563 139.226 68.2511C138.738 68.3459 138.097 67.5416 137.794 66.4547Z" fill="#8ED16F"/>
<path opacity="0.3" d="M137.794 66.4547C137.491 65.3678 137.641 64.4098 138.129 64.315C138.617 64.2202 139.258 65.0245 139.561 66.1114C139.864 67.1983 139.714 68.1563 139.226 68.2511C138.738 68.3459 138.097 67.5416 137.794 66.4547Z" fill="black"/>
<path d="M136.795 82.4392C140.801 83.6448 145.381 81.5324 145.381 81.5324C145.381 81.5324 143.466 77.4676 139.457 76.2647C135.448 75.0617 131.609 75.4784 130.871 77.1714C130.134 78.8645 132.789 81.2337 136.795 82.4392Z" fill="#8ED16F"/>
<path d="M137.92 79.7701C136.664 79.3906 135.783 78.7643 135.954 78.3711C136.124 77.9779 137.281 77.9667 138.537 78.3461C139.794 78.7256 140.674 79.3519 140.504 79.7451C140.334 80.1383 139.177 80.1495 137.92 79.7701Z" fill="#8ED16F"/>
<path opacity="0.3" d="M137.92 79.7701C136.664 79.3906 135.783 78.7643 135.954 78.3711C136.124 77.9779 137.281 77.9667 138.537 78.3461C139.794 78.7256 140.674 79.3519 140.504 79.7451C140.334 80.1383 139.177 80.1495 137.92 79.7701Z" fill="black"/>
<path d="M137.727 94.6966C141.732 95.9021 146.312 93.7898 146.312 93.7898C146.312 93.7898 144.398 89.7249 140.389 88.522C136.38 87.319 132.541 87.7357 131.803 89.4288C131.065 91.1218 133.721 93.4936 137.727 94.6966Z" fill="#8ED16F"/>
<path d="M138.807 92.2127C137.55 91.8346 136.668 91.2091 136.837 90.8156C137.007 90.422 138.164 90.4094 139.422 90.7874C140.68 91.1654 141.562 91.7909 141.392 92.1845C141.222 92.5781 140.065 92.5907 138.807 92.2127Z" fill="#8ED16F"/>
<path opacity="0.3" d="M138.807 92.2127C137.55 91.8346 136.668 91.2091 136.837 90.8156C137.007 90.422 138.164 90.4094 139.422 90.7874C140.68 91.1654 141.562 91.7909 141.392 92.1845C141.222 92.5781 140.065 92.5907 138.807 92.2127Z" fill="black"/>
<path d="M133.047 109.077C137.053 110.282 141.633 108.17 141.633 108.17C141.633 108.17 139.718 104.105 135.709 102.902C131.7 101.699 127.861 102.116 127.123 103.809C126.386 105.502 129.041 107.879 133.047 109.077Z" fill="#8ED16F"/>
<path d="M134.126 106.599C132.868 106.221 131.986 105.596 132.156 105.202C132.325 104.809 133.483 104.796 134.74 105.174C135.998 105.552 136.88 106.178 136.71 106.571C136.541 106.965 135.383 106.977 134.126 106.599Z" fill="#8ED16F"/>
<path opacity="0.3" d="M134.126 106.599C132.868 106.221 131.986 105.596 132.156 105.202C132.325 104.809 133.483 104.796 134.74 105.174C135.998 105.552 136.88 106.178 136.71 106.571C136.541 106.965 135.383 106.977 134.126 106.599Z" fill="black"/>
<path d="M136.09 122.228C140.096 123.433 144.676 121.321 144.676 121.321C144.676 121.321 142.761 117.256 138.752 116.053C134.743 114.85 130.904 115.267 130.166 116.96C129.429 118.653 132.081 121.025 136.09 122.228Z" fill="#8ED16F"/>
<path d="M137.163 119.527C135.906 119.147 135.026 118.521 135.196 118.128C135.366 117.735 136.523 117.724 137.78 118.103C139.036 118.482 139.917 119.109 139.746 119.502C139.576 119.895 138.419 119.906 137.163 119.527Z" fill="#8ED16F"/>
<path opacity="0.3" d="M137.163 119.527C135.906 119.147 135.026 118.521 135.196 118.128C135.366 117.735 136.523 117.724 137.78 118.103C139.036 118.482 139.917 119.109 139.746 119.502C139.576 119.895 138.419 119.906 137.163 119.527Z" fill="black"/>
<path d="M154.88 85.9222C151.922 88.4801 146.696 88.2809 146.696 88.2809C146.696 88.2809 146.266 83.9278 149.223 81.37C152.18 78.8121 155.843 77.7585 157.407 79.0113C158.97 80.264 157.837 83.3644 154.88 85.9222Z" fill="#8ED16F"/>
<path d="M150.259 85.0146C149.898 84.7241 150.359 83.8377 151.287 83.0348C152.215 82.2319 153.26 81.8166 153.621 82.1071C153.981 82.3976 153.521 83.284 152.592 84.0869C151.664 84.8898 150.619 85.3051 150.259 85.0146Z" fill="#8ED16F"/>
<path opacity="0.3" d="M150.259 85.0146C149.898 84.7241 150.359 83.8377 151.287 83.0348C152.215 82.2319 153.26 81.8166 153.621 82.1071C153.981 82.3976 153.521 83.284 152.592 84.0869C151.664 84.8898 150.619 85.3051 150.259 85.0146Z" fill="black"/>
<path d="M156.577 126.542C153.62 129.1 148.393 128.9 148.393 128.9C148.393 128.9 147.963 124.547 150.92 121.989C153.877 119.432 157.541 118.378 159.104 119.631C160.667 120.883 159.534 123.984 156.577 126.542Z" fill="#8ED16F"/>
<path d="M151.96 125.638C151.599 125.347 152.06 124.461 152.988 123.658C153.917 122.855 154.961 122.44 155.322 122.73C155.682 123.021 155.222 123.907 154.294 124.71C153.365 125.513 152.32 125.928 151.96 125.638Z" fill="#8ED16F"/>
<path opacity="0.3" d="M151.96 125.638C151.599 125.347 152.06 124.461 152.988 123.658C153.917 122.855 154.961 122.44 155.322 122.73C155.682 123.021 155.222 123.907 154.294 124.71C153.365 125.513 152.32 125.928 151.96 125.638Z" fill="black"/>
<path d="M152.658 100.279C148.847 101.867 144.003 100.216 144.003 100.216C144.003 100.216 145.337 95.9939 149.145 94.4057C152.953 92.8175 156.83 92.8332 157.8 94.4686C158.77 96.104 156.469 98.6907 152.658 100.279Z" fill="#8ED16F"/>
<path d="M148.674 98.1282C148.45 97.7539 149.238 97.0465 150.434 96.5482C151.63 96.0499 152.781 95.9494 153.005 96.3237C153.229 96.698 152.441 97.4053 151.244 97.9036C150.048 98.4019 148.897 98.5024 148.674 98.1282Z" fill="#8ED16F"/>
<path opacity="0.3" d="M148.674 98.1282C148.45 97.7539 149.238 97.0465 150.434 96.5482C151.63 96.0499 152.781 95.9494 153.005 96.3237C153.229 96.698 152.441 97.4053 151.244 97.9036C150.048 98.4019 148.897 98.5024 148.674 98.1282Z" fill="black"/>
<path d="M151.057 114.58C147.246 116.169 142.402 114.517 142.402 114.517C142.402 114.517 143.736 110.295 147.544 108.707C151.352 107.119 155.229 107.135 156.199 108.77C157.169 110.405 154.852 113.008 151.057 114.58Z" fill="#8ED16F"/>
<path d="M147.074 112.432C146.85 112.057 147.639 111.35 148.835 110.852C150.031 110.353 151.182 110.253 151.405 110.627C151.629 111.001 150.841 111.709 149.645 112.207C148.449 112.705 147.298 112.806 147.074 112.432Z" fill="#8ED16F"/>
<path opacity="0.3" d="M147.074 112.432C146.85 112.057 147.639 111.35 148.835 110.852C150.031 110.353 151.182 110.253 151.405 110.627C151.629 111.001 150.841 111.709 149.645 112.207C148.449 112.705 147.298 112.806 147.074 112.432Z" fill="black"/>
<g opacity="0.3">
<path opacity="0.3" d="M0 95.8782C0 95.8782 17.4497 93.095 19.0398 108.755C20.6299 124.415 52.594 126.587 52.594 126.587C52.594 126.587 52.3774 126.73 51.9939 126.986C25.6016 144.34 0.372609 138.036 4.17451 115C5.59128 106.434 5.4743 97.8327 0 95.8782Z" fill="white"/>
</g>
<path d="M27.2371 33.9429C27.2371 33.9429 42.5292 49.2559 33.8964 71.9792C25.2635 94.7024 48.6945 132.489 48.6945 132.489C48.6945 132.489 48.4432 132.452 47.9775 132.37C16.5658 126.819 0.968224 90.8476 18.4288 64.1263C24.9126 54.191 30.2526 42.5376 27.2371 33.9429Z" fill="#8ED16F"/>
<path d="M0 95.8782C0 95.8782 17.4497 93.095 19.0398 108.755C20.6299 124.415 52.594 126.587 52.594 126.587C52.594 126.587 52.3774 126.73 51.9939 126.986C25.6016 144.34 0.372609 138.036 4.17451 115C5.59128 106.434 5.4743 97.8327 0 95.8782Z" fill="#8ED16F"/>
<path d="M22.8199 95.6851C25.47 95.6851 27.6183 90.0724 27.6183 83.1488C27.6183 76.2252 25.47 70.6125 22.8199 70.6125C20.1698 70.6125 18.0215 76.2252 18.0215 83.1488C18.0215 90.0724 20.1698 95.6851 22.8199 95.6851Z" fill="#8ED16F"/>
<path opacity="0.3" d="M22.8199 95.6851C25.47 95.6851 27.6183 90.0724 27.6183 83.1488C27.6183 76.2252 25.47 70.6125 22.8199 70.6125C20.1698 70.6125 18.0215 76.2252 18.0215 83.1488C18.0215 90.0724 20.1698 95.6851 22.8199 95.6851Z" fill="black"/>
<path d="M22.3816 128.678C23.6447 127.413 22.3896 124.106 19.5783 121.291C16.7671 118.476 13.4642 117.219 12.2011 118.484C10.938 119.749 12.193 123.056 15.0043 125.871C17.8156 128.686 21.1185 129.943 22.3816 128.678Z" fill="#8ED16F"/>
<path opacity="0.3" d="M22.3816 128.678C23.6447 127.413 22.3896 124.106 19.5783 121.291C16.7671 118.476 13.4642 117.219 12.2011 118.484C10.938 119.749 12.193 123.056 15.0043 125.871C17.8156 128.686 21.1185 129.943 22.3816 128.678Z" fill="black"/>
<path d="M153.652 39.9453C153.807 40.4359 154.136 40.8526 154.577 41.1167C156.568 42.4335 160.897 42.1536 161.416 42.1536C161.527 42.1536 161.672 42.351 161.832 42.6829C162.597 44.2622 163.782 48.8914 163.862 49.9327C163.968 51.1931 165.138 57.0913 167.053 59.2888C167.112 59.3561 167.17 59.419 167.227 59.4776C169.105 61.367 171.308 59.2888 171.308 59.2888L171.624 58.189C171.535 58.6229 171.436 59.1283 171.336 59.6945C171.286 59.9787 171.236 60.2802 171.189 60.5904C170.903 62.3384 170.753 64.1058 170.74 65.877C170.736 66.5201 170.763 67.163 170.823 67.8033C170.84 67.9812 170.859 68.1569 170.883 68.3283C170.981 69.1082 171.029 69.8937 171.026 70.6798C171.009 75.3481 169.82 81.1553 169.82 81.1553L169.865 81.1401C169.837 81.2854 169.82 81.357 169.82 81.357L169.889 81.3353C169.856 81.5508 169.824 81.7713 169.794 81.9969C169.391 84.9255 169.159 88.5699 169.048 90.6741C168.991 91.784 169.041 92.8969 169.196 93.9974L171.31 108.903V115.844C171.303 116.896 171.431 117.945 171.691 118.964C172.38 121.586 171.813 130.741 171.494 135.084C171.405 136.268 171.336 137.097 171.317 137.335V137.407L171.377 137.383C171.377 137.433 171.377 137.459 171.377 137.459C171.467 137.42 171.562 137.393 171.659 137.377C170.821 138.678 169.302 140.83 168.134 141.192C167.446 141.402 166.834 141.809 166.373 142.362L166.343 142.403L166.299 142.464C166.155 142.657 166.067 142.887 166.046 143.127C166.029 143.086 166.016 143.043 166.007 142.999C165.918 143.483 166.208 143.926 167.12 144.141C167.652 144.242 168.193 144.286 168.734 144.271C171.897 144.271 177.51 143.297 178.13 142.249V138.635L178.231 138.667V138.7L178.619 138.828L179.683 135.253C180.959 134.307 179.9 117.38 179.683 113.491C179.488 109.946 181.678 95.8457 182.066 93.3618L182.014 93.2989L182.072 92.9367C182.15 92.9934 182.223 93.0573 182.289 93.1275C182.416 93.2789 182.527 93.4433 182.62 93.6178C182.804 93.9283 182.961 94.2533 183.091 94.5897C185.231 99.9348 186.195 115.22 186.195 116.591V130.964C186.19 132.383 186.387 133.795 186.78 135.158C186.976 135.875 187.128 136.604 187.235 137.34C187.28 137.628 187.319 137.915 187.356 138.188C187.393 138.461 187.43 138.774 187.458 139.03C187.458 139.097 187.473 139.162 187.48 139.223C187.486 139.284 187.48 139.281 187.48 139.312C187.538 139.878 187.568 140.249 187.568 140.249C187.576 140.218 187.591 140.189 187.612 140.164L187.623 140.301C187.638 140.249 187.667 140.203 187.707 140.166C187.795 140.08 187.891 140.001 187.993 139.932V141.759L187.941 141.72V142.034C190.146 143.7 193.736 144.203 196.491 144.184C198.279 144.184 199.726 143.967 200.228 143.715C200.948 143.362 200.553 142.537 199.899 141.906C199.392 141.416 198.731 141.038 198.313 141.086C197.616 141.162 195.231 138.457 193.981 136.975L194.121 136.912L194.321 136.826V112.859C194.321 112.859 194.641 103.397 195.597 94.0387C196.05 89.3213 195.492 84.5614 193.961 80.0771L193.931 79.9882L194.221 80.0337C194.529 80.0815 194.693 80.1097 194.693 80.1097C194.693 80.1097 194.693 80.0359 194.674 79.8927H194.693C194.693 79.8927 194.321 75.834 194.316 70.7362C194.316 64.9572 194.804 57.9113 196.821 53.9242C197.982 51.6291 198.37 49.8025 198.337 48.3621C198.388 47.0947 198.023 45.8454 197.299 44.8045C196.996 44.3855 196.583 44.0583 196.106 43.8587L196.065 43.8348H196.043C195.695 43.6937 195.323 43.6201 194.947 43.6179H190.59C190.086 43.6183 189.59 43.4875 189.152 43.2383L187.447 42.2708C186.879 41.0278 186.797 39.4876 186.918 38.0428C186.918 37.9279 186.94 37.8129 186.951 37.7001L187.074 37.5699C187.17 37.468 187.259 37.353 187.345 37.2554C187.343 37.341 187.337 37.4264 187.326 37.5114C187.304 37.648 187.267 37.7283 187.209 37.7456C188.14 37.6242 189.18 37.4398 189.752 36.7196C189.776 36.6914 189.798 36.661 189.819 36.6306C189.988 36.3567 190.128 36.0659 190.237 35.7629C190.317 35.5559 190.424 35.3604 190.556 35.1815C190.699 34.995 190.885 34.8431 191.039 34.6652L191.065 34.6349C191.613 33.9841 191.643 33.0513 191.65 32.2009C191.661 30.1358 191.6 27.8624 190.22 26.3135C189.074 25.0249 187.246 24.5368 185.51 24.4804C183.775 24.424 182.044 24.7364 180.311 24.7451C179.133 24.7451 177.712 24.7256 177.062 25.7017C176.743 26.1812 176.704 26.8081 176.358 27.268C176.158 27.5326 175.853 27.7604 175.836 28.0901C175.833 28.2423 175.872 28.3922 175.948 28.524V28.5392C176.368 29.3678 177.261 29.8841 178.193 30.0468C178.035 30.2366 177.89 30.4366 177.759 30.6456C177.191 31.556 176.89 32.6087 176.893 33.6826C176.893 33.8084 176.893 33.932 176.906 34.0557C177.002 35.5142 177.652 36.8807 178.721 37.8758C178.704 37.9973 178.686 38.1188 178.667 38.2381L178.706 38.2728C178.829 38.3841 178.956 38.4897 179.089 38.5895L179.137 38.6264C179.137 38.7023 179.137 38.7782 179.137 38.8433C179.137 38.9691 179.137 39.0971 179.124 39.2208C179.111 39.3444 179.124 39.4203 179.111 39.5201L179.083 39.4963L176.966 37.7261L173.563 34.572C173.563 34.572 165.054 28.37 164.627 31.318C164.575 31.8416 164.72 32.3657 165.032 32.7888C166.594 35.175 171.964 37.2055 171.964 37.2055C171.964 37.2055 175.166 40.5961 177.309 44.2513C177.233 44.2925 177.157 44.3316 177.077 44.3685C175.17 45.2557 172.389 44.8804 172.389 44.8804C169.176 45.3815 168.886 48.9066 168.903 50.3318C168.903 50.3991 168.903 50.4642 168.903 50.5227C168.903 50.5813 168.903 50.5943 168.903 50.6269L164.64 40.6026L164.627 40.5722C164.488 40.2459 164.269 39.9599 163.99 39.7407C163.712 39.5216 163.382 39.3763 163.033 39.3184C160.182 38.839 153.057 37.8389 153.652 39.9453ZM171.501 137.346C171.563 137.332 171.626 137.32 171.689 137.312L171.67 137.342L171.501 137.346Z" fill="url(#paint0_linear_182_7590)"/>
<path d="M192.802 135.296C192.802 135.296 196.84 140.379 197.774 140.275C198.708 140.171 200.881 142.245 199.639 142.878C198.398 143.511 191.251 143.915 187.725 141.219V137.155L192.802 135.296Z" fill="#ACA9C9"/>
<path d="M172.398 135.607C172.398 135.607 170.015 139.858 168.36 140.379C166.705 140.9 165.254 142.765 167.429 143.284C169.604 143.802 177.372 142.661 178.096 141.416V135.917L172.398 135.607Z" fill="#ACA9C9"/>
<path d="M169.407 93.8369L171.465 108.54V115.376C171.459 116.413 171.584 117.446 171.838 118.452C172.509 121.04 171.957 130.068 171.645 134.353C171.543 135.75 171.465 136.643 171.465 136.643C172.811 136.021 178.508 137.991 178.508 137.991L179.084 136.027L179.543 134.465C180.787 133.533 179.76 116.836 179.543 112.99C179.403 110.363 180.572 101.846 181.322 96.7416C181.539 95.299 181.714 94.1384 181.82 93.4399C181.887 93.0061 181.924 92.7653 181.924 92.7653C182.153 92.9517 182.342 93.1808 182.483 93.4399C182.661 93.7465 182.814 94.0672 182.94 94.3987C185.024 99.6723 185.973 114.749 185.973 116.092V130.27C185.969 131.669 186.161 133.061 186.543 134.407C186.799 135.388 186.987 136.386 187.104 137.394C187.251 138.52 187.321 139.427 187.321 139.427C187.425 138.804 193.846 136.004 193.846 136.004V112.358C193.846 112.358 194.155 103.03 195.089 93.7935C195.49 89.5919 195.086 85.3523 193.898 81.3027C193.64 80.4198 193.382 79.6714 193.159 79.0792C192.78 78.0705 192.509 77.513 192.509 77.513H171.357C171.002 77.5802 170.707 78.2961 170.441 79.3829C170.267 80.1118 170.116 81.0056 169.983 81.9861C169.591 84.8734 169.366 88.4679 169.258 90.5461C169.203 91.6453 169.253 92.7472 169.407 93.8369Z" fill="#618FD8"/>
<g opacity="0.1">
<path opacity="0.1" d="M193.472 136.071V112.426C193.472 112.426 193.782 103.098 194.715 93.8607C195.649 84.6239 192.116 77.5781 192.116 77.5781H192.529C192.529 77.5781 196.05 84.6304 195.129 93.8607C194.208 103.091 193.886 112.426 193.886 112.426V136.071C193.886 136.071 187.465 138.871 187.361 139.494C187.361 139.494 187.361 139.355 187.328 139.116C188.728 138.142 193.472 136.071 193.472 136.071Z" fill="black"/>
<path opacity="0.1" d="M172.085 136.578C171.89 136.582 171.697 136.622 171.516 136.696V136.591C171.705 136.572 171.895 136.568 172.085 136.578Z" fill="black"/>
<path opacity="0.1" d="M179.18 134.518C180.424 133.585 179.397 116.888 179.18 113.042C178.963 109.195 181.563 92.8195 181.563 92.8195C181.699 92.9248 181.819 93.049 181.921 93.1883C181.539 95.6353 179.408 109.547 179.596 113.042C179.813 116.879 180.839 133.576 179.596 134.518L178.561 138.043L178.184 137.917L179.18 134.518Z" fill="black"/>
</g>
<path d="M173.64 51.9132L171.474 59.5881C171.474 59.5881 169.195 61.7574 167.332 59.5881C165.469 57.4188 164.321 51.603 164.208 50.3578C164.096 49.1127 162.447 42.6829 161.825 42.6829C161.204 42.6829 154.991 43.0972 154.265 40.5136C153.684 38.4354 160.621 39.429 163.398 39.8954C163.74 39.9537 164.062 40.0976 164.333 40.3138C164.605 40.5299 164.817 40.8114 164.951 41.1318L169.21 51.3166C169.21 51.3166 171.465 48.6983 173.64 51.9132Z" fill="#F7C4A7"/>
<path d="M187.622 34.0752C187.622 34.0752 184.929 41.646 188.348 44.3424C191.766 47.0389 176.123 47.7656 176.123 47.7656L178.246 45.7438C178.246 45.7438 179.747 39.7804 178.712 34.8019L187.622 34.0752Z" fill="#F7C4A7"/>
<path opacity="0.1" d="M184.307 44.3424C184.307 44.3424 187.052 43.6678 187.052 42.9432L189.485 44.3424H195.596C195.596 44.3424 200.05 46.8306 196.322 54.2995C192.593 61.7683 194.251 80.114 194.251 80.114C194.251 80.114 180.995 77.7278 170.016 81.3592C170.016 81.3592 171.673 73.1658 171.051 68.4996C170.43 63.8335 172.087 57.2996 172.087 57.2996L173.018 53.358C173.018 53.358 172.966 49.6702 169.134 51.5423C169.134 51.5423 168.564 46.2015 172.501 45.5789C172.501 45.5789 177.05 46.2015 178.404 43.9194C178.404 43.9281 181.409 45.6917 184.307 44.3424Z" fill="black"/>
<path d="M184.307 44.1363C184.307 44.1363 187.052 43.4617 187.052 42.7371L188.835 43.7632C189.261 44.0076 189.743 44.1362 190.234 44.1363H194.508C194.955 44.135 195.396 44.2402 195.794 44.4431C196.192 44.6461 196.536 44.9409 196.798 45.3034C197.78 46.6852 198.659 49.4099 196.322 54.0934C192.593 61.56 194.251 79.9079 194.251 79.9079C194.251 79.9079 180.995 77.5217 170.016 81.1531C170.016 81.1531 171.673 72.9597 171.051 68.2935C170.43 63.6274 172.087 57.1087 172.087 57.1087L173.018 53.1671C173.018 53.1671 172.966 49.4793 169.134 51.3514C169.134 51.3514 168.58 46.1581 172.338 45.4162C172.443 45.3929 172.55 45.3856 172.657 45.3945C173.46 45.4791 177.206 45.7503 178.406 43.7176C178.404 43.7198 181.409 45.4834 184.307 44.1363Z" fill="#E14B5A"/>
<path opacity="0.1" d="M194.768 53.5728C194.768 53.5728 191.454 55.6466 186.068 53.5728C186.068 53.5728 180.165 51.4035 178.3 47.143C176.435 42.8825 187.723 47.8697 187.723 47.8697C187.723 47.8697 190.106 47.8697 190.83 47.3512C191.553 46.8328 196.631 51.2907 194.768 53.5728Z" fill="black"/>
<path d="M194.768 53.1584C194.768 53.1584 191.454 55.2323 186.068 53.1584C186.068 53.1584 180.165 50.9891 178.3 46.7286C176.435 42.4682 172.087 37.802 172.087 37.802C172.087 37.802 164.526 34.8973 164.938 31.9948C165.35 29.0923 173.638 35.2097 173.638 35.2097L176.953 38.3205L187.723 47.4467C187.723 47.4467 190.106 47.4467 190.83 46.9282C191.554 46.4098 196.631 50.8763 194.768 53.1584Z" fill="#F7C4A7"/>
<path opacity="0.1" d="M178.611 35.1121L187.517 34.3854C187.059 35.7564 186.748 37.1722 186.588 38.609C185.552 39.684 184.137 40.3091 182.646 40.3497C181.155 40.3902 179.708 39.8431 178.616 38.8259C178.843 37.5983 178.841 36.3392 178.611 35.1121Z" fill="black"/>
<path d="M182.6 40.0386C185.745 40.0386 188.295 37.4852 188.295 34.3355C188.295 31.1858 185.745 28.6324 182.6 28.6324C179.454 28.6324 176.904 31.1858 176.904 34.3355C176.904 37.4852 179.454 40.0386 182.6 40.0386Z" fill="#F7C4A7"/>
<path opacity="0.1" d="M185.726 35.5741C185.393 35.0231 186.071 34.3051 185.847 33.702C185.642 33.1467 184.823 33.0513 184.548 32.5328C184.331 32.1141 184.548 31.6 184.461 31.1379C184.338 30.5414 183.696 30.1704 183.088 30.1401C182.479 30.1097 181.892 30.3375 181.313 30.5327C180.371 30.8516 179.379 31.0967 178.391 30.9839C177.403 30.8711 176.417 30.3331 175.978 29.4502C175.906 29.3216 175.868 29.1768 175.867 29.0294C175.885 28.704 176.183 28.4806 176.376 28.2202C176.714 27.7669 176.753 27.1486 177.061 26.6757C177.689 25.7125 179.069 25.7364 180.217 25.7321C181.907 25.7321 183.588 25.4154 185.278 25.4718C186.967 25.5282 188.744 26.0076 189.864 27.2788C191.207 28.8081 191.268 31.0468 191.257 33.086C191.257 33.9255 191.222 34.8387 190.687 35.4874C190.531 35.6761 190.34 35.8323 190.191 36.0253C189.866 36.4592 189.779 37.0145 189.474 37.4549C188.932 38.238 187.875 38.4289 186.933 38.5547C187.21 38.5179 186.98 36.6588 186.933 36.4874C186.751 35.6327 186.554 35.6501 185.726 35.5741Z" fill="black"/>
<path d="M185.726 35.3681C185.393 34.8171 186.071 34.099 185.847 33.496C185.642 32.9406 184.823 32.8452 184.548 32.3267C184.331 31.9081 184.548 31.3939 184.461 30.9319C184.338 30.3353 183.696 29.9644 183.088 29.934C182.479 29.9036 181.892 30.1314 181.313 30.3266C180.371 30.6455 179.379 30.8907 178.391 30.7779C177.403 30.6651 176.417 30.1271 175.978 29.2442C175.906 29.1156 175.868 28.9707 175.867 28.8233C175.885 28.4979 176.183 28.2745 176.376 28.0142C176.714 27.5608 176.753 26.9426 177.061 26.4697C177.689 25.5065 179.069 25.5304 180.217 25.526C181.907 25.526 183.588 25.2093 185.278 25.2657C186.967 25.3221 188.744 25.8015 189.864 27.0727C191.207 28.6021 191.268 30.8408 191.257 32.8799C191.257 33.7194 191.222 34.6327 190.687 35.2813C190.531 35.47 190.34 35.6262 190.191 35.8193C189.866 36.2531 189.779 36.8085 189.474 37.2489C188.932 38.032 187.875 38.2229 186.933 38.3487C187.21 38.3118 186.98 36.4527 186.933 36.2813C186.751 35.4158 186.554 35.4418 185.726 35.3681Z" fill="#281C1C"/>
<path opacity="0.1" d="M194.716 53.8331C194.716 53.8331 191.92 46.5725 189.745 46.3664C187.57 46.1603 193.887 46.3664 193.887 46.3664L195.958 50.0997L194.716 53.8331Z" fill="black"/>
<path d="M194.924 53.8331C194.924 53.8331 192.127 46.5725 189.952 46.3664C187.777 46.1603 194.094 46.3664 194.094 46.3664L196.165 50.0997L194.924 53.8331Z" fill="#E14B5A"/>
<path d="M187.094 137.411C187.241 138.537 187.31 139.444 187.31 139.444C187.414 138.821 193.835 136.021 193.835 136.021V134.335C193.672 134.329 193.508 134.337 193.346 134.359C192.1 134.526 190.945 135.131 189.88 135.778C188.979 136.37 188.05 136.915 187.094 137.411Z" fill="#618FD8"/>
<path opacity="0.3" d="M187.094 137.411C187.241 138.537 187.31 139.444 187.31 139.444C187.414 138.821 193.835 136.021 193.835 136.021V134.335C193.672 134.329 193.508 134.337 193.346 134.359C192.1 134.526 190.945 135.131 189.88 135.778C188.979 136.37 188.05 136.915 187.094 137.411Z" fill="black"/>
<path d="M171.465 136.643C172.81 136.021 178.508 137.991 178.508 137.991L179.084 136.027C178.089 135.826 177.102 135.574 176.131 135.275C175.678 135.143 175.235 134.979 174.805 134.784C174.518 134.631 174.223 134.493 173.921 134.372C173.178 134.116 172.405 134.225 171.642 134.353C171.543 135.75 171.465 136.643 171.465 136.643Z" fill="#618FD8"/>
<path opacity="0.3" d="M171.465 136.643C172.81 136.021 178.508 137.991 178.508 137.991L179.084 136.027C178.089 135.826 177.102 135.574 176.131 135.275C175.678 135.143 175.235 134.979 174.805 134.784C174.518 134.631 174.223 134.493 173.921 134.372C173.178 134.116 172.405 134.225 171.642 134.353C171.543 135.75 171.465 136.643 171.465 136.643Z" fill="black"/>
<path opacity="0.4" d="M199.583 142.555C199.669 142.518 199.746 142.461 199.808 142.39C199.87 142.318 199.914 142.234 199.938 142.143C199.977 142.286 199.962 142.438 199.896 142.571C199.831 142.704 199.72 142.808 199.583 142.865C198.339 143.488 191.195 143.902 187.668 141.205V140.895C191.195 143.592 198.339 143.177 199.583 142.555Z" fill="white"/>
<path opacity="0.4" d="M167.374 142.969C169.54 143.488 177.317 142.347 178.041 141.101V141.412C177.315 142.657 169.549 143.798 167.374 143.279C166.486 143.062 166.202 142.629 166.291 142.153C166.36 142.505 166.685 142.796 167.374 142.969Z" fill="white"/>
<path opacity="0.1" d="M180.008 67.4193C180.008 67.4193 177.729 66.6926 177.108 67.4193C176.486 68.146 171.172 69.8489 171.172 69.8489" fill="black"/>
<path d="M154.222 38.9235H165.303V38.6892H154.222V38.9235Z" fill="#8ED16F"/>
<path d="M154.222 39.1578H165.303V38.9236H154.222V39.1578Z" fill="#8ED16F"/>
<path opacity="0.1" d="M154.222 39.1578H165.303V38.9236H154.222V39.1578Z" fill="black"/>
<path d="M154.222 39.3921H165.303V39.1578H154.222V39.3921Z" fill="#8ED16F"/>
<path d="M154.222 39.6242H165.303V39.3899H154.222V39.6242Z" fill="#8ED16F"/>
<path opacity="0.1" d="M154.222 39.6242H165.303V39.3899H154.222V39.6242Z" fill="black"/>
<path d="M154.222 39.8585H165.303V39.6242H154.222V39.8585Z" fill="#8ED16F"/>
<path d="M154.222 40.0906H165.303V39.8564H154.222V40.0906Z" fill="#8ED16F"/>
<path opacity="0.1" d="M154.222 40.0906H165.303V39.8564H154.222V40.0906Z" fill="black"/>
<path d="M154.222 40.3249H165.303V40.0906H154.222V40.3249Z" fill="#8ED16F"/>
<path d="M154.222 40.557H165.303V40.3227H154.222V40.557Z" fill="#8ED16F"/>
<path opacity="0.1" d="M154.222 40.557H165.303V40.3227H154.222V40.557Z" fill="black"/>
<path d="M154.222 37.058H165.303V36.8237H154.222V37.058Z" fill="#8ED16F"/>
<path d="M162.061 31.5112L170.58 38.6063L170.73 38.4262L162.21 31.331L162.061 31.5112Z" fill="#8ED16F"/>
<path d="M154.293 27.7783L162.812 34.8734L162.962 34.6933L154.443 27.5981L154.293 27.7783Z" fill="#8ED16F"/>
<path d="M154.222 37.29H165.303V37.0558H154.222V37.29Z" fill="#8ED16F"/>
<path opacity="0.1" d="M154.222 37.29H165.303V37.0558H154.222V37.29Z" fill="black"/>
<path d="M154.222 37.5265H165.303V37.2922H154.222V37.5265Z" fill="#8ED16F"/>
<path d="M154.222 37.7587H165.303V37.5244H154.222V37.7587Z" fill="#8ED16F"/>
<path opacity="0.1" d="M154.222 37.7587H165.303V37.5244H154.222V37.7587Z" fill="black"/>
<path d="M154.222 37.9907H165.303V37.7564H154.222V37.9907Z" fill="#8ED16F"/>
<path d="M154.222 38.225H165.303V37.9907H154.222V38.225Z" fill="#8ED16F"/>
<path opacity="0.1" d="M154.222 38.225H165.303V37.9907H154.222V38.225Z" fill="black"/>
<path d="M154.222 38.4572H165.303V38.2229H154.222V38.4572Z" fill="#8ED16F"/>
<path d="M154.222 38.6914H165.303V38.4571H154.222V38.6914Z" fill="#8ED16F"/>
<path opacity="0.1" d="M154.222 38.6914H165.303V38.4571H154.222V38.6914Z" fill="black"/>
<path d="M152.819 47.7879L156.789 48.5261L158.226 40.7776L154.256 40.0393L152.819 47.7879Z" fill="#8ED16F"/>
<path d="M156.391 44.4587C156.558 43.5576 156.329 42.7594 155.88 42.6758C155.43 42.5922 154.931 43.255 154.764 44.1561C154.596 45.0572 154.825 45.8555 155.275 45.939C155.724 46.0226 156.224 45.3598 156.391 44.4587Z" fill="#8ED16F"/>
<path opacity="0.1" d="M156.391 44.4587C156.558 43.5576 156.329 42.7594 155.88 42.6758C155.43 42.5922 154.931 43.255 154.764 44.1561C154.596 45.0572 154.825 45.8555 155.275 45.939C155.724 46.0226 156.224 45.3598 156.391 44.4587Z" fill="black"/>
<path d="M153.497 64.143L157.467 64.8812L158.904 57.1327L154.934 56.3944L153.497 64.143Z" fill="#8ED16F"/>
<path d="M157.068 60.812C157.236 59.9108 157.007 59.1126 156.557 59.029C156.108 58.9455 155.608 59.6083 155.441 60.5094C155.274 61.4105 155.503 62.2087 155.952 62.2923C156.402 62.3758 156.901 61.7131 157.068 60.812Z" fill="#8ED16F"/>
<path opacity="0.1" d="M157.068 60.812C157.236 59.9108 157.007 59.1126 156.557 59.029C156.108 58.9455 155.608 59.6083 155.441 60.5094C155.274 61.4105 155.503 62.2087 155.952 62.2923C156.402 62.3758 156.901 61.7131 157.068 60.812Z" fill="black"/>
<path d="M139.139 23.9426L137.217 27.4988L144.139 31.2497L146.06 27.6934L139.139 23.9426Z" fill="#8ED16F"/>
<path d="M143.771 28.5452C143.99 28.1425 143.515 27.4594 142.71 27.0194C141.904 26.5795 141.074 26.5494 140.854 26.9521C140.635 27.3548 141.11 28.038 141.915 28.4779C142.721 28.9178 143.552 28.948 143.771 28.5452Z" fill="#8ED16F"/>
<path opacity="0.1" d="M143.771 28.5452C143.99 28.1425 143.515 27.4594 142.71 27.0194C141.904 26.5795 141.074 26.5494 140.854 26.9521C140.635 27.3548 141.11 28.038 141.915 28.4779C142.721 28.9178 143.552 28.948 143.771 28.5452Z" fill="black"/>
<path d="M123.939 94.1242L122.018 97.6804L128.939 101.431L130.861 97.875L123.939 94.1242Z" fill="#8ED16F"/>
<path d="M127.875 98.6151C128.093 98.2126 127.617 97.5327 126.812 97.0965C126.007 96.6603 125.178 96.633 124.96 97.0355C124.743 97.438 125.219 98.1179 126.024 98.5541C126.829 98.9903 127.658 99.0176 127.875 98.6151Z" fill="#8ED16F"/>
<path opacity="0.1" d="M127.875 98.6151C128.093 98.2126 127.617 97.5327 126.812 97.0965C126.007 96.6603 125.178 96.633 124.96 97.0355C124.743 97.438 125.219 98.1179 126.024 98.5541C126.829 98.9903 127.658 99.0176 127.875 98.6151Z" fill="black"/>
<path d="M114.641 36.208L112.719 39.7642L119.641 43.515L121.562 39.9588L114.641 36.208Z" fill="#8ED16F"/>
<path d="M118.575 40.6956C118.792 40.2931 118.316 39.6132 117.511 39.177C116.706 38.7408 115.877 38.7135 115.659 39.116C115.442 39.5185 115.918 40.1984 116.723 40.6346C117.528 41.0708 118.357 41.0981 118.575 40.6956Z" fill="#8ED16F"/>
<path opacity="0.1" d="M118.575 40.6956C118.792 40.2931 118.316 39.6132 117.511 39.177C116.706 38.7408 115.877 38.7135 115.659 39.116C115.442 39.5185 115.918 40.1984 116.723 40.6346C117.528 41.0708 118.357 41.0981 118.575 40.6956Z" fill="black"/>
<path d="M126.295 23.9416L124.373 27.4979L131.295 31.2487L133.217 27.6925L126.295 23.9416Z" fill="#8ED16F"/>
<path d="M130.229 28.4293C130.446 28.0268 129.97 27.3469 129.165 26.9107C128.36 26.4745 127.531 26.4472 127.314 26.8497C127.096 27.2522 127.572 27.9321 128.377 28.3683C129.182 28.8045 130.011 28.8318 130.229 28.4293Z" fill="#8ED16F"/>
<path opacity="0.1" d="M130.229 28.4293C130.446 28.0268 129.97 27.3469 129.165 26.9107C128.36 26.4745 127.531 26.4472 127.314 26.8497C127.096 27.2522 127.572 27.9321 128.377 28.3683C129.182 28.8045 130.011 28.8318 130.229 28.4293Z" fill="black"/>
<path d="M137.932 38.4151L133.918 38.8546L134.773 46.6889L138.788 46.2494L137.932 38.4151Z" fill="#8ED16F"/>
<path d="M136.48 44.2083C136.934 44.1586 137.222 43.3797 137.122 42.4686C137.023 41.5575 136.574 40.8593 136.12 40.909C135.665 40.9588 135.378 41.7377 135.477 42.6488C135.576 43.5598 136.025 44.2581 136.48 44.2083Z" fill="#8ED16F"/>
<path opacity="0.1" d="M136.48 44.2083C136.934 44.1586 137.222 43.3797 137.122 42.4686C137.023 41.5575 136.574 40.8593 136.12 40.909C135.665 40.9588 135.378 41.7377 135.477 42.6488C135.576 43.5598 136.025 44.2581 136.48 44.2083Z" fill="black"/>
<path d="M165.452 81.3145L161.438 81.754L162.293 89.5883L166.307 89.1488L165.452 81.3145Z" fill="#8ED16F"/>
<path d="M164.001 87.1078C164.456 87.058 164.743 86.2791 164.644 85.368C164.544 84.4569 164.095 83.7587 163.641 83.8084C163.187 83.8582 162.899 84.6371 162.998 85.5482C163.098 86.4592 163.547 87.1575 164.001 87.1078Z" fill="#8ED16F"/>
<path opacity="0.1" d="M164.001 87.1078C164.456 87.058 164.743 86.2791 164.644 85.368C164.544 84.4569 164.095 83.7587 163.641 83.8084C163.187 83.8582 162.899 84.6371 162.998 85.5482C163.098 86.4592 163.547 87.1575 164.001 87.1078Z" fill="black"/>
<path d="M122.213 55.0573L120.291 58.6135L127.213 62.3644L129.135 58.8081L122.213 55.0573Z" fill="#8ED16F"/>
<path d="M126.145 59.5479C126.362 59.1454 125.886 58.4655 125.081 58.0293C124.276 57.5931 123.447 57.5658 123.23 57.9683C123.012 58.3708 123.488 59.0507 124.293 59.4869C125.098 59.9231 125.927 59.9504 126.145 59.5479Z" fill="#8ED16F"/>
<path opacity="0.1" d="M126.145 59.5479C126.362 59.1454 125.886 58.4655 125.081 58.0293C124.276 57.5931 123.447 57.5658 123.23 57.9683C123.012 58.3708 123.488 59.0507 124.293 59.4869C125.098 59.9231 125.927 59.9504 126.145 59.5479Z" fill="black"/>
<path d="M104.746 50.0618L102.824 53.618L109.746 57.3689L111.668 53.8126L104.746 50.0618Z" fill="#8ED16F"/>
<path d="M109.255 54.7886C109.475 54.3858 109 53.7027 108.194 53.2628C107.389 52.8229 106.558 52.7927 106.339 53.1955C106.119 53.5982 106.594 54.2813 107.4 54.7212C108.205 55.1612 109.036 55.1913 109.255 54.7886Z" fill="#8ED16F"/>
<path opacity="0.1" d="M109.255 54.7886C109.475 54.3858 109 53.7027 108.194 53.2628C107.389 52.8229 106.558 52.7927 106.339 53.1955C106.119 53.5982 106.594 54.2813 107.4 54.7212C108.205 55.1612 109.036 55.1913 109.255 54.7886Z" fill="black"/>
<path opacity="0.1" d="M109.255 54.7886C109.475 54.3858 109 53.7027 108.194 53.2628C107.389 52.8229 106.558 52.7927 106.339 53.1955C106.119 53.5982 106.594 54.2813 107.4 54.7212C108.205 55.1612 109.036 55.1913 109.255 54.7886Z" fill="black"/>
<path d="M108.922 68L107 71.5562L113.922 75.307L115.844 71.7508L108.922 68Z" fill="#8ED16F"/>
<path d="M113.431 72.7267C113.651 72.324 113.175 71.6409 112.37 71.201C111.565 70.761 110.734 70.7309 110.514 71.1336C110.295 71.5364 110.77 72.2195 111.576 72.6594C112.381 73.0993 113.212 73.1295 113.431 72.7267Z" fill="#8ED16F"/>
<path opacity="0.1" d="M113.431 72.7267C113.651 72.324 113.175 71.6409 112.37 71.201C111.565 70.761 110.734 70.7309 110.514 71.1336C110.295 71.5364 110.77 72.2195 111.576 72.6594C112.381 73.0993 113.212 73.1295 113.431 72.7267Z" fill="black"/>
<path opacity="0.1" d="M113.431 72.7267C113.651 72.324 113.175 71.6409 112.37 71.201C111.565 70.761 110.734 70.7309 110.514 71.1336C110.295 71.5364 110.77 72.2195 111.576 72.6594C112.381 73.0993 113.212 73.1295 113.431 72.7267Z" fill="black"/>
<path d="M101.922 79L100 82.5562L106.922 86.307L108.844 82.7508L101.922 79Z" fill="#8ED16F"/>
<path d="M106.431 83.7267C106.651 83.324 106.175 82.6409 105.37 82.201C104.565 81.761 103.734 81.7309 103.514 82.1336C103.295 82.5364 103.77 83.2195 104.576 83.6594C105.381 84.0993 106.212 84.1295 106.431 83.7267Z" fill="#8ED16F"/>
<path opacity="0.1" d="M106.431 83.7267C106.651 83.324 106.175 82.6409 105.37 82.201C104.565 81.761 103.734 81.7309 103.514 82.1336C103.295 82.5364 103.77 83.2195 104.576 83.6594C105.381 84.0993 106.212 84.1295 106.431 83.7267Z" fill="black"/>
<path opacity="0.1" d="M106.431 83.7267C106.651 83.324 106.175 82.6409 105.37 82.201C104.565 81.761 103.734 81.7309 103.514 82.1336C103.295 82.5364 103.77 83.2195 104.576 83.6594C105.381 84.0993 106.212 84.1295 106.431 83.7267Z" fill="black"/>
<path d="M109.922 101L108 104.556L114.922 108.307L116.844 104.751L109.922 101Z" fill="#8ED16F"/>
<path d="M114.431 105.727C114.651 105.324 114.175 104.641 113.37 104.201C112.565 103.761 111.734 103.731 111.514 104.134C111.295 104.536 111.77 105.219 112.576 105.659C113.381 106.099 114.212 106.129 114.431 105.727Z" fill="#8ED16F"/>
<path opacity="0.1" d="M114.431 105.727C114.651 105.324 114.175 104.641 113.37 104.201C112.565 103.761 111.734 103.731 111.514 104.134C111.295 104.536 111.77 105.219 112.576 105.659C113.381 106.099 114.212 106.129 114.431 105.727Z" fill="black"/>
<path opacity="0.1" d="M114.431 105.727C114.651 105.324 114.175 104.641 113.37 104.201C112.565 103.761 111.734 103.731 111.514 104.134C111.295 104.536 111.77 105.219 112.576 105.659C113.381 106.099 114.212 106.129 114.431 105.727Z" fill="black"/>
<path d="M104.922 113L103 116.556L109.922 120.307L111.844 116.751L104.922 113Z" fill="#8ED16F"/>
<path d="M109.431 117.727C109.651 117.324 109.175 116.641 108.37 116.201C107.565 115.761 106.734 115.731 106.514 116.134C106.295 116.536 106.77 117.219 107.576 117.659C108.381 118.099 109.212 118.129 109.431 117.727Z" fill="#8ED16F"/>
<path opacity="0.1" d="M109.431 117.727C109.651 117.324 109.175 116.641 108.37 116.201C107.565 115.761 106.734 115.731 106.514 116.134C106.295 116.536 106.77 117.219 107.576 117.659C108.381 118.099 109.212 118.129 109.431 117.727Z" fill="black"/>
<path opacity="0.1" d="M109.431 117.727C109.651 117.324 109.175 116.641 108.37 116.201C107.565 115.761 106.734 115.731 106.514 116.134C106.295 116.536 106.77 117.219 107.576 117.659C108.381 118.099 109.212 118.129 109.431 117.727Z" fill="black"/>
<path d="M113.922 127L112 130.556L118.922 134.307L120.844 130.751L113.922 127Z" fill="#8ED16F"/>
<path d="M118.431 131.727C118.651 131.324 118.175 130.641 117.37 130.201C116.565 129.761 115.734 129.731 115.514 130.134C115.295 130.536 115.77 131.219 116.576 131.659C117.381 132.099 118.212 132.129 118.431 131.727Z" fill="#8ED16F"/>
<path opacity="0.1" d="M118.431 131.727C118.651 131.324 118.175 130.641 117.37 130.201C116.565 129.761 115.734 129.731 115.514 130.134C115.295 130.536 115.77 131.219 116.576 131.659C117.381 132.099 118.212 132.129 118.431 131.727Z" fill="black"/>
<path opacity="0.1" d="M118.431 131.727C118.651 131.324 118.175 130.641 117.37 130.201C116.565 129.761 115.734 129.731 115.514 130.134C115.295 130.536 115.77 131.219 116.576 131.659C117.381 132.099 118.212 132.129 118.431 131.727Z" fill="black"/>
<path d="M99.1523 134.167L97.2305 137.723L104.152 141.474L106.074 137.917L99.1523 134.167Z" fill="#8ED16F"/>
<path d="M103.084 138.655C103.302 138.253 102.826 137.573 102.021 137.137C101.216 136.701 100.387 136.673 100.169 137.076C99.9517 137.478 100.428 138.158 101.233 138.594C102.038 139.031 102.867 139.058 103.084 138.655Z" fill="#8ED16F"/>
<path opacity="0.1" d="M103.084 138.655C103.302 138.253 102.826 137.573 102.021 137.137C101.216 136.701 100.387 136.673 100.169 137.076C99.9517 137.478 100.428 138.158 101.233 138.594C102.038 139.031 102.867 139.058 103.084 138.655Z" fill="black"/>
<path d="M94.1155 135.537L93.3789 139.513L101.117 140.951L101.854 136.975L94.1155 135.537Z" fill="#8ED16F"/>
<path opacity="0.05" d="M94.1155 135.537L93.3789 139.513L101.117 140.951L101.854 136.975L94.1155 135.537Z" fill="black"/>
<path d="M99.2379 138.597C99.3213 138.147 98.6594 137.647 97.7595 137.48C96.8595 137.312 96.0624 137.542 95.9791 137.992C95.8957 138.442 96.5577 138.942 97.4576 139.109C98.3575 139.276 99.1546 139.047 99.2379 138.597Z" fill="#8ED16F"/>
<path opacity="0.1" d="M99.2379 138.597C99.3213 138.147 98.6594 137.647 97.7595 137.48C96.8595 137.312 96.0624 137.542 95.9791 137.992C95.8957 138.442 96.5577 138.942 97.4576 139.109C98.3575 139.276 99.1546 139.047 99.2379 138.597Z" fill="black"/>
<path d="M94.842 137.922L94.1055 141.897L101.844 143.335L102.58 139.359L94.842 137.922Z" fill="#8ED16F"/>
<path d="M99.9606 140.981C100.044 140.531 99.382 140.031 98.4821 139.864C97.5822 139.697 96.7851 139.926 96.7017 140.376C96.6184 140.826 97.2803 141.326 98.1802 141.493C99.0801 141.66 99.8772 141.431 99.9606 140.981Z" fill="#8ED16F"/>
<path opacity="0.1" d="M99.9606 140.981C100.044 140.531 99.382 140.031 98.4821 139.864C97.5822 139.697 96.7851 139.926 96.7017 140.376C96.6184 140.826 97.2803 141.326 98.1802 141.493C99.0801 141.66 99.8772 141.431 99.9606 140.981Z" fill="black"/>
<path d="M107.316 144.388L105.395 147.944L112.316 151.695L114.238 148.139L107.316 144.388Z" fill="#8ED16F"/>
<path d="M111.252 148.877C111.47 148.474 110.994 147.794 110.189 147.358C109.384 146.922 108.555 146.894 108.337 147.297C108.12 147.699 108.596 148.379 109.401 148.816C110.206 149.252 111.035 149.279 111.252 148.877Z" fill="#8ED16F"/>
<path opacity="0.1" d="M111.252 148.877C111.47 148.474 110.994 147.794 110.189 147.358C109.384 146.922 108.555 146.894 108.337 147.297C108.12 147.699 108.596 148.379 109.401 148.816C110.206 149.252 111.035 149.279 111.252 148.877Z" fill="black"/>
<path d="M102.281 145.756L101.545 149.732L109.283 151.169L110.02 147.193L102.281 145.756Z" fill="#8ED16F"/>
<path opacity="0.05" d="M102.281 145.756L101.545 149.732L109.283 151.169L110.02 147.193L102.281 145.756Z" fill="black"/>
<path d="M107.402 148.816C107.485 148.366 106.823 147.865 105.924 147.698C105.024 147.531 104.227 147.76 104.143 148.21C104.06 148.66 104.722 149.16 105.622 149.328C106.522 149.495 107.319 149.266 107.402 148.816Z" fill="#8ED16F"/>
<path opacity="0.1" d="M107.402 148.816C107.485 148.366 106.823 147.865 105.924 147.698C105.024 147.531 104.227 147.76 104.143 148.21C104.06 148.66 104.722 149.16 105.622 149.328C106.522 149.495 107.319 149.266 107.402 148.816Z" fill="black"/>
<path d="M103.006 148.143L102.27 152.118L110.008 153.556L110.744 149.58L103.006 148.143Z" fill="#8ED16F"/>
<path d="M108.129 151.202C108.212 150.752 107.55 150.252 106.65 150.085C105.75 149.918 104.953 150.147 104.87 150.597C104.786 151.047 105.448 151.547 106.348 151.714C107.248 151.882 108.045 151.652 108.129 151.202Z" fill="#8ED16F"/>
<path opacity="0.1" d="M108.129 151.202C108.212 150.752 107.55 150.252 106.65 150.085C105.75 149.918 104.953 150.147 104.87 150.597C104.786 151.047 105.448 151.547 106.348 151.714C107.248 151.882 108.045 151.652 108.129 151.202Z" fill="black"/>
<path d="M119.566 137.801L117.645 141.357L124.566 145.108L126.488 141.552L119.566 137.801Z" fill="#8ED16F"/>
<path d="M123.498 142.289C123.716 141.886 123.24 141.206 122.435 140.77C121.63 140.334 120.801 140.306 120.583 140.709C120.366 141.111 120.842 141.791 121.647 142.227C122.452 142.664 123.281 142.691 123.498 142.289Z" fill="#8ED16F"/>
<path opacity="0.1" d="M123.498 142.289C123.716 141.886 123.24 141.206 122.435 140.77C121.63 140.334 120.801 140.306 120.583 140.709C120.366 141.111 120.842 141.791 121.647 142.227C122.452 142.664 123.281 142.691 123.498 142.289Z" fill="black"/>
<path d="M114.531 139.17L113.795 143.146L121.533 144.583L122.27 140.608L114.531 139.17Z" fill="#8ED16F"/>
<path opacity="0.05" d="M114.531 139.17L113.795 143.146L121.533 144.583L122.27 140.608L114.531 139.17Z" fill="black"/>
<path d="M119.652 142.23C119.735 141.78 119.073 141.28 118.174 141.112C117.274 140.945 116.477 141.174 116.393 141.624C116.31 142.074 116.972 142.575 117.872 142.742C118.772 142.909 119.569 142.68 119.652 142.23Z" fill="#8ED16F"/>
<path opacity="0.1" d="M119.652 142.23C119.735 141.78 119.073 141.28 118.174 141.112C117.274 140.945 116.477 141.174 116.393 141.624C116.31 142.074 116.972 142.575 117.872 142.742C118.772 142.909 119.569 142.68 119.652 142.23Z" fill="black"/>
<path d="M115.256 141.556L114.52 145.532L122.258 146.97L122.994 142.994L115.256 141.556Z" fill="#8ED16F"/>
<path d="M120.379 144.617C120.462 144.167 119.8 143.666 118.9 143.499C118 143.332 117.203 143.561 117.12 144.011C117.036 144.461 117.698 144.961 118.598 145.129C119.498 145.296 120.295 145.067 120.379 144.617Z" fill="#8ED16F"/>
<path opacity="0.1" d="M120.379 144.617C120.462 144.167 119.8 143.666 118.9 143.499C118 143.332 117.203 143.561 117.12 144.011C117.036 144.461 117.698 144.961 118.598 145.129C119.498 145.296 120.295 145.067 120.379 144.617Z" fill="black"/>
</g>
<defs>
<linearGradient id="paint0_linear_182_7590" x1="-139186" y1="90806.5" x2="-139186" y2="24655.3" gradientUnits="userSpaceOnUse">
<stop stop-color="#808080" stop-opacity="0.25"/>
<stop offset="0.54" stop-color="#808080" stop-opacity="0.12"/>
<stop offset="1" stop-color="#808080" stop-opacity="0.1"/>
</linearGradient>
<clipPath id="clip0_182_7590">
<rect width="211" height="155" fill="white"/>
</clipPath>
</defs>
</svg>
